<svg width="64" height="64" viewBox="0 0 64 64" fill="none" xmlns="http://www.w3.org/2000/svg">
<path d="M50.9045 38.9739C50.5285 38.5978 50.3174 38.0877 50.3174 37.5559C50.3174 37.0241 50.5285 36.5141 50.9045 36.1379L54.6245 32.4179C54.8109 32.2317 55.0323 32.0841 55.2758 31.9834C55.5194 31.8827 55.7804 31.831 56.0439 31.8312C56.3074 31.8314 56.5683 31.8835 56.8117 31.9845C57.0551 32.0855 57.2763 32.2335 57.4625 32.4199C57.6487 32.6064 57.7963 32.8278 57.897 33.0713C57.9977 33.3148 58.0494 33.5758 58.0492 33.8394C58.0491 34.1029 57.997 34.3638 57.8959 34.6072C57.7949 34.8506 57.6469 35.0717 57.4605 35.2579L53.7405 38.9739C53.3643 39.3499 52.8543 39.561 52.3225 39.561C51.7907 39.561 51.2806 39.3499 50.9045 38.9739Z" fill="url(#paint0_radial_451_2787)"/>
<path d="M50.9045 38.9739C50.5285 38.5978 50.3174 38.0877 50.3174 37.5559C50.3174 37.0241 50.5285 36.5141 50.9045 36.1379L54.6245 32.4179C54.8109 32.2317 55.0323 32.0841 55.2758 31.9834C55.5194 31.8827 55.7804 31.831 56.0439 31.8312C56.3074 31.8314 56.5683 31.8835 56.8117 31.9845C57.0551 32.0855 57.2763 32.2335 57.4625 32.4199C57.6487 32.6064 57.7963 32.8278 57.897 33.0713C57.9977 33.3148 58.0494 33.5758 58.0492 33.8394C58.0491 34.1029 57.997 34.3638 57.8959 34.6072C57.7949 34.8506 57.6469 35.0717 57.4605 35.2579L53.7405 38.9739C53.3643 39.3499 52.8543 39.561 52.3225 39.561C51.7907 39.561 51.2806 39.3499 50.9045 38.9739Z" fill="url(#paint1_linear_451_2787)"/>
<path d="M50.9045 38.9739C50.5285 38.5978 50.3174 38.0877 50.3174 37.5559C50.3174 37.0241 50.5285 36.5141 50.9045 36.1379L54.6245 32.4179C54.8109 32.2317 55.0323 32.0841 55.2758 31.9834C55.5194 31.8827 55.7804 31.831 56.0439 31.8312C56.3074 31.8314 56.5683 31.8835 56.8117 31.9845C57.0551 32.0855 57.2763 32.2335 57.4625 32.4199C57.6487 32.6064 57.7963 32.8278 57.897 33.0713C57.9977 33.3148 58.0494 33.5758 58.0492 33.8394C58.0491 34.1029 57.997 34.3638 57.8959 34.6072C57.7949 34.8506 57.6469 35.0717 57.4605 35.2579L53.7405 38.9739C53.3643 39.3499 52.8543 39.561 52.3225 39.561C51.7907 39.561 51.2806 39.3499 50.9045 38.9739Z" fill="url(#paint2_linear_451_2787)"/>
<path d="M24.9201 13C24.7337 12.8137 24.5858 12.5925 24.4849 12.349C24.384 12.1055 24.332 11.8446 24.332 11.581C24.332 11.3174 24.384 11.0565 24.4849 10.813C24.5858 10.5695 24.7337 10.3483 24.9201 10.162L28.6381 6.444C29.0145 6.06792 29.5248 5.85675 30.0568 5.85693C30.5889 5.85712 31.099 6.06865 31.4751 6.445C31.8512 6.82134 32.0624 7.33166 32.0622 7.8637C32.062 8.39574 31.8505 8.90592 31.4741 9.282L27.7601 12.998C27.5738 13.1844 27.3526 13.3323 27.1091 13.4332C26.8657 13.5341 26.6047 13.5861 26.3411 13.5861C26.0776 13.5861 25.8166 13.5341 25.5731 13.4332C25.3296 13.3323 25.1084 13.1844 24.9221 12.998" fill="url(#paint3_radial_451_2787)"/>
<path d="M24.9201 13C24.7337 12.8137 24.5858 12.5925 24.4849 12.349C24.384 12.1055 24.332 11.8446 24.332 11.581C24.332 11.3174 24.384 11.0565 24.4849 10.813C24.5858 10.5695 24.7337 10.3483 24.9201 10.162L28.6381 6.444C29.0145 6.06792 29.5248 5.85675 30.0568 5.85693C30.5889 5.85712 31.099 6.06865 31.4751 6.445C31.8512 6.82134 32.0624 7.33166 32.0622 7.8637C32.062 8.39574 31.8505 8.90592 31.4741 9.282L27.7601 12.998C27.5738 13.1844 27.3526 13.3323 27.1091 13.4332C26.8657 13.5341 26.6047 13.5861 26.3411 13.5861C26.0776 13.5861 25.8166 13.5341 25.5731 13.4332C25.3296 13.3323 25.1084 13.1844 24.9221 12.998" fill="url(#paint4_linear_451_2787)"/>
<path d="M24.9201 13C24.7337 12.8137 24.5858 12.5925 24.4849 12.349C24.384 12.1055 24.332 11.8446 24.332 11.581C24.332 11.3174 24.384 11.0565 24.4849 10.813C24.5858 10.5695 24.7337 10.3483 24.9201 10.162L28.6381 6.444C29.0145 6.06792 29.5248 5.85675 30.0568 5.85693C30.5889 5.85712 31.099 6.06865 31.4751 6.445C31.8512 6.82134 32.0624 7.33166 32.0622 7.8637C32.062 8.39574 31.8505 8.90592 31.4741 9.282L27.7601 12.998C27.5738 13.1844 27.3526 13.3323 27.1091 13.4332C26.8657 13.5341 26.6047 13.5861 26.3411 13.5861C26.0776 13.5861 25.8166 13.5341 25.5731 13.4332C25.3296 13.3323 25.1084 13.1844 24.9221 12.998" fill="url(#paint5_linear_451_2787)"/>
<g filter="url(#filter0_ii_451_2787)">
<path d="M34.5345 25.16L13.9285 13.86C13.1169 13.4132 12.4938 12.6885 12.1737 11.8192C11.8535 10.9498 11.8577 9.99412 12.1855 9.12761C12.5133 8.2611 13.1428 7.54195 13.9582 7.10225C14.7737 6.66255 15.7204 6.53181 16.6245 6.73404L42.6285 12.594L34.5345 25.16Z" fill="#4282DA"/>
<path d="M34.5345 25.16L13.9285 13.86C13.1169 13.4132 12.4938 12.6885 12.1737 11.8192C11.8535 10.9498 11.8577 9.99412 12.1855 9.12761C12.5133 8.2611 13.1428 7.54195 13.9582 7.10225C14.7737 6.66255 15.7204 6.53181 16.6245 6.73404L42.6285 12.594L34.5345 25.16Z" fill="url(#paint6_linear_451_2787)"/>
</g>
<g filter="url(#filter1_ii_451_2787)">
<path d="M38.752 29.3799L50.048 49.9819C50.494 50.7947 51.2185 51.4192 52.0883 51.7404C52.958 52.0616 53.9145 52.058 54.7818 51.7302C55.6491 51.4024 56.3688 50.7725 56.8087 49.9563C57.2486 49.1401 57.379 48.1926 57.176 47.2879L51.316 21.2839L38.752 29.3799Z" fill="#4282DA"/>
<path d="M38.752 29.3799L50.048 49.9819C50.494 50.7947 51.2185 51.4192 52.0883 51.7404C52.958 52.0616 53.9145 52.058 54.7818 51.7302C55.6491 51.4024 56.3688 50.7725 56.8087 49.9563C57.2486 49.1401 57.379 48.1926 57.176 47.2879L51.316 21.2839L38.752 29.3799Z" fill="url(#paint7_linear_451_2787)"/>
</g>
<g filter="url(#filter2_ii_451_2787)">
<path d="M16.0941 37.406C16.3788 37.4855 16.6799 37.4846 16.9641 37.4034C17.2483 37.3222 17.5045 37.1639 17.7041 36.946L45.4441 6.71399C46.2112 5.88682 47.1375 5.22306 48.1673 4.76248C49.1971 4.30189 50.3093 4.05398 51.4372 4.03359C52.5651 4.01321 53.6856 4.22077 54.7313 4.64384C55.7771 5.06691 56.7267 5.69678 57.5232 6.49569C58.3197 7.29459 58.9466 8.24609 59.3665 9.29315C59.7864 10.3402 59.9906 11.4613 59.9668 12.5891C59.9429 13.717 59.6916 14.8284 59.2279 15.8568C58.7642 16.8852 58.0976 17.8094 57.2682 18.574L26.8001 46.36C26.5783 46.562 26.4177 46.8223 26.3367 47.1113C26.2557 47.4002 26.2576 47.7061 26.3421 47.994L28.9521 56.896C29.0854 57.3508 29.0636 57.837 28.8899 58.278C28.7163 58.719 28.4008 59.0896 27.9933 59.3314C27.5857 59.5733 27.1092 59.6726 26.6389 59.6136C26.1687 59.5547 25.7314 59.3409 25.3961 59.006L4.81015 38.448C4.39454 38.0323 4.15062 37.4754 4.12691 36.888C4.10319 36.3006 4.30141 35.7259 4.68215 35.278C4.89955 35.0232 5.18516 34.8357 5.50542 34.7376C5.82569 34.6394 6.1673 34.6347 6.49015 34.724L16.0941 37.406Z" fill="url(#paint8_linear_451_2787)"/>
</g>
<path d="M16.0941 37.406C16.3788 37.4855 16.6799 37.4846 16.9641 37.4034C17.2483 37.3222 17.5045 37.1639 17.7041 36.946L45.4441 6.71399C46.2112 5.88682 47.1375 5.22306 48.1673 4.76248C49.1971 4.30189 50.3093 4.05398 51.4372 4.03359C52.5651 4.01321 53.6856 4.22077 54.7313 4.64384C55.7771 5.06691 56.7267 5.69678 57.5232 6.49569C58.3197 7.29459 58.9466 8.24609 59.3665 9.29315C59.7864 10.3402 59.9906 11.4613 59.9668 12.5891C59.9429 13.717 59.6916 14.8284 59.2279 15.8568C58.7642 16.8852 58.0976 17.8094 57.2682 18.574L26.8001 46.36C26.5783 46.562 26.4177 46.8223 26.3367 47.1113C26.2557 47.4002 26.2576 47.7061 26.3421 47.994L28.9521 56.896C29.0854 57.3508 29.0636 57.837 28.8899 58.278C28.7163 58.719 28.4008 59.0896 27.9933 59.3314C27.5857 59.5733 27.1092 59.6726 26.6389 59.6136C26.1687 59.5547 25.7314 59.3409 25.3961 59.006L4.81015 38.448C4.39454 38.0323 4.15062 37.4754 4.12691 36.888C4.10319 36.3006 4.30141 35.7259 4.68215 35.278C4.89955 35.0232 5.18516 34.8357 5.50542 34.7376C5.82569 34.6394 6.1673 34.6347 6.49015 34.724L16.0941 37.406Z" fill="url(#paint9_linear_451_2787)"/>
<path d="M16.0941 37.406C16.3788 37.4855 16.6799 37.4846 16.9641 37.4034C17.2483 37.3222 17.5045 37.1639 17.7041 36.946L45.4441 6.71399C46.2112 5.88682 47.1375 5.22306 48.1673 4.76248C49.1971 4.30189 50.3093 4.05398 51.4372 4.03359C52.5651 4.01321 53.6856 4.22077 54.7313 4.64384C55.7771 5.06691 56.7267 5.69678 57.5232 6.49569C58.3197 7.29459 58.9466 8.24609 59.3665 9.29315C59.7864 10.3402 59.9906 11.4613 59.9668 12.5891C59.9429 13.717 59.6916 14.8284 59.2279 15.8568C58.7642 16.8852 58.0976 17.8094 57.2682 18.574L26.8001 46.36C26.5783 46.562 26.4177 46.8223 26.3367 47.1113C26.2557 47.4002 26.2576 47.7061 26.3421 47.994L28.9521 56.896C29.0854 57.3508 29.0636 57.837 28.8899 58.278C28.7163 58.719 28.4008 59.0896 27.9933 59.3314C27.5857 59.5733 27.1092 59.6726 26.6389 59.6136C26.1687 59.5547 25.7314 59.3409 25.3961 59.006L4.81015 38.448C4.39454 38.0323 4.15062 37.4754 4.12691 36.888C4.10319 36.3006 4.30141 35.7259 4.68215 35.278C4.89955 35.0232 5.18516 34.8357 5.50542 34.7376C5.82569 34.6394 6.1673 34.6347 6.49015 34.724L16.0941 37.406Z" fill="url(#paint10_radial_451_2787)"/>
<path d="M16.0941 37.406C16.3788 37.4855 16.6799 37.4846 16.9641 37.4034C17.2483 37.3222 17.5045 37.1639 17.7041 36.946L45.4441 6.71399C46.2112 5.88682 47.1375 5.22306 48.1673 4.76248C49.1971 4.30189 50.3093 4.05398 51.4372 4.03359C52.5651 4.01321 53.6856 4.22077 54.7313 4.64384C55.7771 5.06691 56.7267 5.69678 57.5232 6.49569C58.3197 7.29459 58.9466 8.24609 59.3665 9.29315C59.7864 10.3402 59.9906 11.4613 59.9668 12.5891C59.9429 13.717 59.6916 14.8284 59.2279 15.8568C58.7642 16.8852 58.0976 17.8094 57.2682 18.574L26.8001 46.36C26.5783 46.562 26.4177 46.8223 26.3367 47.1113C26.2557 47.4002 26.2576 47.7061 26.3421 47.994L28.9521 56.896C29.0854 57.3508 29.0636 57.837 28.8899 58.278C28.7163 58.719 28.4008 59.0896 27.9933 59.3314C27.5857 59.5733 27.1092 59.6726 26.6389 59.6136C26.1687 59.5547 25.7314 59.3409 25.3961 59.006L4.81015 38.448C4.39454 38.0323 4.15062 37.4754 4.12691 36.888C4.10319 36.3006 4.30141 35.7259 4.68215 35.278C4.89955 35.0232 5.18516 34.8357 5.50542 34.7376C5.82569 34.6394 6.1673 34.6347 6.49015 34.724L16.0941 37.406Z" fill="url(#paint11_radial_451_2787)"/>
<path d="M16.0941 37.406C16.3788 37.4855 16.6799 37.4846 16.9641 37.4034C17.2483 37.3222 17.5045 37.1639 17.7041 36.946L45.4441 6.71399C46.2112 5.88682 47.1375 5.22306 48.1673 4.76248C49.1971 4.30189 50.3093 4.05398 51.4372 4.03359C52.5651 4.01321 53.6856 4.22077 54.7313 4.64384C55.7771 5.06691 56.7267 5.69678 57.5232 6.49569C58.3197 7.29459 58.9466 8.24609 59.3665 9.29315C59.7864 10.3402 59.9906 11.4613 59.9668 12.5891C59.9429 13.717 59.6916 14.8284 59.2279 15.8568C58.7642 16.8852 58.0976 17.8094 57.2682 18.574L26.8001 46.36C26.5783 46.562 26.4177 46.8223 26.3367 47.1113C26.2557 47.4002 26.2576 47.7061 26.3421 47.994L28.9521 56.896C29.0854 57.3508 29.0636 57.837 28.8899 58.278C28.7163 58.719 28.4008 59.0896 27.9933 59.3314C27.5857 59.5733 27.1092 59.6726 26.6389 59.6136C26.1687 59.5547 25.7314 59.3409 25.3961 59.006L4.81015 38.448C4.39454 38.0323 4.15062 37.4754 4.12691 36.888C4.10319 36.3006 4.30141 35.7259 4.68215 35.278C4.89955 35.0232 5.18516 34.8357 5.50542 34.7376C5.82569 34.6394 6.1673 34.6347 6.49015 34.724L16.0941 37.406Z" fill="url(#paint12_radial_451_2787)"/>
<path d="M16.0941 37.406C16.3788 37.4855 16.6799 37.4846 16.9641 37.4034C17.2483 37.3222 17.5045 37.1639 17.7041 36.946L45.4441 6.71399C46.2112 5.88682 47.1375 5.22306 48.1673 4.76248C49.1971 4.30189 50.3093 4.05398 51.4372 4.03359C52.5651 4.01321 53.6856 4.22077 54.7313 4.64384C55.7771 5.06691 56.7267 5.69678 57.5232 6.49569C58.3197 7.29459 58.9466 8.24609 59.3665 9.29315C59.7864 10.3402 59.9906 11.4613 59.9668 12.5891C59.9429 13.717 59.6916 14.8284 59.2279 15.8568C58.7642 16.8852 58.0976 17.8094 57.2682 18.574L26.8001 46.36C26.5783 46.562 26.4177 46.8223 26.3367 47.1113C26.2557 47.4002 26.2576 47.7061 26.3421 47.994L28.9521 56.896C29.0854 57.3508 29.0636 57.837 28.8899 58.278C28.7163 58.719 28.4008 59.0896 27.9933 59.3314C27.5857 59.5733 27.1092 59.6726 26.6389 59.6136C26.1687 59.5547 25.7314 59.3409 25.3961 59.006L4.81015 38.448C4.39454 38.0323 4.15062 37.4754 4.12691 36.888C4.10319 36.3006 4.30141 35.7259 4.68215 35.278C4.89955 35.0232 5.18516 34.8357 5.50542 34.7376C5.82569 34.6394 6.1673 34.6347 6.49015 34.724L16.0941 37.406Z" fill="url(#paint13_radial_451_2787)"/>
<g filter="url(#filter3_i_451_2787)">
<path d="M55.9474 11.8026L52.0611 7.91635C51.6331 7.48833 50.9392 7.48833 50.5111 7.91635C50.0831 8.34436 50.0831 9.03831 50.5111 9.46632L54.3974 13.3526C54.8254 13.7806 55.5194 13.7806 55.9474 13.3526C56.3754 12.9246 56.3754 12.2306 55.9474 11.8026Z" fill="#48DBFF"/>
</g>
<path d="M18.1859 42.3153L10.8801 49.6211C9.96473 50.5365 9.96473 52.0206 10.8801 52.936C11.7955 53.8514 13.2796 53.8514 14.195 52.936L21.5009 45.6302C22.4162 44.7148 22.4162 43.2307 21.5009 42.3153C20.5855 41.3999 19.1013 41.3999 18.1859 42.3153Z" fill="url(#paint14_radial_451_2787)"/>
<path d="M18.1859 42.3153L10.8801 49.6211C9.96473 50.5365 9.96473 52.0206 10.8801 52.936C11.7955 53.8514 13.2796 53.8514 14.195 52.936L21.5009 45.6302C22.4162 44.7148 22.4162 43.2307 21.5009 42.3153C20.5855 41.3999 19.1013 41.3999 18.1859 42.3153Z" fill="url(#paint15_linear_451_2787)"/>
<path d="M18.1859 42.3153L10.8801 49.6211C9.96473 50.5365 9.96473 52.0206 10.8801 52.936C11.7955 53.8514 13.2796 53.8514 14.195 52.936L21.5009 45.6302C22.4162 44.7148 22.4162 43.2307 21.5009 42.3153C20.5855 41.3999 19.1013 41.3999 18.1859 42.3153Z" fill="url(#paint16_radial_451_2787)"/>
<g filter="url(#filter4_f_451_2787)">
<path d="M6.78418 36.504L16.9722 39.628" stroke="#B3ADB8" stroke-width="0.25" stroke-linecap="round"/>
</g>
<g filter="url(#filter5_f_451_2787)">
<path d="M24.2842 46.6279L27.7222 57.2539" stroke="#D1C7DB" stroke-width="0.25" stroke-linecap="round"/>
</g>
<defs>
<filter id="filter0_ii_451_2787" x="11.9365" y="6.34124" width="30.8424" height="19.0688" filterUnits="userSpaceOnUse" color-interpolation-filters="sRGB">
<feFlood flood-opacity="0" result="BackgroundImageFix"/>
<feBlend mode="normal" in="SourceGraphic" in2="BackgroundImageFix" result="shape"/>
<feColorMatrix in="SourceAlpha" type="matrix" values="0 0 0 0 0 0 0 0 0 0 0 0 0 0 0 0 0 0 127 0" result="hardAlpha"/>
<feOffset dy="0.25"/>
<feGaussianBlur stdDeviation="0.1875"/>
<feComposite in2="hardAlpha" operator="arithmetic" k2="-1" k3="1"/>
<feColorMatrix type="matrix" values="0 0 0 0 0.258824 0 0 0 0 0.619608 0 0 0 0 0.901961 0 0 0 1 0"/>
<feBlend mode="normal" in2="shape" result="effect1_innerShadow_451_2787"/>
<feColorMatrix in="SourceAlpha" type="matrix" values="0 0 0 0 0 0 0 0 0 0 0 0 0 0 0 0 0 0 127 0" result="hardAlpha"/>
<feOffset dx="0.15" dy="-0.3"/>
<feGaussianBlur stdDeviation="0.1875"/>
<feComposite in2="hardAlpha" operator="arithmetic" k2="-1" k3="1"/>
<feColorMatrix type="matrix" values="0 0 0 0 0.270588 0 0 0 0 0.352941 0 0 0 0 0.752941 0 0 0 1 0"/>
<feBlend mode="normal" in2="effect1_innerShadow_451_2787" result="effect2_innerShadow_451_2787"/>
</filter>
<filter id="filter1_ii_451_2787" x="38.752" y="20.9839" width="18.6676" height="31.4947" filterUnits="userSpaceOnUse" color-interpolation-filters="sRGB">
<feFlood flood-opacity="0" result="BackgroundImageFix"/>
<feBlend mode="normal" in="SourceGraphic" in2="BackgroundImageFix" result="shape"/>
<feColorMatrix in="SourceAlpha" type="matrix" values="0 0 0 0 0 0 0 0 0 0 0 0 0 0 0 0 0 0 127 0" result="hardAlpha"/>
<feOffset dy="0.5"/>
<feGaussianBlur stdDeviation="0.3125"/>
<feComposite in2="hardAlpha" operator="arithmetic" k2="-1" k3="1"/>
<feColorMatrix type="matrix" values="0 0 0 0 0.34902 0 0 0 0 0.784314 0 0 0 0 1 0 0 0 1 0"/>
<feBlend mode="normal" in2="shape" result="effect1_innerShadow_451_2787"/>
<feColorMatrix in="SourceAlpha" type="matrix" values="0 0 0 0 0 0 0 0 0 0 0 0 0 0 0 0 0 0 127 0" result="hardAlpha"/>
<feOffset dx="0.15" dy="-0.3"/>
<feGaussianBlur stdDeviation="0.1875"/>
<feComposite in2="hardAlpha" operator="arithmetic" k2="-1" k3="1"/>
<feColorMatrix type="matrix" values="0 0 0 0 0.270588 0 0 0 0 0.352941 0 0 0 0 0.752941 0 0 0 1 0"/>
<feBlend mode="normal" in2="effect1_innerShadow_451_2787" result="effect2_innerShadow_451_2787"/>
</filter>
<filter id="filter2_ii_451_2787" x="3.625" y="3.78223" width="56.8438" height="56.098" filterUnits="userSpaceOnUse" color-interpolation-filters="sRGB">
<feFlood flood-opacity="0" result="BackgroundImageFix"/>
<feBlend mode="normal" in="SourceGraphic" in2="BackgroundImageFix" result="shape"/>
<feColorMatrix in="SourceAlpha" type="matrix" values="0 0 0 0 0 0 0 0 0 0 0 0 0 0 0 0 0 0 127 0" result="hardAlpha"/>
<feOffset dx="0.5" dy="0.25"/>
<feGaussianBlur stdDeviation="0.5"/>
<feComposite in2="hardAlpha" operator="arithmetic" k2="-1" k3="1"/>
<feColorMatrix type="matrix" values="0 0 0 0 0.486275 0 0 0 0 0.482353 0 0 0 0 0.490196 0 0 0 1 0"/>
<feBlend mode="normal" in2="shape" result="effect1_innerShadow_451_2787"/>
<feColorMatrix in="SourceAlpha" type="matrix" values="0 0 0 0 0 0 0 0 0 0 0 0 0 0 0 0 0 0 127 0" result="hardAlpha"/>
<feOffset dx="-0.5" dy="-0.25"/>
<feGaussianBlur stdDeviation="0.5"/>
<feComposite in2="hardAlpha" operator="arithmetic" k2="-1" k3="1"/>
<feColorMatrix type="matrix" values="0 0 0 0 0.760784 0 0 0 0 0.639216 0 0 0 0 0.858824 0 0 0 1 0"/>
<feBlend mode="normal" in2="effect1_innerShadow_451_2787" result="effect2_innerShadow_451_2787"/>
</filter>
<filter id="filter3_i_451_2787" x="49.9904" y="7.59534" width="6.27813" height="6.27825" filterUnits="userSpaceOnUse" color-interpolation-filters="sRGB">
<feFlood flood-opacity="0" result="BackgroundImageFix"/>
<feBlend mode="normal" in="SourceGraphic" in2="BackgroundImageFix" result="shape"/>
<feColorMatrix in="SourceAlpha" type="matrix" values="0 0 0 0 0 0 0 0 0 0 0 0 0 0 0 0 0 0 127 0" result="hardAlpha"/>
<feOffset dx="-0.2" dy="0.2"/>
<feGaussianBlur stdDeviation="0.1"/>
<feComposite in2="hardAlpha" operator="arithmetic" k2="-1" k3="1"/>
<feColorMatrix type="matrix" values="0 0 0 0 0.0823529 0 0 0 0 0.447059 0 0 0 0 0.792157 0 0 0 1 0"/>
<feBlend mode="normal" in2="shape" result="effect1_innerShadow_451_2787"/>
</filter>
<filter id="filter4_f_451_2787" x="6.15918" y="35.879" width="11.4385" height="4.37402" filterUnits="userSpaceOnUse" color-interpolation-filters="sRGB">
<feFlood flood-opacity="0" result="BackgroundImageFix"/>
<feBlend mode="normal" in="SourceGraphic" in2="BackgroundImageFix" result="shape"/>
<feGaussianBlur stdDeviation="0.25" result="effect1_foregroundBlur_451_2787"/>
</filter>
<filter id="filter5_f_451_2787" x="23.6592" y="46.0029" width="4.68848" height="11.876" filterUnits="userSpaceOnUse" color-interpolation-filters="sRGB">
<feFlood flood-opacity="0" result="BackgroundImageFix"/>
<feBlend mode="normal" in="SourceGraphic" in2="BackgroundImageFix" result="shape"/>
<feGaussianBlur stdDeviation="0.25" result="effect1_foregroundBlur_451_2787"/>
</filter>
<radialGradient id="paint0_radial_451_2787" cx="0" cy="0" r="1" gradientUnits="userSpaceOnUse" gradientTransform="translate(58.0469 33.1963) rotate(135) scale(6.82608 2.59896)">
<stop offset="0.233" stop-color="#86848F"/>
<stop offset="1" stop-color="#5A5C5E"/>
</radialGradient>
<linearGradient id="paint1_linear_451_2787" x1="56.9865" y1="35.9939" x2="55.9725" y2="35.0659" gradientUnits="userSpaceOnUse">
<stop stop-color="#7C758F"/>
<stop offset="1" stop-color="#7C758F" stop-opacity="0"/>
</linearGradient>
<linearGradient id="paint2_linear_451_2787" x1="58.0465" y1="32.2279" x2="56.5805" y2="33.7899" gradientUnits="userSpaceOnUse">
<stop offset="0.205" stop-color="#B3B2B4"/>
<stop offset="1" stop-color="#B3B2B4" stop-opacity="0"/>
</linearGradient>
<radialGradient id="paint3_radial_451_2787" cx="0" cy="0" r="1" gradientUnits="userSpaceOnUse" gradientTransform="translate(32.0639 7.22275) rotate(135) scale(6.82608 3.15798)">
<stop offset="0.233" stop-color="#86848F"/>
<stop offset="1" stop-color="#5A5C5E"/>
</radialGradient>
<linearGradient id="paint4_linear_451_2787" x1="31.0021" y1="10.02" x2="30.5181" y2="9.534" gradientUnits="userSpaceOnUse">
<stop stop-color="#7C758F"/>
<stop offset="1" stop-color="#7C758F" stop-opacity="0"/>
</linearGradient>
<linearGradient id="paint5_linear_451_2787" x1="32.0621" y1="6.254" x2="30.5961" y2="7.816" gradientUnits="userSpaceOnUse">
<stop offset="0.205" stop-color="#B3B2B4"/>
<stop offset="1" stop-color="#B3B2B4" stop-opacity="0"/>
</linearGradient>
<linearGradient id="paint6_linear_451_2787" x1="36.0345" y1="19.504" x2="33.9405" y2="17.41" gradientUnits="userSpaceOnUse">
<stop offset="0.104" stop-color="#256198"/>
<stop offset="1" stop-color="#256198" stop-opacity="0"/>
</linearGradient>
<linearGradient id="paint7_linear_451_2787" x1="45.346" y1="27.8159" x2="46.722" y2="29.3159" gradientUnits="userSpaceOnUse">
<stop stop-color="#256198"/>
<stop offset="1" stop-color="#256198" stop-opacity="0"/>
</linearGradient>
<linearGradient id="paint8_linear_451_2787" x1="45.8861" y1="17.696" x2="10.3681" y2="51.772" gradientUnits="userSpaceOnUse">
<stop stop-color="#CBBCD8"/>
<stop offset="1" stop-color="#B1A1D1"/>
</linearGradient>
<linearGradient id="paint9_linear_451_2787" x1="14.4301" y1="49.02" x2="16.5921" y2="46.856" gradientUnits="userSpaceOnUse">
<stop stop-color="#9871C0"/>
<stop offset="1" stop-color="#9871C0" stop-opacity="0"/>
</linearGradient>
<radialGradient id="paint10_radial_451_2787" cx="0" cy="0" r="1" gradientUnits="userSpaceOnUse" gradientTransform="translate(4.12415 35.804) rotate(15.5742) scale(1.59189 3.7926)">
<stop stop-color="#76707B"/>
<stop offset="1" stop-color="#76707B" stop-opacity="0"/>
</radialGradient>
<radialGradient id="paint11_radial_451_2787" cx="0" cy="0" r="1" gradientUnits="userSpaceOnUse" gradientTransform="translate(15.035 46.0667) rotate(153.435) scale(7.54672 3.32042)">
<stop offset="0.129" stop-color="#5F677B"/>
<stop offset="1" stop-color="#5F677B" stop-opacity="0"/>
</radialGradient>
<radialGradient id="paint12_radial_451_2787" cx="0" cy="0" r="1" gradientUnits="userSpaceOnUse" gradientTransform="translate(17.9721 42.192) rotate(-88.5312) scale(9.7532 2.18838)">
<stop stop-color="#7D7D8A"/>
<stop offset="1" stop-color="#7D7D8A" stop-opacity="0"/>
</radialGradient>
<radialGradient id="paint13_radial_451_2787" cx="0" cy="0" r="1" gradientUnits="userSpaceOnUse" gradientTransform="translate(60.7201 7.06793) rotate(143.13) scale(13.75 13.288)">
<stop offset="0.175" stop-color="#EDEBEE"/>
<stop offset="1" stop-color="#EDEBEE" stop-opacity="0"/>
</radialGradient>
<radialGradient id="paint14_radial_451_2787" cx="0" cy="0" r="1" gradientUnits="userSpaceOnUse" gradientTransform="translate(19.9085 43.8172) rotate(134.772) scale(11.0928 8.11054)">
<stop stop-color="#4DC0FF"/>
<stop offset="1" stop-color="#4763E6"/>
</radialGradient>
<linearGradient id="paint15_linear_451_2787" x1="13.9391" y1="45.3799" x2="15.2217" y2="46.4731" gradientUnits="userSpaceOnUse">
<stop stop-color="#3F618F"/>
<stop offset="1" stop-color="#3F618F" stop-opacity="0"/>
</linearGradient>
<radialGradient id="paint16_radial_451_2787" cx="0" cy="0" r="1" gradientUnits="userSpaceOnUse" gradientTransform="translate(12.8572 54.5935) rotate(-88.6212) scale(2.72421 6.09652)">
<stop stop-color="#847FFF"/>
<stop offset="1" stop-color="#847FFF" stop-opacity="0"/>
</radialGradient>
</defs>
</svg>
