<svg width="64" height="64" viewBox="0 0 64 64" fill="none" xmlns="http://www.w3.org/2000/svg">
<g filter="url(#filter0_i_451_2711)">
<path d="M33.1465 22.1521H57.9265C59.4145 22.1521 60.6225 23.3601 60.6225 24.8481V56.0001H33.1465V22.1521Z" fill="url(#paint0_linear_451_2711)"/>
<path d="M33.1465 22.1521H57.9265C59.4145 22.1521 60.6225 23.3601 60.6225 24.8481V56.0001H33.1465V22.1521Z" fill="url(#paint1_linear_451_2711)"/>
<path d="M33.1465 22.1521H57.9265C59.4145 22.1521 60.6225 23.3601 60.6225 24.8481V56.0001H33.1465V22.1521Z" fill="url(#paint2_radial_451_2711)"/>
</g>
<path d="M31.6279 55.1919H60.6219V58.5619H59.9479L59.2739 59.2379H31.6279V55.1919Z" fill="url(#paint3_linear_451_2711)"/>
<path d="M31.6279 55.1919H60.6219V58.5619H59.9479L59.2739 59.2379H31.6279V55.1919Z" fill="url(#paint4_linear_451_2711)"/>
<path d="M32.9761 22.1521C32.7105 22.1518 32.4474 22.204 32.202 22.3055C31.9566 22.407 31.7336 22.5559 31.5457 22.7437C31.3579 22.9316 31.209 23.1546 31.1075 23.4C31.006 23.6454 30.9538 23.9085 30.9541 24.1741V57.2141H32.3021C32.3021 56.4701 32.9061 55.8661 33.6501 55.8661H35.0001V22.1521H32.9761Z" fill="url(#paint5_linear_451_2711)"/>
<path d="M32.9761 22.1521C32.7105 22.1518 32.4474 22.204 32.202 22.3055C31.9566 22.407 31.7336 22.5559 31.5457 22.7437C31.3579 22.9316 31.209 23.1546 31.1075 23.4C31.006 23.6454 30.9538 23.9085 30.9541 24.1741V57.2141H32.3021C32.3021 56.4701 32.9061 55.8661 33.6501 55.8661H35.0001V22.1521H32.9761Z" fill="url(#paint6_radial_451_2711)"/>
<g filter="url(#filter1_i_451_2711)">
<path d="M32.9761 54.5181C32.7105 54.5178 32.4474 54.5699 32.202 54.6714C31.9566 54.773 31.7336 54.9219 31.5457 55.1097C31.3579 55.2975 31.209 55.5205 31.1075 55.766C31.006 56.0114 30.9538 56.2745 30.9541 56.5401V57.8881C30.9541 59.0061 31.8601 59.9121 32.9761 59.9121H59.1501C60.0301 59.9121 60.6221 59.4601 60.6221 58.5621H33.6501C33.2926 58.5621 32.9497 58.42 32.6969 58.1672C32.4441 57.9144 32.3021 57.5716 32.3021 57.2141C32.3021 56.8566 32.4441 56.5137 32.6969 56.2609C32.9497 56.0081 33.2926 55.8661 33.6501 55.8661H60.6221V54.5181H32.9761Z" fill="url(#paint7_linear_451_2711)"/>
</g>
<path d="M20.874 14.072H43.8C45.29 14.072 46.498 15.28 46.498 16.77V46.438H20.874V14.072Z" fill="url(#paint8_linear_451_2711)"/>
<path d="M20.874 14.072H43.8C45.29 14.072 46.498 15.28 46.498 16.77V46.438H20.874V14.072Z" fill="url(#paint9_linear_451_2711)"/>
<path d="M20.874 14.072H43.8C45.29 14.072 46.498 15.28 46.498 16.77V46.438H20.874V14.072Z" fill="url(#paint10_radial_451_2711)"/>
<path d="M17.502 47.1121H46.5V50.4841H45.826L45.15 51.1581H17.502V47.1121Z" fill="url(#paint11_linear_451_2711)"/>
<path d="M17.502 47.1121H46.5V50.4841H45.826L45.15 51.1581H17.502V47.1121Z" fill="url(#paint12_linear_451_2711)"/>
<path d="M18.8521 14.072C17.7341 14.072 16.8281 14.978 16.8281 16.096V49.136H18.1781C18.1781 48.39 18.7801 47.786 19.5261 47.786H20.8741V14.072H18.8521Z" fill="url(#paint13_linear_451_2711)"/>
<path d="M18.8521 14.072C17.7341 14.072 16.8281 14.978 16.8281 16.096V49.136H18.1781C18.1781 48.39 18.7801 47.786 19.5261 47.786H20.8741V14.072H18.8521Z" fill="url(#paint14_radial_451_2711)"/>
<path d="M18.8521 14.072C17.7341 14.072 16.8281 14.978 16.8281 16.096V49.136H18.1781C18.1781 48.39 18.7801 47.786 19.5261 47.786H20.8741V14.072H18.8521Z" fill="url(#paint15_radial_451_2711)"/>
<g filter="url(#filter2_i_451_2711)">
<path d="M18.8521 46.44C18.5865 46.4395 18.3234 46.4913 18.0779 46.5926C17.8323 46.6939 17.6092 46.8426 17.4212 47.0302C17.2332 47.2178 17.084 47.4407 16.9823 47.686C16.8805 47.9314 16.8281 48.1944 16.8281 48.46V49.81C16.8281 50.926 17.7341 51.832 18.8521 51.832H45.0241C45.9041 51.832 46.4981 51.382 46.4981 50.484H19.5261C19.1683 50.484 18.8252 50.3419 18.5722 50.0889C18.3193 49.8359 18.1771 49.4928 18.1771 49.135C18.1771 48.7772 18.3193 48.4341 18.5722 48.1811C18.8252 47.9281 19.1683 47.786 19.5261 47.786H46.4981V46.438L18.8521 46.44Z" fill="url(#paint16_linear_451_2711)"/>
</g>
<g filter="url(#filter3_i_451_2711)">
<path d="M6.56445 8H31.3385C32.8265 8 34.0345 9.208 34.0345 10.696V40.356H6.56445V8Z" fill="url(#paint17_linear_451_2711)"/>
<path d="M6.56445 8H31.3385C32.8265 8 34.0345 9.208 34.0345 10.696V40.356H6.56445V8Z" fill="url(#paint18_linear_451_2711)"/>
</g>
<path d="M5.0479 41.032H34.0339V44.4H33.3599L32.6859 45.074H5.0459L5.0479 41.032Z" fill="url(#paint19_linear_451_2711)"/>
<path d="M5.0479 41.032H34.0339V44.4H33.3599L32.6859 45.074H5.0459L5.0479 41.032Z" fill="url(#paint20_linear_451_2711)"/>
<path d="M6.39602 8C6.13042 7.99974 5.86737 8.05186 5.62193 8.15338C5.37649 8.2549 5.15348 8.40383 4.96567 8.59164C4.77786 8.77946 4.62893 9.00246 4.5274 9.2479C4.42588 9.49334 4.37376 9.75639 4.37402 10.022V43.054H5.72202C5.72202 42.308 6.32602 41.706 7.07002 41.706H8.41802V8H6.39602Z" fill="url(#paint21_linear_451_2711)"/>
<g filter="url(#filter4_i_451_2711)">
<path d="M6.39602 40.3579C6.13059 40.3576 5.8677 40.4097 5.62239 40.5111C5.37708 40.6125 5.15416 40.7612 4.96638 40.9488C4.77859 41.1364 4.62962 41.3592 4.52798 41.6044C4.42634 41.8496 4.37402 42.1125 4.37402 42.3779V43.7279C4.37376 43.9933 4.42582 44.2562 4.52721 44.5015C4.62861 44.7469 4.77736 44.9698 4.96496 45.1576C5.15256 45.3453 5.37533 45.4943 5.62054 45.596C5.86575 45.6976 6.12859 45.7499 6.39402 45.7499H32.562C33.442 45.7499 34.034 45.2979 34.034 44.4019H7.07002C6.71251 44.4019 6.36964 44.2599 6.11684 44.0071C5.86405 43.7543 5.72202 43.4114 5.72202 43.0539C5.72202 42.6964 5.86405 42.3535 6.11684 42.1007C6.36964 41.8479 6.71251 41.7059 7.07002 41.7059H34.034V40.3579H6.39602Z" fill="url(#paint22_linear_451_2711)"/>
</g>
<defs>
<filter id="filter0_i_451_2711" x="33.1465" y="22.1521" width="27.4756" height="33.8979" filterUnits="userSpaceOnUse" color-interpolation-filters="sRGB">
<feFlood flood-opacity="0" result="BackgroundImageFix"/>
<feBlend mode="normal" in="SourceGraphic" in2="BackgroundImageFix" result="shape"/>
<feColorMatrix in="SourceAlpha" type="matrix" values="0 0 0 0 0 0 0 0 0 0 0 0 0 0 0 0 0 0 127 0" result="hardAlpha"/>
<feOffset dy="0.05"/>
<feGaussianBlur stdDeviation="0.125"/>
<feComposite in2="hardAlpha" operator="arithmetic" k2="-1" k3="1"/>
<feColorMatrix type="matrix" values="0 0 0 0 0.32549 0 0 0 0 0.807843 0 0 0 0 0.933333 0 0 0 1 0"/>
<feBlend mode="normal" in2="shape" result="effect1_innerShadow_451_2711"/>
</filter>
<filter id="filter1_i_451_2711" x="30.9541" y="54.5181" width="29.668" height="5.44404" filterUnits="userSpaceOnUse" color-interpolation-filters="sRGB">
<feFlood flood-opacity="0" result="BackgroundImageFix"/>
<feBlend mode="normal" in="SourceGraphic" in2="BackgroundImageFix" result="shape"/>
<feColorMatrix in="SourceAlpha" type="matrix" values="0 0 0 0 0 0 0 0 0 0 0 0 0 0 0 0 0 0 127 0" result="hardAlpha"/>
<feOffset dy="0.05"/>
<feGaussianBlur stdDeviation="0.075"/>
<feComposite in2="hardAlpha" operator="arithmetic" k2="-1" k3="1"/>
<feColorMatrix type="matrix" values="0 0 0 0 0.168627 0 0 0 0 0.388235 0 0 0 0 0.74902 0 0 0 1 0"/>
<feBlend mode="normal" in2="shape" result="effect1_innerShadow_451_2711"/>
</filter>
<filter id="filter2_i_451_2711" x="16.8281" y="46.438" width="29.6699" height="5.44404" filterUnits="userSpaceOnUse" color-interpolation-filters="sRGB">
<feFlood flood-opacity="0" result="BackgroundImageFix"/>
<feBlend mode="normal" in="SourceGraphic" in2="BackgroundImageFix" result="shape"/>
<feColorMatrix in="SourceAlpha" type="matrix" values="0 0 0 0 0 0 0 0 0 0 0 0 0 0 0 0 0 0 127 0" result="hardAlpha"/>
<feOffset dy="0.05"/>
<feGaussianBlur stdDeviation="0.075"/>
<feComposite in2="hardAlpha" operator="arithmetic" k2="-1" k3="1"/>
<feColorMatrix type="matrix" values="0 0 0 0 0.694118 0 0 0 0 0.192157 0 0 0 0 0.360784 0 0 0 1 0"/>
<feBlend mode="normal" in2="shape" result="effect1_innerShadow_451_2711"/>
</filter>
<filter id="filter3_i_451_2711" x="6.56445" y="8" width="27.4697" height="32.406" filterUnits="userSpaceOnUse" color-interpolation-filters="sRGB">
<feFlood flood-opacity="0" result="BackgroundImageFix"/>
<feBlend mode="normal" in="SourceGraphic" in2="BackgroundImageFix" result="shape"/>
<feColorMatrix in="SourceAlpha" type="matrix" values="0 0 0 0 0 0 0 0 0 0 0 0 0 0 0 0 0 0 127 0" result="hardAlpha"/>
<feOffset dy="0.05"/>
<feGaussianBlur stdDeviation="0.125"/>
<feComposite in2="hardAlpha" operator="arithmetic" k2="-1" k3="1"/>
<feColorMatrix type="matrix" values="0 0 0 0 0.623529 0 0 0 0 0.858824 0 0 0 0 0.290196 0 0 0 1 0"/>
<feBlend mode="normal" in2="shape" result="effect1_innerShadow_451_2711"/>
</filter>
<filter id="filter4_i_451_2711" x="4.37402" y="40.3579" width="29.6602" height="5.44209" filterUnits="userSpaceOnUse" color-interpolation-filters="sRGB">
<feFlood flood-opacity="0" result="BackgroundImageFix"/>
<feBlend mode="normal" in="SourceGraphic" in2="BackgroundImageFix" result="shape"/>
<feColorMatrix in="SourceAlpha" type="matrix" values="0 0 0 0 0 0 0 0 0 0 0 0 0 0 0 0 0 0 127 0" result="hardAlpha"/>
<feOffset dy="0.05"/>
<feGaussianBlur stdDeviation="0.075"/>
<feComposite in2="hardAlpha" operator="arithmetic" k2="-1" k3="1"/>
<feColorMatrix type="matrix" values="0 0 0 0 0.113725 0 0 0 0 0.435294 0 0 0 0 0.439216 0 0 0 1 0"/>
<feBlend mode="normal" in2="shape" result="effect1_innerShadow_451_2711"/>
</filter>
<linearGradient id="paint0_linear_451_2711" x1="47.8105" y1="22.1521" x2="47.8105" y2="54.5181" gradientUnits="userSpaceOnUse">
<stop stop-color="#56D1F3"/>
<stop offset="1" stop-color="#39ADF1"/>
</linearGradient>
<linearGradient id="paint1_linear_451_2711" x1="60.8325" y1="26.9141" x2="58.1785" y2="27.2921" gradientUnits="userSpaceOnUse">
<stop offset="0.014" stop-color="#7FECFF"/>
<stop offset="1" stop-color="#60DEFF" stop-opacity="0"/>
</linearGradient>
<radialGradient id="paint2_radial_451_2711" cx="0" cy="0" r="1" gradientUnits="userSpaceOnUse" gradientTransform="translate(34.8285 54.5181) scale(12.055 10.2342)">
<stop stop-color="#2E7CD5"/>
<stop offset="1" stop-color="#2E7CD5" stop-opacity="0"/>
</radialGradient>
<linearGradient id="paint3_linear_451_2711" x1="33.2759" y1="57.7739" x2="60.3779" y2="57.7739" gradientUnits="userSpaceOnUse">
<stop stop-color="#D5BCEB"/>
<stop offset="1" stop-color="#E3D3F2"/>
</linearGradient>
<linearGradient id="paint4_linear_451_2711" x1="46.1259" y1="55.5119" x2="46.1259" y2="57.4259" gradientUnits="userSpaceOnUse">
<stop stop-color="#9F84AE"/>
<stop offset="1" stop-color="#C5B1D6" stop-opacity="0"/>
</linearGradient>
<linearGradient id="paint5_linear_451_2711" x1="31.2301" y1="42.0261" x2="34.4101" y2="42.0421" gradientUnits="userSpaceOnUse">
<stop stop-color="#44A3D2"/>
<stop offset="1" stop-color="#3C8FCC"/>
</linearGradient>
<radialGradient id="paint6_radial_451_2711" cx="0" cy="0" r="1" gradientUnits="userSpaceOnUse" gradientTransform="translate(35.0001 51.2501) rotate(90) scale(8.4375 4.92072)">
<stop stop-color="#3163AE"/>
<stop offset="1" stop-color="#3163AE" stop-opacity="0"/>
</radialGradient>
<linearGradient id="paint7_linear_451_2711" x1="32.8841" y1="58.5141" x2="60.6221" y2="58.4701" gradientUnits="userSpaceOnUse">
<stop stop-color="#3769C5"/>
<stop offset="1" stop-color="#3666C3"/>
</linearGradient>
<linearGradient id="paint8_linear_451_2711" x1="33.686" y1="14.072" x2="33.686" y2="46.438" gradientUnits="userSpaceOnUse">
<stop stop-color="#E13074"/>
<stop offset="1" stop-color="#E0334C"/>
</linearGradient>
<linearGradient id="paint9_linear_451_2711" x1="48.776" y1="18.634" x2="45.122" y2="18.764" gradientUnits="userSpaceOnUse">
<stop offset="0.409" stop-color="#F76594"/>
<stop offset="1" stop-color="#FA6295" stop-opacity="0"/>
</linearGradient>
<radialGradient id="paint10_radial_451_2711" cx="0" cy="0" r="1" gradientUnits="userSpaceOnUse" gradientTransform="translate(22.016 45.626) scale(13.5 10.9244)">
<stop stop-color="#B21940"/>
<stop offset="1" stop-color="#B21940" stop-opacity="0"/>
</radialGradient>
<linearGradient id="paint11_linear_451_2711" x1="19.15" y1="49.6961" x2="46.254" y2="49.6961" gradientUnits="userSpaceOnUse">
<stop stop-color="#D5BCEB"/>
<stop offset="1" stop-color="#E3D3F2"/>
</linearGradient>
<linearGradient id="paint12_linear_451_2711" x1="32" y1="47.4341" x2="32" y2="49.3481" gradientUnits="userSpaceOnUse">
<stop stop-color="#9F84AE"/>
<stop offset="1" stop-color="#C5B1D6" stop-opacity="0"/>
</linearGradient>
<linearGradient id="paint13_linear_451_2711" x1="17.1061" y1="33.948" x2="20.8741" y2="33.948" gradientUnits="userSpaceOnUse">
<stop stop-color="#9A3E4F"/>
<stop offset="1" stop-color="#AA2C4D"/>
</linearGradient>
<radialGradient id="paint14_radial_451_2711" cx="0" cy="0" r="1" gradientUnits="userSpaceOnUse" gradientTransform="translate(17.3661 47.346) rotate(-90) scale(8.9618 1.57912)">
<stop stop-color="#9B3F51"/>
<stop offset="1" stop-color="#9B3F51" stop-opacity="0"/>
</radialGradient>
<radialGradient id="paint15_radial_451_2711" cx="0" cy="0" r="1" gradientUnits="userSpaceOnUse" gradientTransform="translate(20.8681 44.69) rotate(90) scale(6.5625 3.73322)">
<stop offset="0.267" stop-color="#8F163A"/>
<stop offset="1" stop-color="#8F163A" stop-opacity="0"/>
</radialGradient>
<linearGradient id="paint16_linear_451_2711" x1="18.7581" y1="50.436" x2="46.4981" y2="50.392" gradientUnits="userSpaceOnUse">
<stop stop-color="#AB1F5C"/>
<stop offset="1" stop-color="#A51E5A"/>
</linearGradient>
<linearGradient id="paint17_linear_451_2711" x1="21.2265" y1="8" x2="21.2265" y2="40.358" gradientUnits="userSpaceOnUse">
<stop stop-color="#A6E051"/>
<stop offset="1" stop-color="#74D891"/>
</linearGradient>
<linearGradient id="paint18_linear_451_2711" x1="34.2445" y1="12.76" x2="31.5905" y2="13.14" gradientUnits="userSpaceOnUse">
<stop offset="0.014" stop-color="#C0FA7C"/>
<stop offset="1" stop-color="#B0ED5B" stop-opacity="0"/>
</linearGradient>
<linearGradient id="paint19_linear_451_2711" x1="6.6939" y1="43.614" x2="33.7899" y2="43.614" gradientUnits="userSpaceOnUse">
<stop stop-color="#D5BCEB"/>
<stop offset="1" stop-color="#E3D3F2"/>
</linearGradient>
<linearGradient id="paint20_linear_451_2711" x1="19.5399" y1="41.352" x2="19.5399" y2="43.266" gradientUnits="userSpaceOnUse">
<stop stop-color="#9F84AE"/>
<stop offset="1" stop-color="#C5B1D6" stop-opacity="0"/>
</linearGradient>
<linearGradient id="paint21_linear_451_2711" x1="4.65002" y1="27.87" x2="7.82802" y2="27.886" gradientUnits="userSpaceOnUse">
<stop stop-color="#63B33B"/>
<stop offset="1" stop-color="#429B5B"/>
</linearGradient>
<linearGradient id="paint22_linear_451_2711" x1="6.30202" y1="44.3539" x2="34.034" y2="44.3099" gradientUnits="userSpaceOnUse">
<stop stop-color="#2E7671"/>
<stop offset="1" stop-color="#2E7172"/>
</linearGradient>
</defs>
</svg>
