<svg width="64" height="64" viewBox="0 0 64 64" fill="none" xmlns="http://www.w3.org/2000/svg">
<g filter="url(#filter0_i_451_2741)">
<path d="M13.6279 12.9401C14.5319 12.4941 16.9079 11.5601 20.7859 11.9161C27.2479 12.8521 32.2019 13.6001 33.9099 13.8761L29.7559 16.3801C30.7295 17.3557 31.5658 18.4591 32.2419 19.6601L33.0119 18.7761L54.7259 37.7661C55.4458 38.3968 55.9435 39.2425 56.1456 40.178C56.3476 41.1136 56.2432 42.0893 55.8477 42.9609C55.4523 43.8325 54.7869 44.5537 53.9499 45.0178C53.1128 45.4819 52.1487 45.6644 51.1999 45.5381C51.6418 46.4044 51.8112 47.3841 51.686 48.3485C51.5607 49.3129 51.1467 50.2169 50.4983 50.9416C49.8499 51.6664 48.9975 52.1781 48.0529 52.4095C47.1084 52.6409 46.1159 52.5811 45.2059 52.2381C45.1795 53.0776 44.934 53.8956 44.494 54.6111C44.0541 55.3265 43.4347 55.9146 42.6975 56.317C41.9602 56.7194 41.1306 56.9221 40.2908 56.9051C39.4511 56.8881 38.6303 56.652 37.9099 56.2201C37.7459 57.0661 37.3618 57.8539 36.7964 58.5042C36.231 59.1545 35.5042 59.6443 34.6893 59.9244C33.8743 60.2044 32.9999 60.2648 32.1542 60.0993C31.3085 59.9339 30.5213 59.5486 29.8719 58.9821L12.1839 43.5621C11.6151 43.0669 11.1678 42.4475 10.8765 41.7518C10.5852 41.0562 10.4577 40.3029 10.5039 39.5501C8.22778 37.9914 6.42105 35.84 5.27912 33.3287C4.13719 30.8174 3.7035 28.0418 4.02497 25.3018C4.34643 22.5619 5.4108 19.962 7.10299 17.7832C8.79518 15.6044 11.0528 13.9297 13.6279 12.9401Z" fill="url(#paint0_linear_451_2741)"/>
<path d="M13.6279 12.9401C14.5319 12.4941 16.9079 11.5601 20.7859 11.9161C27.2479 12.8521 32.2019 13.6001 33.9099 13.8761L29.7559 16.3801C30.7295 17.3557 31.5658 18.4591 32.2419 19.6601L33.0119 18.7761L54.7259 37.7661C55.4458 38.3968 55.9435 39.2425 56.1456 40.178C56.3476 41.1136 56.2432 42.0893 55.8477 42.9609C55.4523 43.8325 54.7869 44.5537 53.9499 45.0178C53.1128 45.4819 52.1487 45.6644 51.1999 45.5381C51.6418 46.4044 51.8112 47.3841 51.686 48.3485C51.5607 49.3129 51.1467 50.2169 50.4983 50.9416C49.8499 51.6664 48.9975 52.1781 48.0529 52.4095C47.1084 52.6409 46.1159 52.5811 45.2059 52.2381C45.1795 53.0776 44.934 53.8956 44.494 54.6111C44.0541 55.3265 43.4347 55.9146 42.6975 56.317C41.9602 56.7194 41.1306 56.9221 40.2908 56.9051C39.4511 56.8881 38.6303 56.652 37.9099 56.2201C37.7459 57.0661 37.3618 57.8539 36.7964 58.5042C36.231 59.1545 35.5042 59.6443 34.6893 59.9244C33.8743 60.2044 32.9999 60.2648 32.1542 60.0993C31.3085 59.9339 30.5213 59.5486 29.8719 58.9821L12.1839 43.5621C11.6151 43.0669 11.1678 42.4475 10.8765 41.7518C10.5852 41.0562 10.4577 40.3029 10.5039 39.5501C8.22778 37.9914 6.42105 35.84 5.27912 33.3287C4.13719 30.8174 3.7035 28.0418 4.02497 25.3018C4.34643 22.5619 5.4108 19.962 7.10299 17.7832C8.79518 15.6044 11.0528 13.9297 13.6279 12.9401Z" fill="url(#paint1_radial_451_2741)"/>
</g>
<path d="M13.6279 12.9401C14.5319 12.4941 16.9079 11.5601 20.7859 11.9161C27.2479 12.8521 32.2019 13.6001 33.9099 13.8761L29.7559 16.3801C30.7295 17.3557 31.5658 18.4591 32.2419 19.6601L33.0119 18.7761L54.7259 37.7661C55.4458 38.3968 55.9435 39.2425 56.1456 40.178C56.3476 41.1136 56.2432 42.0893 55.8477 42.9609C55.4523 43.8325 54.7869 44.5537 53.9499 45.0178C53.1128 45.4819 52.1487 45.6644 51.1999 45.5381C51.6418 46.4044 51.8112 47.3841 51.686 48.3485C51.5607 49.3129 51.1467 50.2169 50.4983 50.9416C49.8499 51.6664 48.9975 52.1781 48.0529 52.4095C47.1084 52.6409 46.1159 52.5811 45.2059 52.2381C45.1795 53.0776 44.934 53.8956 44.494 54.6111C44.0541 55.3265 43.4347 55.9146 42.6975 56.317C41.9602 56.7194 41.1306 56.9221 40.2908 56.9051C39.4511 56.8881 38.6303 56.652 37.9099 56.2201C37.7459 57.0661 37.3618 57.8539 36.7964 58.5042C36.231 59.1545 35.5042 59.6443 34.6893 59.9244C33.8743 60.2044 32.9999 60.2648 32.1542 60.0993C31.3085 59.9339 30.5213 59.5486 29.8719 58.9821L12.1839 43.5621C11.6151 43.0669 11.1678 42.4475 10.8765 41.7518C10.5852 41.0562 10.4577 40.3029 10.5039 39.5501C8.22778 37.9914 6.42105 35.84 5.27912 33.3287C4.13719 30.8174 3.7035 28.0418 4.02497 25.3018C4.34643 22.5619 5.4108 19.962 7.10299 17.7832C8.79518 15.6044 11.0528 13.9297 13.6279 12.9401Z" fill="url(#paint2_radial_451_2741)"/>
<path d="M13.6279 12.9401C14.5319 12.4941 16.9079 11.5601 20.7859 11.9161C27.2479 12.8521 32.2019 13.6001 33.9099 13.8761L29.7559 16.3801C30.7295 17.3557 31.5658 18.4591 32.2419 19.6601L33.0119 18.7761L54.7259 37.7661C55.4458 38.3968 55.9435 39.2425 56.1456 40.178C56.3476 41.1136 56.2432 42.0893 55.8477 42.9609C55.4523 43.8325 54.7869 44.5537 53.9499 45.0178C53.1128 45.4819 52.1487 45.6644 51.1999 45.5381C51.6418 46.4044 51.8112 47.3841 51.686 48.3485C51.5607 49.3129 51.1467 50.2169 50.4983 50.9416C49.8499 51.6664 48.9975 52.1781 48.0529 52.4095C47.1084 52.6409 46.1159 52.5811 45.2059 52.2381C45.1795 53.0776 44.934 53.8956 44.494 54.6111C44.0541 55.3265 43.4347 55.9146 42.6975 56.317C41.9602 56.7194 41.1306 56.9221 40.2908 56.9051C39.4511 56.8881 38.6303 56.652 37.9099 56.2201C37.7459 57.0661 37.3618 57.8539 36.7964 58.5042C36.231 59.1545 35.5042 59.6443 34.6893 59.9244C33.8743 60.2044 32.9999 60.2648 32.1542 60.0993C31.3085 59.9339 30.5213 59.5486 29.8719 58.9821L12.1839 43.5621C11.6151 43.0669 11.1678 42.4475 10.8765 41.7518C10.5852 41.0562 10.4577 40.3029 10.5039 39.5501C8.22778 37.9914 6.42105 35.84 5.27912 33.3287C4.13719 30.8174 3.7035 28.0418 4.02497 25.3018C4.34643 22.5619 5.4108 19.962 7.10299 17.7832C8.79518 15.6044 11.0528 13.9297 13.6279 12.9401Z" fill="url(#paint3_radial_451_2741)"/>
<path d="M13.6279 12.9401C14.5319 12.4941 16.9079 11.5601 20.7859 11.9161C27.2479 12.8521 32.2019 13.6001 33.9099 13.8761L29.7559 16.3801C30.7295 17.3557 31.5658 18.4591 32.2419 19.6601L33.0119 18.7761L54.7259 37.7661C55.4458 38.3968 55.9435 39.2425 56.1456 40.178C56.3476 41.1136 56.2432 42.0893 55.8477 42.9609C55.4523 43.8325 54.7869 44.5537 53.9499 45.0178C53.1128 45.4819 52.1487 45.6644 51.1999 45.5381C51.6418 46.4044 51.8112 47.3841 51.686 48.3485C51.5607 49.3129 51.1467 50.2169 50.4983 50.9416C49.8499 51.6664 48.9975 52.1781 48.0529 52.4095C47.1084 52.6409 46.1159 52.5811 45.2059 52.2381C45.1795 53.0776 44.934 53.8956 44.494 54.6111C44.0541 55.3265 43.4347 55.9146 42.6975 56.317C41.9602 56.7194 41.1306 56.9221 40.2908 56.9051C39.4511 56.8881 38.6303 56.652 37.9099 56.2201C37.7459 57.0661 37.3618 57.8539 36.7964 58.5042C36.231 59.1545 35.5042 59.6443 34.6893 59.9244C33.8743 60.2044 32.9999 60.2648 32.1542 60.0993C31.3085 59.9339 30.5213 59.5486 29.8719 58.9821L12.1839 43.5621C11.6151 43.0669 11.1678 42.4475 10.8765 41.7518C10.5852 41.0562 10.4577 40.3029 10.5039 39.5501C8.22778 37.9914 6.42105 35.84 5.27912 33.3287C4.13719 30.8174 3.7035 28.0418 4.02497 25.3018C4.34643 22.5619 5.4108 19.962 7.10299 17.7832C8.79518 15.6044 11.0528 13.9297 13.6279 12.9401Z" fill="url(#paint4_radial_451_2741)"/>
<path d="M13.6279 12.9401C14.5319 12.4941 16.9079 11.5601 20.7859 11.9161C27.2479 12.8521 32.2019 13.6001 33.9099 13.8761L29.7559 16.3801C30.7295 17.3557 31.5658 18.4591 32.2419 19.6601L33.0119 18.7761L54.7259 37.7661C55.4458 38.3968 55.9435 39.2425 56.1456 40.178C56.3476 41.1136 56.2432 42.0893 55.8477 42.9609C55.4523 43.8325 54.7869 44.5537 53.9499 45.0178C53.1128 45.4819 52.1487 45.6644 51.1999 45.5381C51.6418 46.4044 51.8112 47.3841 51.686 48.3485C51.5607 49.3129 51.1467 50.2169 50.4983 50.9416C49.8499 51.6664 48.9975 52.1781 48.0529 52.4095C47.1084 52.6409 46.1159 52.5811 45.2059 52.2381C45.1795 53.0776 44.934 53.8956 44.494 54.6111C44.0541 55.3265 43.4347 55.9146 42.6975 56.317C41.9602 56.7194 41.1306 56.9221 40.2908 56.9051C39.4511 56.8881 38.6303 56.652 37.9099 56.2201C37.7459 57.0661 37.3618 57.8539 36.7964 58.5042C36.231 59.1545 35.5042 59.6443 34.6893 59.9244C33.8743 60.2044 32.9999 60.2648 32.1542 60.0993C31.3085 59.9339 30.5213 59.5486 29.8719 58.9821L12.1839 43.5621C11.6151 43.0669 11.1678 42.4475 10.8765 41.7518C10.5852 41.0562 10.4577 40.3029 10.5039 39.5501C8.22778 37.9914 6.42105 35.84 5.27912 33.3287C4.13719 30.8174 3.7035 28.0418 4.02497 25.3018C4.34643 22.5619 5.4108 19.962 7.10299 17.7832C8.79518 15.6044 11.0528 13.9297 13.6279 12.9401Z" fill="url(#paint5_radial_451_2741)"/>
<path d="M13.6279 12.9401C14.5319 12.4941 16.9079 11.5601 20.7859 11.9161C27.2479 12.8521 32.2019 13.6001 33.9099 13.8761L29.7559 16.3801C30.7295 17.3557 31.5658 18.4591 32.2419 19.6601L33.0119 18.7761L54.7259 37.7661C55.4458 38.3968 55.9435 39.2425 56.1456 40.178C56.3476 41.1136 56.2432 42.0893 55.8477 42.9609C55.4523 43.8325 54.7869 44.5537 53.9499 45.0178C53.1128 45.4819 52.1487 45.6644 51.1999 45.5381C51.6418 46.4044 51.8112 47.3841 51.686 48.3485C51.5607 49.3129 51.1467 50.2169 50.4983 50.9416C49.8499 51.6664 48.9975 52.1781 48.0529 52.4095C47.1084 52.6409 46.1159 52.5811 45.2059 52.2381C45.1795 53.0776 44.934 53.8956 44.494 54.6111C44.0541 55.3265 43.4347 55.9146 42.6975 56.317C41.9602 56.7194 41.1306 56.9221 40.2908 56.9051C39.4511 56.8881 38.6303 56.652 37.9099 56.2201C37.7459 57.0661 37.3618 57.8539 36.7964 58.5042C36.231 59.1545 35.5042 59.6443 34.6893 59.9244C33.8743 60.2044 32.9999 60.2648 32.1542 60.0993C31.3085 59.9339 30.5213 59.5486 29.8719 58.9821L12.1839 43.5621C11.6151 43.0669 11.1678 42.4475 10.8765 41.7518C10.5852 41.0562 10.4577 40.3029 10.5039 39.5501C8.22778 37.9914 6.42105 35.84 5.27912 33.3287C4.13719 30.8174 3.7035 28.0418 4.02497 25.3018C4.34643 22.5619 5.4108 19.962 7.10299 17.7832C8.79518 15.6044 11.0528 13.9297 13.6279 12.9401Z" fill="url(#paint6_radial_451_2741)"/>
<g filter="url(#filter1_f_451_2741)">
<path fill-rule="evenodd" clip-rule="evenodd" d="M9.36378 36.5041C8.67364 37.2049 8.26854 38.1372 8.22715 39.1199C8.18576 40.1027 8.51101 41.0657 9.13978 41.8221C9.60792 42.3919 10.2191 42.827 10.9107 43.0828C11.6023 43.3386 12.3495 43.406 13.0758 43.2781C12.7235 44.0042 12.6064 44.8222 12.7408 45.618C12.8752 46.4139 13.2545 47.148 13.8258 47.7181C14.9298 48.8181 16.5798 49.2161 17.9778 48.7681C17.7378 49.9601 18.3038 51.3141 19.2718 52.2841C20.2278 53.2381 21.7278 53.4801 22.9198 53.1001C22.7698 54.1841 23.0938 55.3601 23.8118 56.2221C25.1518 57.8341 27.7578 58.2361 29.4118 56.8541L32.0978 54.0801C33.4658 52.7381 33.3578 50.1561 32.0978 48.7121C31.2438 47.7301 30.0298 47.2961 28.8778 47.4621C29.6558 46.1041 29.3478 44.2861 28.3778 43.1761C27.3978 42.0561 26.0618 41.6221 24.8778 41.8761C25.1868 41.1326 25.2688 40.3142 25.1137 39.5241C24.9585 38.734 24.573 38.0075 24.0058 37.4361C22.7518 36.2061 20.8298 36.0241 19.3458 36.8361C19.5125 35.9914 19.4025 35.1154 19.0322 34.3382C18.6618 33.5609 18.0507 32.9238 17.2896 32.5212C16.5285 32.1187 15.6579 31.9722 14.807 32.1035C13.9561 32.2348 13.1701 32.6369 12.5658 33.2501L9.36378 36.5041Z" fill="#FFB21A"/>
</g>
<g filter="url(#filter2_f_451_2741)">
<path d="M30.0879 51.7021L34.9099 56.0141" stroke="url(#paint7_linear_451_2741)" stroke-width="0.75" stroke-linecap="round"/>
</g>
<g filter="url(#filter3_f_451_2741)">
<path d="M26.416 16.2341C25.2295 16.5666 24.0589 16.9536 22.908 17.3941L22.912 17.4041C22.2942 17.6919 21.7707 18.1491 21.4025 18.7227C21.0343 19.2963 20.8365 19.9626 20.832 20.6441C20.832 22.6361 22.486 24.2481 24.524 24.2481C25.02 24.2481 25.494 24.1521 25.926 23.9781L27.032 23.6301H27.038L28.07 23.2981C35.066 21.0461 31.59 20.2541 26.416 16.2341Z" fill="#D77A15"/>
</g>
<g filter="url(#filter4_f_451_2741)">
<path d="M36.2402 24.8401L53.3642 40.0901" stroke="url(#paint8_linear_451_2741)" stroke-width="0.75" stroke-linecap="round"/>
</g>
<g filter="url(#filter5_f_451_2741)">
<path d="M44.2998 43.126L49.1258 47.438" stroke="url(#paint9_linear_451_2741)" stroke-width="0.75" stroke-linecap="round"/>
</g>
<g filter="url(#filter6_f_451_2741)">
<path d="M37.7939 48.2642L42.6179 52.5782" stroke="url(#paint10_linear_451_2741)" stroke-width="0.75" stroke-linecap="round"/>
</g>
<path d="M6.81368 42.5182C6.11716 41.6794 5.7569 40.6118 5.80272 39.5225C5.84854 38.4331 6.29718 37.3996 7.06168 36.6222L10.6117 33.0162C11.0234 32.6003 11.5133 32.2699 12.0532 32.044C12.5931 31.8181 13.1723 31.7012 13.7576 31.7C14.3428 31.6987 14.9225 31.8132 15.4634 32.0368C16.0042 32.2604 16.4955 32.5887 16.909 33.0029C17.3225 33.4171 17.6501 33.9089 17.8728 34.4501C18.0955 34.9913 18.2091 35.5712 18.2069 36.1564C18.2048 36.7416 18.0869 37.3207 17.8602 37.8602C17.6334 38.3997 17.3022 38.8891 16.8857 39.3002L13.2837 43.0322C11.4477 44.8322 8.45768 44.4942 6.81368 42.5182Z" fill="url(#paint11_linear_451_2741)"/>
<path d="M6.81368 42.5182C6.11716 41.6794 5.7569 40.6118 5.80272 39.5225C5.84854 38.4331 6.29718 37.3996 7.06168 36.6222L10.6117 33.0162C11.0234 32.6003 11.5133 32.2699 12.0532 32.044C12.5931 31.8181 13.1723 31.7012 13.7576 31.7C14.3428 31.6987 14.9225 31.8132 15.4634 32.0368C16.0042 32.2604 16.4955 32.5887 16.909 33.0029C17.3225 33.4171 17.6501 33.9089 17.8728 34.4501C18.0955 34.9913 18.2091 35.5712 18.2069 36.1564C18.2048 36.7416 18.0869 37.3207 17.8602 37.8602C17.6334 38.3997 17.3022 38.8891 16.8857 39.3002L13.2837 43.0322C11.4477 44.8322 8.45768 44.4942 6.81368 42.5182Z" fill="url(#paint12_linear_451_2741)"/>
<path d="M6.81368 42.5182C6.11716 41.6794 5.7569 40.6118 5.80272 39.5225C5.84854 38.4331 6.29718 37.3996 7.06168 36.6222L10.6117 33.0162C11.0234 32.6003 11.5133 32.2699 12.0532 32.044C12.5931 31.8181 13.1723 31.7012 13.7576 31.7C14.3428 31.6987 14.9225 31.8132 15.4634 32.0368C16.0042 32.2604 16.4955 32.5887 16.909 33.0029C17.3225 33.4171 17.6501 33.9089 17.8728 34.4501C18.0955 34.9913 18.2091 35.5712 18.2069 36.1564C18.2048 36.7416 18.0869 37.3207 17.8602 37.8602C17.6334 38.3997 17.3022 38.8891 16.8857 39.3002L13.2837 43.0322C11.4477 44.8322 8.45768 44.4942 6.81368 42.5182Z" fill="url(#paint13_radial_451_2741)"/>
<path d="M6.81368 42.5182C6.11716 41.6794 5.7569 40.6118 5.80272 39.5225C5.84854 38.4331 6.29718 37.3996 7.06168 36.6222L10.6117 33.0162C11.0234 32.6003 11.5133 32.2699 12.0532 32.044C12.5931 31.8181 13.1723 31.7012 13.7576 31.7C14.3428 31.6987 14.9225 31.8132 15.4634 32.0368C16.0042 32.2604 16.4955 32.5887 16.909 33.0029C17.3225 33.4171 17.6501 33.9089 17.8728 34.4501C18.0955 34.9913 18.2091 35.5712 18.2069 36.1564C18.2048 36.7416 18.0869 37.3207 17.8602 37.8602C17.6334 38.3997 17.3022 38.8891 16.8857 39.3002L13.2837 43.0322C11.4477 44.8322 8.45768 44.4942 6.81368 42.5182Z" fill="url(#paint14_radial_451_2741)"/>
<path d="M12.0101 49.0601C11.2072 48.2595 10.7529 47.1743 10.7462 46.0405C10.7394 44.9067 11.1808 43.8161 11.9741 43.0061L17.1101 37.7661C18.7821 36.0601 21.5921 35.9841 23.2981 37.6561C25.0081 39.3361 25.0621 42.2141 23.3721 43.9161L18.2001 49.2501C16.5241 50.9361 13.6921 50.7341 12.0081 49.0561" fill="url(#paint15_linear_451_2741)"/>
<path d="M12.0101 49.0601C11.2072 48.2595 10.7529 47.1743 10.7462 46.0405C10.7394 44.9067 11.1808 43.8161 11.9741 43.0061L17.1101 37.7661C18.7821 36.0601 21.5921 35.9841 23.2981 37.6561C25.0081 39.3361 25.0621 42.2141 23.3721 43.9161L18.2001 49.2501C16.5241 50.9361 13.6921 50.7341 12.0081 49.0561" fill="url(#paint16_linear_451_2741)"/>
<path d="M12.0101 49.0601C11.2072 48.2595 10.7529 47.1743 10.7462 46.0405C10.7394 44.9067 11.1808 43.8161 11.9741 43.0061L17.1101 37.7661C18.7821 36.0601 21.5921 35.9841 23.2981 37.6561C25.0081 39.3361 25.0621 42.2141 23.3721 43.9161L18.2001 49.2501C16.5241 50.9361 13.6921 50.7341 12.0081 49.0561" fill="url(#paint17_radial_451_2741)"/>
<path d="M12.0101 49.0601C11.2072 48.2595 10.7529 47.1743 10.7462 46.0405C10.7394 44.9067 11.1808 43.8161 11.9741 43.0061L17.1101 37.7661C18.7821 36.0601 21.5921 35.9841 23.2981 37.6561C25.0081 39.3361 25.0621 42.2141 23.3721 43.9161L18.2001 49.2501C16.5241 50.9361 13.6921 50.7341 12.0081 49.0561" fill="url(#paint18_radial_451_2741)"/>
<path d="M23.08 58.4862C21.774 56.9162 21.648 54.4102 23.08 52.9542L26.516 49.8942C28.156 48.2282 30.736 48.3942 32.27 50.1582C33.666 51.7582 33.786 54.6222 32.27 56.1102L29.294 59.1902C27.458 60.7202 24.568 60.2742 23.08 58.4862Z" fill="url(#paint19_linear_451_2741)"/>
<path d="M23.08 58.4862C21.774 56.9162 21.648 54.4102 23.08 52.9542L26.516 49.8942C28.156 48.2282 30.736 48.3942 32.27 50.1582C33.666 51.7582 33.786 54.6222 32.27 56.1102L29.294 59.1902C27.458 60.7202 24.568 60.2742 23.08 58.4862Z" fill="url(#paint20_linear_451_2741)"/>
<path d="M23.08 58.4862C21.774 56.9162 21.648 54.4102 23.08 52.9542L26.516 49.8942C28.156 48.2282 30.736 48.3942 32.27 50.1582C33.666 51.7582 33.786 54.6222 32.27 56.1102L29.294 59.1902C27.458 60.7202 24.568 60.2742 23.08 58.4862Z" fill="url(#paint21_radial_451_2741)"/>
<path d="M23.08 58.4862C21.774 56.9162 21.648 54.4102 23.08 52.9542L26.516 49.8942C28.156 48.2282 30.736 48.3942 32.27 50.1582C33.666 51.7582 33.786 54.6222 32.27 56.1102L29.294 59.1902C27.458 60.7202 24.568 60.2742 23.08 58.4862Z" fill="url(#paint22_radial_451_2741)"/>
<path d="M18.0479 54.12C16.5339 52.606 15.9079 50.244 17.4199 48.732L22.5339 43.524C24.0479 42.012 26.5299 42.172 28.1459 44.02C29.4059 45.462 29.6579 47.986 28.1459 49.5L23.5259 54.12C22.3019 55.528 19.5599 55.632 18.0459 54.12" fill="url(#paint23_linear_451_2741)"/>
<path d="M18.0479 54.12C16.5339 52.606 15.9079 50.244 17.4199 48.732L22.5339 43.524C24.0479 42.012 26.5299 42.172 28.1459 44.02C29.4059 45.462 29.6579 47.986 28.1459 49.5L23.5259 54.12C22.3019 55.528 19.5599 55.632 18.0459 54.12" fill="url(#paint24_linear_451_2741)"/>
<path d="M18.0479 54.12C16.5339 52.606 15.9079 50.244 17.4199 48.732L22.5339 43.524C24.0479 42.012 26.5299 42.172 28.1459 44.02C29.4059 45.462 29.6579 47.986 28.1459 49.5L23.5259 54.12C22.3019 55.528 19.5599 55.632 18.0459 54.12" fill="url(#paint25_radial_451_2741)"/>
<path d="M18.0479 54.12C16.5339 52.606 15.9079 50.244 17.4199 48.732L22.5339 43.524C24.0479 42.012 26.5299 42.172 28.1459 44.02C29.4059 45.462 29.6579 47.986 28.1459 49.5L23.5259 54.12C22.3019 55.528 19.5599 55.632 18.0459 54.12" fill="url(#paint26_radial_451_2741)"/>
<g filter="url(#filter7_i_451_2741)">
<path d="M24.2555 16.072L24.2595 16.084C23.2705 16.5534 22.5044 17.3914 22.1254 18.4185C21.7463 19.4455 21.7843 20.5802 22.2312 21.5796C22.6781 22.5791 23.4985 23.3639 24.5167 23.7661C25.535 24.1684 26.6702 24.1561 27.6795 23.732L28.9355 23.326L28.9415 23.324C30.8495 22.706 33.6595 21.732 35.1915 21.428C35.6675 21.332 36.1355 21.508 36.5015 21.828L54.6875 37.75C57.9795 34.858 60.1775 30.92 60.1775 26.354C60.1775 18.386 53.8695 11.928 45.6395 11.928C39.9955 12.208 31.0335 13.386 24.2555 16.072Z" fill="#FBB439"/>
<path d="M24.2555 16.072L24.2595 16.084C23.2705 16.5534 22.5044 17.3914 22.1254 18.4185C21.7463 19.4455 21.7843 20.5802 22.2312 21.5796C22.6781 22.5791 23.4985 23.3639 24.5167 23.7661C25.535 24.1684 26.6702 24.1561 27.6795 23.732L28.9355 23.326L28.9415 23.324C30.8495 22.706 33.6595 21.732 35.1915 21.428C35.6675 21.332 36.1355 21.508 36.5015 21.828L54.6875 37.75C57.9795 34.858 60.1775 30.92 60.1775 26.354C60.1775 18.386 53.8695 11.928 45.6395 11.928C39.9955 12.208 31.0335 13.386 24.2555 16.072Z" fill="url(#paint27_radial_451_2741)"/>
<path d="M24.2555 16.072L24.2595 16.084C23.2705 16.5534 22.5044 17.3914 22.1254 18.4185C21.7463 19.4455 21.7843 20.5802 22.2312 21.5796C22.6781 22.5791 23.4985 23.3639 24.5167 23.7661C25.535 24.1684 26.6702 24.1561 27.6795 23.732L28.9355 23.326L28.9415 23.324C30.8495 22.706 33.6595 21.732 35.1915 21.428C35.6675 21.332 36.1355 21.508 36.5015 21.828L54.6875 37.75C57.9795 34.858 60.1775 30.92 60.1775 26.354C60.1775 18.386 53.8695 11.928 45.6395 11.928C39.9955 12.208 31.0335 13.386 24.2555 16.072Z" fill="url(#paint28_radial_451_2741)"/>
<path d="M24.2555 16.072L24.2595 16.084C23.2705 16.5534 22.5044 17.3914 22.1254 18.4185C21.7463 19.4455 21.7843 20.5802 22.2312 21.5796C22.6781 22.5791 23.4985 23.3639 24.5167 23.7661C25.535 24.1684 26.6702 24.1561 27.6795 23.732L28.9355 23.326L28.9415 23.324C30.8495 22.706 33.6595 21.732 35.1915 21.428C35.6675 21.332 36.1355 21.508 36.5015 21.828L54.6875 37.75C57.9795 34.858 60.1775 30.92 60.1775 26.354C60.1775 18.386 53.8695 11.928 45.6395 11.928C39.9955 12.208 31.0335 13.386 24.2555 16.072Z" fill="url(#paint29_radial_451_2741)"/>
</g>
<path d="M24.2555 16.072L24.2595 16.084C23.2705 16.5534 22.5044 17.3914 22.1254 18.4185C21.7463 19.4455 21.7843 20.5802 22.2312 21.5796C22.6781 22.5791 23.4985 23.3639 24.5167 23.7661C25.535 24.1684 26.6702 24.1561 27.6795 23.732L28.9355 23.326L28.9415 23.324C30.8495 22.706 33.6595 21.732 35.1915 21.428C35.6675 21.332 36.1355 21.508 36.5015 21.828L54.6875 37.75C57.9795 34.858 60.1775 30.92 60.1775 26.354C60.1775 18.386 53.8695 11.928 45.6395 11.928C39.9955 12.208 31.0335 13.386 24.2555 16.072Z" fill="url(#paint30_radial_451_2741)"/>
<g filter="url(#filter8_f_451_2741)">
<path d="M37.4717 19.0162C34.8617 19.6562 31.6837 20.6282 29.3617 21.3922C29.0372 21.5002 28.6942 21.5419 28.3533 21.5147C28.0123 21.4875 27.6802 21.3921 27.3769 21.2341C27.0735 21.0761 26.805 20.8587 26.5873 20.5948C26.3697 20.331 26.2072 20.026 26.1097 19.6982C25.7617 18.4922 26.3737 17.2142 27.5597 16.7982C30.5397 15.7582 34.1717 14.8162 36.7717 14.2862C38.0177 14.0322 39.1817 14.8822 39.4057 16.1342C39.6397 17.4442 38.7637 18.7002 37.4717 19.0142" fill="#FFE746"/>
</g>
<defs>
<filter id="filter0_i_451_2741" x="3.92188" y="11.0869" width="53.0742" height="49.1035" filterUnits="userSpaceOnUse" color-interpolation-filters="sRGB">
<feFlood flood-opacity="0" result="BackgroundImageFix"/>
<feBlend mode="normal" in="SourceGraphic" in2="BackgroundImageFix" result="shape"/>
<feColorMatrix in="SourceAlpha" type="matrix" values="0 0 0 0 0 0 0 0 0 0 0 0 0 0 0 0 0 0 127 0" result="hardAlpha"/>
<feOffset dx="0.75" dy="-0.75"/>
<feGaussianBlur stdDeviation="0.75"/>
<feComposite in2="hardAlpha" operator="arithmetic" k2="-1" k3="1"/>
<feColorMatrix type="matrix" values="0 0 0 0 0.945098 0 0 0 0 0.615686 0 0 0 0 0.156863 0 0 0 1 0"/>
<feBlend mode="normal" in2="shape" result="effect1_innerShadow_451_2741"/>
</filter>
<filter id="filter1_f_451_2741" x="7.84863" y="31.6816" width="25.6104" height="26.3872" filterUnits="userSpaceOnUse" color-interpolation-filters="sRGB">
<feFlood flood-opacity="0" result="BackgroundImageFix"/>
<feBlend mode="normal" in="SourceGraphic" in2="BackgroundImageFix" result="shape"/>
<feGaussianBlur stdDeviation="0.1875" result="effect1_foregroundBlur_451_2741"/>
</filter>
<filter id="filter2_f_451_2741" x="28.9629" y="50.5771" width="7.07227" height="6.56201" filterUnits="userSpaceOnUse" color-interpolation-filters="sRGB">
<feFlood flood-opacity="0" result="BackgroundImageFix"/>
<feBlend mode="normal" in="SourceGraphic" in2="BackgroundImageFix" result="shape"/>
<feGaussianBlur stdDeviation="0.375" result="effect1_foregroundBlur_451_2741"/>
</filter>
<filter id="filter3_f_451_2741" x="20.402" y="15.8041" width="12.028" height="8.87392" filterUnits="userSpaceOnUse" color-interpolation-filters="sRGB">
<feFlood flood-opacity="0" result="BackgroundImageFix"/>
<feBlend mode="normal" in="SourceGraphic" in2="BackgroundImageFix" result="shape"/>
<feGaussianBlur stdDeviation="0.215" result="effect1_foregroundBlur_451_2741"/>
</filter>
<filter id="filter4_f_451_2741" x="35.1152" y="23.7151" width="19.374" height="17.5" filterUnits="userSpaceOnUse" color-interpolation-filters="sRGB">
<feFlood flood-opacity="0" result="BackgroundImageFix"/>
<feBlend mode="normal" in="SourceGraphic" in2="BackgroundImageFix" result="shape"/>
<feGaussianBlur stdDeviation="0.375" result="effect1_foregroundBlur_451_2741"/>
</filter>
<filter id="filter5_f_451_2741" x="43.1748" y="42.001" width="7.07617" height="6.56201" filterUnits="userSpaceOnUse" color-interpolation-filters="sRGB">
<feFlood flood-opacity="0" result="BackgroundImageFix"/>
<feBlend mode="normal" in="SourceGraphic" in2="BackgroundImageFix" result="shape"/>
<feGaussianBlur stdDeviation="0.375" result="effect1_foregroundBlur_451_2741"/>
</filter>
<filter id="filter6_f_451_2741" x="36.6689" y="47.1392" width="7.07422" height="6.56396" filterUnits="userSpaceOnUse" color-interpolation-filters="sRGB">
<feFlood flood-opacity="0" result="BackgroundImageFix"/>
<feBlend mode="normal" in="SourceGraphic" in2="BackgroundImageFix" result="shape"/>
<feGaussianBlur stdDeviation="0.375" result="effect1_foregroundBlur_451_2741"/>
</filter>
<filter id="filter7_i_451_2741" x="21.8662" y="11.928" width="38.3115" height="25.897" filterUnits="userSpaceOnUse" color-interpolation-filters="sRGB">
<feFlood flood-opacity="0" result="BackgroundImageFix"/>
<feBlend mode="normal" in="SourceGraphic" in2="BackgroundImageFix" result="shape"/>
<feColorMatrix in="SourceAlpha" type="matrix" values="0 0 0 0 0 0 0 0 0 0 0 0 0 0 0 0 0 0 127 0" result="hardAlpha"/>
<feOffset dy="0.075"/>
<feGaussianBlur stdDeviation="0.25"/>
<feComposite in2="hardAlpha" operator="arithmetic" k2="-1" k3="1"/>
<feColorMatrix type="matrix" values="0 0 0 0 0.917647 0 0 0 0 0.615686 0 0 0 0 0.137255 0 0 0 1 0"/>
<feBlend mode="normal" in2="shape" result="effect1_innerShadow_451_2741"/>
</filter>
<filter id="filter8_f_451_2741" x="25.0127" y="13.2412" width="15.4307" height="9.28149" filterUnits="userSpaceOnUse" color-interpolation-filters="sRGB">
<feFlood flood-opacity="0" result="BackgroundImageFix"/>
<feBlend mode="normal" in="SourceGraphic" in2="BackgroundImageFix" result="shape"/>
<feGaussianBlur stdDeviation="0.5" result="effect1_foregroundBlur_451_2741"/>
</filter>
<linearGradient id="paint0_linear_451_2741" x1="45.1759" y1="28.0641" x2="31.8019" y2="47.6881" gradientUnits="userSpaceOnUse">
<stop stop-color="#FFD741"/>
<stop offset="1" stop-color="#FFBE37"/>
</linearGradient>
<radialGradient id="paint1_radial_451_2741" cx="0" cy="0" r="1" gradientUnits="userSpaceOnUse" gradientTransform="translate(39.9259 20.9401) rotate(122.645) scale(9.50081 13.211)">
<stop stop-color="#FFDC38"/>
<stop offset="1" stop-color="#FFDC38" stop-opacity="0"/>
</radialGradient>
<radialGradient id="paint2_radial_451_2741" cx="0" cy="0" r="1" gradientUnits="userSpaceOnUse" gradientTransform="translate(52.7999 48.3141) rotate(-136.375) scale(5.52585 4.40966)">
<stop stop-color="#FFCB41"/>
<stop offset="1" stop-color="#FFCB41" stop-opacity="0"/>
</radialGradient>
<radialGradient id="paint3_radial_451_2741" cx="0" cy="0" r="1" gradientUnits="userSpaceOnUse" gradientTransform="translate(54.1139 45.9401) rotate(-138.778) scale(9.38957 2.56503)">
<stop stop-color="#F48E5A"/>
<stop offset="1" stop-color="#F48E5A" stop-opacity="0"/>
</radialGradient>
<radialGradient id="paint4_radial_451_2741" cx="0" cy="0" r="1" gradientUnits="userSpaceOnUse" gradientTransform="translate(48.9269 54.0632) rotate(-134.193) scale(12.5524 3.42906)">
<stop stop-color="#F48E5A"/>
<stop offset="1" stop-color="#F48E5A" stop-opacity="0"/>
</radialGradient>
<radialGradient id="paint5_radial_451_2741" cx="0" cy="0" r="1" gradientUnits="userSpaceOnUse" gradientTransform="translate(40.1759 57.7521) rotate(-133.968) scale(9.81271 3.11145)">
<stop stop-color="#F48E5A"/>
<stop offset="1" stop-color="#F48E5A" stop-opacity="0"/>
</radialGradient>
<radialGradient id="paint6_radial_451_2741" cx="0" cy="0" r="1" gradientUnits="userSpaceOnUse" gradientTransform="translate(33.3639 61.6881) rotate(-139.295) scale(11.2126 3.28664)">
<stop stop-color="#F48E5A"/>
<stop offset="1" stop-color="#F48E5A" stop-opacity="0"/>
</radialGradient>
<linearGradient id="paint7_linear_451_2741" x1="34.9099" y1="56.0141" x2="27.6499" y2="48.8901" gradientUnits="userSpaceOnUse">
<stop stop-color="#FFCD43"/>
<stop offset="1" stop-color="#FFCD43" stop-opacity="0"/>
</linearGradient>
<linearGradient id="paint8_linear_451_2741" x1="53.3642" y1="40.0901" x2="35.2382" y2="24.3401" gradientUnits="userSpaceOnUse">
<stop stop-color="#FFE647"/>
<stop offset="1" stop-color="#FFE647" stop-opacity="0"/>
</linearGradient>
<linearGradient id="paint9_linear_451_2741" x1="49.1258" y1="47.438" x2="41.8638" y2="40.314" gradientUnits="userSpaceOnUse">
<stop stop-color="#FFD941"/>
<stop offset="1" stop-color="#FFD941" stop-opacity="0"/>
</linearGradient>
<linearGradient id="paint10_linear_451_2741" x1="42.6179" y1="52.5782" x2="35.3559" y2="45.4522" gradientUnits="userSpaceOnUse">
<stop stop-color="#FFD63F"/>
<stop offset="1" stop-color="#FFD63F" stop-opacity="0"/>
</linearGradient>
<linearGradient id="paint11_linear_451_2741" x1="15.3637" y1="34.3142" x2="6.67568" y2="42.6882" gradientUnits="userSpaceOnUse">
<stop stop-color="#FFBC41"/>
<stop offset="1" stop-color="#E69429"/>
</linearGradient>
<linearGradient id="paint12_linear_451_2741" x1="14.5817" y1="42.3462" x2="12.6457" y2="40.2822" gradientUnits="userSpaceOnUse">
<stop stop-color="#E08407"/>
<stop offset="1" stop-color="#E08407" stop-opacity="0"/>
</linearGradient>
<radialGradient id="paint13_radial_451_2741" cx="0" cy="0" r="1" gradientUnits="userSpaceOnUse" gradientTransform="translate(10.5517 45.6262) rotate(-88.8767) scale(6.37623 5.76591)">
<stop stop-color="#DA725B"/>
<stop offset="1" stop-color="#DA725B" stop-opacity="0"/>
</radialGradient>
<radialGradient id="paint14_radial_451_2741" cx="0" cy="0" r="1" gradientUnits="userSpaceOnUse" gradientTransform="translate(17.018 32.8759) rotate(136.229) scale(5.1498 4.98046)">
<stop stop-color="#FFE43E"/>
<stop offset="1" stop-color="#FFE43E" stop-opacity="0"/>
</radialGradient>
<linearGradient id="paint15_linear_451_2741" x1="21.4261" y1="39.3701" x2="11.7261" y2="48.7221" gradientUnits="userSpaceOnUse">
<stop stop-color="#FFBC41"/>
<stop offset="1" stop-color="#E69429"/>
</linearGradient>
<linearGradient id="paint16_linear_451_2741" x1="20.5541" y1="48.3401" x2="18.3901" y2="46.0361" gradientUnits="userSpaceOnUse">
<stop stop-color="#E08407"/>
<stop offset="1" stop-color="#E08407" stop-opacity="0"/>
</linearGradient>
<radialGradient id="paint17_radial_451_2741" cx="0" cy="0" r="1" gradientUnits="userSpaceOnUse" gradientTransform="translate(15.1141 51.6881) rotate(-83.0945) scale(8.31726 9.82884)">
<stop stop-color="#E8766E"/>
<stop offset="1" stop-color="#E8766E" stop-opacity="0"/>
</radialGradient>
<radialGradient id="paint18_radial_451_2741" cx="0" cy="0" r="1" gradientUnits="userSpaceOnUse" gradientTransform="translate(22.6153 38.3769) rotate(136.026) scale(4.85 4.69056)">
<stop stop-color="#FFE43E"/>
<stop offset="1" stop-color="#FFE43E" stop-opacity="0"/>
</radialGradient>
<linearGradient id="paint19_linear_451_2741" x1="30.766" y1="51.1202" x2="22.864" y2="58.7462" gradientUnits="userSpaceOnUse">
<stop stop-color="#FFBC41"/>
<stop offset="1" stop-color="#E69429"/>
</linearGradient>
<linearGradient id="paint20_linear_451_2741" x1="24.114" y1="52.2522" x2="26.924" y2="54.0682" gradientUnits="userSpaceOnUse">
<stop offset="0.156" stop-color="#E08407"/>
<stop offset="1" stop-color="#E08407" stop-opacity="0"/>
</linearGradient>
<radialGradient id="paint21_radial_451_2741" cx="0" cy="0" r="1" gradientUnits="userSpaceOnUse" gradientTransform="translate(25.552 61.6882) rotate(-84.1036) scale(7.30068 8.64052)">
<stop stop-color="#E8766E"/>
<stop offset="1" stop-color="#E8766E" stop-opacity="0"/>
</radialGradient>
<radialGradient id="paint22_radial_451_2741" cx="0" cy="0" r="1" gradientUnits="userSpaceOnUse" gradientTransform="translate(31.734 50.3102) rotate(136.071) scale(3.95337 3.82319)">
<stop stop-color="#FFE43E"/>
<stop offset="1" stop-color="#FFE43E" stop-opacity="0"/>
</radialGradient>
<linearGradient id="paint23_linear_451_2741" x1="26.2859" y1="45.164" x2="17.4599" y2="53.686" gradientUnits="userSpaceOnUse">
<stop stop-color="#FFBC41"/>
<stop offset="1" stop-color="#E69429"/>
</linearGradient>
<linearGradient id="paint24_linear_451_2741" x1="26.0519" y1="53.814" x2="24.2099" y2="51.842" gradientUnits="userSpaceOnUse">
<stop stop-color="#E08407"/>
<stop offset="1" stop-color="#E08407" stop-opacity="0"/>
</linearGradient>
<radialGradient id="paint25_radial_451_2741" cx="0" cy="0" r="1" gradientUnits="userSpaceOnUse" gradientTransform="translate(20.5345 56.3687) rotate(-83.082) scale(7.56594 8.95714)">
<stop stop-color="#E8766E"/>
<stop offset="1" stop-color="#E8766E" stop-opacity="0"/>
</radialGradient>
<radialGradient id="paint26_radial_451_2741" cx="0" cy="0" r="1" gradientUnits="userSpaceOnUse" gradientTransform="translate(27.3667 44.2613) rotate(136.08) scale(4.41602 4.27056)">
<stop stop-color="#FFE43E"/>
<stop offset="1" stop-color="#FFE43E" stop-opacity="0"/>
</radialGradient>
<radialGradient id="paint27_radial_451_2741" cx="0" cy="0" r="1" gradientUnits="userSpaceOnUse" gradientTransform="translate(38.3555 34.188) rotate(-33.6901) scale(24.257 38.1242)">
<stop offset="0.361" stop-color="#FFE949" stop-opacity="0"/>
<stop offset="1" stop-color="#FFE949"/>
</radialGradient>
<radialGradient id="paint28_radial_451_2741" cx="0" cy="0" r="1" gradientUnits="userSpaceOnUse" gradientTransform="translate(21.8995 21.47) rotate(-21.4028) scale(8.64186 13.877)">
<stop stop-color="#EE9226"/>
<stop offset="1" stop-color="#EE9226" stop-opacity="0"/>
</radialGradient>
<radialGradient id="paint29_radial_451_2741" cx="0" cy="0" r="1" gradientUnits="userSpaceOnUse" gradientTransform="translate(37.4095 34.61) rotate(-38.551) scale(17.205 16.4189)">
<stop stop-color="#F7A91E"/>
<stop offset="1" stop-color="#F7A91E" stop-opacity="0"/>
</radialGradient>
<radialGradient id="paint30_radial_451_2741" cx="0" cy="0" r="1" gradientUnits="userSpaceOnUse" gradientTransform="translate(40.4575 31.036) rotate(-35.9316) scale(23.1084 36.1552)">
<stop offset="0.661" stop-color="#FFEA49" stop-opacity="0"/>
<stop offset="1" stop-color="#FFEA49"/>
</radialGradient>
</defs>
</svg>
