<svg width="64" height="64" viewBox="0 0 64 64" fill="none" xmlns="http://www.w3.org/2000/svg">
<path d="M31.7364 59.75C33.6948 59.75 35.2824 58.1624 35.2824 56.204C35.2824 54.2456 33.6948 52.658 31.7364 52.658C29.778 52.658 28.1904 54.2456 28.1904 56.204C28.1904 58.1624 29.778 59.75 31.7364 59.75Z" fill="url(#paint0_radial_446_734)"/>
<path d="M36.0942 44.344H27.5322C26.1515 44.344 25.0322 45.4633 25.0322 46.844V55.282C25.0322 56.6627 26.1515 57.782 27.5322 57.782H36.0942C37.4749 57.782 38.5942 56.6627 38.5942 55.282V46.844C38.5942 45.4633 37.4749 44.344 36.0942 44.344Z" fill="url(#paint1_linear_446_734)"/>
<path d="M36.0942 44.344H27.5322C26.1515 44.344 25.0322 45.4633 25.0322 46.844V55.282C25.0322 56.6627 26.1515 57.782 27.5322 57.782H36.0942C37.4749 57.782 38.5942 56.6627 38.5942 55.282V46.844C38.5942 45.4633 37.4749 44.344 36.0942 44.344Z" fill="url(#paint2_linear_446_734)"/>
<path d="M36.0942 44.344H27.5322C26.1515 44.344 25.0322 45.4633 25.0322 46.844V55.282C25.0322 56.6627 26.1515 57.782 27.5322 57.782H36.0942C37.4749 57.782 38.5942 56.6627 38.5942 55.282V46.844C38.5942 45.4633 37.4749 44.344 36.0942 44.344Z" fill="url(#paint3_radial_446_734)"/>
<path d="M36.0942 44.344H27.5322C26.1515 44.344 25.0322 45.4633 25.0322 46.844V55.282C25.0322 56.6627 26.1515 57.782 27.5322 57.782H36.0942C37.4749 57.782 38.5942 56.6627 38.5942 55.282V46.844C38.5942 45.4633 37.4749 44.344 36.0942 44.344Z" fill="url(#paint4_linear_446_734)"/>
<g filter="url(#filter0_i_446_734)">
<path d="M31.5344 45.9379H31.6424C32.7544 45.9319 35.3104 45.8899 36.3364 45.7039C37.4364 45.5039 37.5784 44.9539 37.7744 44.0939C38.9784 38.7859 40.9984 36.7459 42.3504 35.3819C42.5598 35.1726 42.7504 34.9753 42.9224 34.7899C43.5084 34.146 44.0164 33.5779 44.4024 33.1399C46.713 30.6867 48.2566 27.6118 48.8434 24.2932C49.4302 20.9746 49.0348 17.5568 47.7056 14.4599C46.3764 11.363 44.1715 8.72186 41.3617 6.86105C38.5519 5.00025 35.2597 4.00084 31.8896 3.98565C28.5195 3.97046 25.2185 4.94014 22.392 6.77554C19.5656 8.61093 17.3369 11.2321 15.9798 14.3169C14.6228 17.4017 14.1965 20.8157 14.7534 24.1395C15.3103 27.4633 16.826 30.5519 19.1144 33.0259C19.5144 33.4779 20.0584 34.0879 20.6984 34.7899C20.8833 34.9928 21.074 35.1903 21.2704 35.3819C22.6204 36.7459 24.6424 38.7879 25.8464 44.0939C26.0424 44.9539 26.1844 45.5039 27.2844 45.7039C28.3064 45.8899 30.3764 45.9319 31.4244 45.9359L31.5344 45.9379Z" fill="url(#paint5_radial_446_734)"/>
<path d="M31.5344 45.9379H31.6424C32.7544 45.9319 35.3104 45.8899 36.3364 45.7039C37.4364 45.5039 37.5784 44.9539 37.7744 44.0939C38.9784 38.7859 40.9984 36.7459 42.3504 35.3819C42.5598 35.1726 42.7504 34.9753 42.9224 34.7899C43.5084 34.146 44.0164 33.5779 44.4024 33.1399C46.713 30.6867 48.2566 27.6118 48.8434 24.2932C49.4302 20.9746 49.0348 17.5568 47.7056 14.4599C46.3764 11.363 44.1715 8.72186 41.3617 6.86105C38.5519 5.00025 35.2597 4.00084 31.8896 3.98565C28.5195 3.97046 25.2185 4.94014 22.392 6.77554C19.5656 8.61093 17.3369 11.2321 15.9798 14.3169C14.6228 17.4017 14.1965 20.8157 14.7534 24.1395C15.3103 27.4633 16.826 30.5519 19.1144 33.0259C19.5144 33.4779 20.0584 34.0879 20.6984 34.7899C20.8833 34.9928 21.074 35.1903 21.2704 35.3819C22.6204 36.7459 24.6424 38.7879 25.8464 44.0939C26.0424 44.9539 26.1844 45.5039 27.2844 45.7039C28.3064 45.8899 30.3764 45.9319 31.4244 45.9359L31.5344 45.9379Z" fill="url(#paint6_radial_446_734)"/>
</g>
<path d="M34.9246 20.562C38.6006 20.562 41.5806 17.582 41.5806 13.906C41.5806 10.23 38.6006 7.25 34.9246 7.25C31.2485 7.25 28.2686 10.23 28.2686 13.906C28.2686 17.582 31.2485 20.562 34.9246 20.562Z" fill="url(#paint7_linear_446_734)"/>
<g filter="url(#filter1_i_446_734)">
<path d="M30.9586 45.932C30.8886 41.588 30.5426 38.728 30.0146 36.736C29.4086 34.442 28.5586 33.296 27.6586 32.39L27.6486 32.378L27.6366 32.368C26.7687 31.5472 26.1672 30.4848 25.9098 29.3184C25.6524 28.152 25.7509 26.9351 26.1926 25.8253C26.6343 24.7155 27.3989 23.7637 28.3875 23.0932C29.376 22.4227 30.5431 22.0642 31.7376 22.0642C32.9321 22.0642 34.0991 22.4227 35.0876 23.0932C36.0762 23.7637 36.8408 24.7155 37.2825 25.8253C37.7242 26.9351 37.8227 28.152 37.5653 29.3184C37.3079 30.4848 36.7064 31.5472 35.8386 32.368L35.8266 32.378L35.8146 32.39C34.9326 33.282 34.0706 34.35 33.4566 36.626C32.9246 38.596 32.5766 41.466 32.5066 45.928C33.1106 45.918 33.8326 45.9 34.5086 45.868C34.5806 41.532 34.9206 38.876 35.3886 37.148C35.8926 35.274 36.5426 34.498 37.2246 33.808C38.3797 32.7106 39.1793 31.2921 39.5201 29.7356C39.861 28.1792 39.7273 26.5563 39.1365 25.0766C38.5457 23.5969 37.5248 22.3283 36.2057 21.4346C34.8866 20.5409 33.3299 20.0632 31.7366 20.0632C30.1432 20.0632 28.5865 20.5409 27.2674 21.4346C25.9483 22.3283 24.9274 23.5969 24.3366 25.0766C23.7458 26.5563 23.6122 28.1792 23.953 29.7356C24.2938 31.2921 25.0934 32.7106 26.2486 33.808C26.9146 34.482 27.5726 35.324 28.0826 37.248C28.5466 39.006 28.8826 41.656 28.9566 45.868C29.6506 45.908 30.3806 45.924 30.9566 45.932" fill="#FFAD55"/>
</g>
<g filter="url(#filter2_f_446_734)">
<path d="M33.7582 45.478C33.7582 35.936 35.2202 34.412 36.7882 32.83C37.8015 31.8716 38.5039 30.6313 38.8045 29.2694C39.1051 27.9075 38.9901 26.4867 38.4743 25.1909C37.9586 23.8951 37.0659 22.7839 35.9117 22.001C34.7575 21.2181 33.3949 20.7996 32.0002 20.7996C30.6056 20.7996 29.243 21.2181 28.0888 22.001C26.9346 22.7839 26.0419 23.8951 25.5261 25.1909C25.0104 26.4867 24.8954 27.9075 25.196 29.2694C25.4966 30.6313 26.199 31.8716 27.2122 32.83C28.7802 34.412 30.2342 37.152 30.2342 45.478" stroke="url(#paint8_linear_446_734)" stroke-width="0.125"/>
</g>
<g filter="url(#filter3_f_446_734)">
<path d="M37.2611 48.303L25.9175 50.0803C25.3336 50.1718 24.9345 50.7193 25.026 51.3031C25.1175 51.8869 25.6649 52.286 26.2487 52.1945L37.5923 50.4172C38.1761 50.3257 38.5753 49.7783 38.4838 49.1944C38.3923 48.6106 37.8449 48.2115 37.2611 48.303Z" fill="#7E6693"/>
</g>
<g filter="url(#filter4_f_446_734)">
<path d="M37.2611 53.0449L25.9175 54.8223C25.3336 54.9138 24.9345 55.4612 25.026 56.045C25.1175 56.6288 25.6649 57.028 26.2487 56.9365L37.5923 55.1591C38.1761 55.0676 38.5753 54.5202 38.4838 53.9364C38.3923 53.3526 37.8449 52.9534 37.2611 53.0449Z" fill="#7E6693"/>
</g>
<path d="M38.7208 52.5207L24.4588 54.7553C23.8576 54.8495 23.4465 55.4133 23.5407 56.0146C23.6349 56.6159 24.1987 57.027 24.8 56.9328L39.062 54.6981C39.6633 54.6039 40.0743 54.0401 39.9801 53.4388C39.8859 52.8375 39.3221 52.4265 38.7208 52.5207Z" fill="url(#paint9_linear_446_734)"/>
<path d="M38.7208 52.5207L24.4588 54.7553C23.8576 54.8495 23.4465 55.4133 23.5407 56.0146C23.6349 56.6159 24.1987 57.027 24.8 56.9328L39.062 54.6981C39.6633 54.6039 40.0743 54.0401 39.9801 53.4388C39.8859 52.8375 39.3221 52.4265 38.7208 52.5207Z" fill="url(#paint10_linear_446_734)"/>
<path d="M38.7208 52.5207L24.4588 54.7553C23.8576 54.8495 23.4465 55.4133 23.5407 56.0146C23.6349 56.6159 24.1987 57.027 24.8 56.9328L39.062 54.6981C39.6633 54.6039 40.0743 54.0401 39.9801 53.4388C39.8859 52.8375 39.3221 52.4265 38.7208 52.5207Z" fill="url(#paint11_linear_446_734)"/>
<path d="M38.7208 52.5207L24.4588 54.7553C23.8576 54.8495 23.4465 55.4133 23.5407 56.0146C23.6349 56.6159 24.1987 57.027 24.8 56.9328L39.062 54.6981C39.6633 54.6039 40.0743 54.0401 39.9801 53.4388C39.8859 52.8375 39.3221 52.4265 38.7208 52.5207Z" fill="url(#paint12_radial_446_734)"/>
<path d="M38.7208 47.7668L24.4588 50.0014C23.8576 50.0956 23.4465 50.6594 23.5407 51.2607C23.6349 51.862 24.1987 52.2731 24.8 52.1788L39.062 49.9442C39.6633 49.85 40.0743 49.2862 39.9801 48.6849C39.8859 48.0836 39.3221 47.6726 38.7208 47.7668Z" fill="url(#paint13_linear_446_734)"/>
<path d="M38.7208 47.7668L24.4588 50.0014C23.8576 50.0956 23.4465 50.6594 23.5407 51.2607C23.6349 51.862 24.1987 52.2731 24.8 52.1788L39.062 49.9442C39.6633 49.85 40.0743 49.2862 39.9801 48.6849C39.8859 48.0836 39.3221 47.6726 38.7208 47.7668Z" fill="url(#paint14_linear_446_734)"/>
<path d="M38.7208 47.7668L24.4588 50.0014C23.8576 50.0956 23.4465 50.6594 23.5407 51.2607C23.6349 51.862 24.1987 52.2731 24.8 52.1788L39.062 49.9442C39.6633 49.85 40.0743 49.2862 39.9801 48.6849C39.8859 48.0836 39.3221 47.6726 38.7208 47.7668Z" fill="url(#paint15_linear_446_734)"/>
<path d="M38.7208 47.7668L24.4588 50.0014C23.8576 50.0956 23.4465 50.6594 23.5407 51.2607C23.6349 51.862 24.1987 52.2731 24.8 52.1788L39.062 49.9442C39.6633 49.85 40.0743 49.2862 39.9801 48.6849C39.8859 48.0836 39.3221 47.6726 38.7208 47.7668Z" fill="url(#paint16_radial_446_734)"/>
<defs>
<filter id="filter0_i_446_734" x="14.5156" y="3.98547" width="34.7168" height="42.0275" filterUnits="userSpaceOnUse" color-interpolation-filters="sRGB">
<feFlood flood-opacity="0" result="BackgroundImageFix"/>
<feBlend mode="normal" in="SourceGraphic" in2="BackgroundImageFix" result="shape"/>
<feColorMatrix in="SourceAlpha" type="matrix" values="0 0 0 0 0 0 0 0 0 0 0 0 0 0 0 0 0 0 127 0" result="hardAlpha"/>
<feOffset dx="0.125" dy="0.075"/>
<feGaussianBlur stdDeviation="0.25"/>
<feComposite in2="hardAlpha" operator="arithmetic" k2="-1" k3="1"/>
<feColorMatrix type="matrix" values="0 0 0 0 0.992157 0 0 0 0 0.666667 0 0 0 0 0.309804 0 0 0 1 0"/>
<feBlend mode="normal" in2="shape" result="effect1_innerShadow_446_734"/>
</filter>
<filter id="filter1_i_446_734" x="23.7686" y="20.0632" width="16.0605" height="25.8688" filterUnits="userSpaceOnUse" color-interpolation-filters="sRGB">
<feFlood flood-opacity="0" result="BackgroundImageFix"/>
<feBlend mode="normal" in="SourceGraphic" in2="BackgroundImageFix" result="shape"/>
<feColorMatrix in="SourceAlpha" type="matrix" values="0 0 0 0 0 0 0 0 0 0 0 0 0 0 0 0 0 0 127 0" result="hardAlpha"/>
<feOffset dx="0.125"/>
<feGaussianBlur stdDeviation="0.125"/>
<feComposite in2="hardAlpha" operator="arithmetic" k2="-1" k3="1"/>
<feColorMatrix type="matrix" values="0 0 0 0 1 0 0 0 0 0.572549 0 0 0 0 0.254902 0 0 0 1 0"/>
<feBlend mode="normal" in2="shape" result="effect1_innerShadow_446_734"/>
</filter>
<filter id="filter2_f_446_734" x="24.8447" y="20.6121" width="14.3105" height="24.991" filterUnits="userSpaceOnUse" color-interpolation-filters="sRGB">
<feFlood flood-opacity="0" result="BackgroundImageFix"/>
<feBlend mode="normal" in="SourceGraphic" in2="BackgroundImageFix" result="shape"/>
<feGaussianBlur stdDeviation="0.0625" result="effect1_foregroundBlur_446_734"/>
</filter>
<filter id="filter3_f_446_734" x="24.8877" y="48.1649" width="13.7344" height="4.16772" filterUnits="userSpaceOnUse" color-interpolation-filters="sRGB">
<feFlood flood-opacity="0" result="BackgroundImageFix"/>
<feBlend mode="normal" in="SourceGraphic" in2="BackgroundImageFix" result="shape"/>
<feGaussianBlur stdDeviation="0.0625" result="effect1_foregroundBlur_446_734"/>
</filter>
<filter id="filter4_f_446_734" x="24.8877" y="52.9069" width="13.7344" height="4.16772" filterUnits="userSpaceOnUse" color-interpolation-filters="sRGB">
<feFlood flood-opacity="0" result="BackgroundImageFix"/>
<feBlend mode="normal" in="SourceGraphic" in2="BackgroundImageFix" result="shape"/>
<feGaussianBlur stdDeviation="0.0625" result="effect1_foregroundBlur_446_734"/>
</filter>
<radialGradient id="paint0_radial_446_734" cx="0" cy="0" r="1" gradientUnits="userSpaceOnUse" gradientTransform="translate(32.6744 58.22) rotate(96.6541) scale(1.88772 4.37228)">
<stop offset="0.268" stop-color="#AC90C6"/>
<stop offset="1" stop-color="#8E6AAA"/>
</radialGradient>
<linearGradient id="paint1_linear_446_734" x1="38.5942" y1="51.604" x2="25.0322" y2="51.604" gradientUnits="userSpaceOnUse">
<stop stop-color="#CDC2D1"/>
<stop offset="1" stop-color="#947C8D"/>
</linearGradient>
<linearGradient id="paint2_linear_446_734" x1="24.3622" y1="52.626" x2="27.6742" y2="52.626" gradientUnits="userSpaceOnUse">
<stop stop-color="#8A7B88"/>
<stop offset="1" stop-color="#8A7B88" stop-opacity="0"/>
</linearGradient>
<radialGradient id="paint3_radial_446_734" cx="0" cy="0" r="1" gradientUnits="userSpaceOnUse" gradientTransform="translate(34.6102 45.28) rotate(88.6357) scale(1.64975 7.34484)">
<stop offset="0.229" stop-color="#EDE2EB"/>
<stop offset="1" stop-color="#C8BCCB" stop-opacity="0"/>
</radialGradient>
<linearGradient id="paint4_linear_446_734" x1="34.9242" y1="57.782" x2="34.9242" y2="55.25" gradientUnits="userSpaceOnUse">
<stop stop-color="#7E5F9E"/>
<stop offset="1" stop-color="#7E5F9E" stop-opacity="0"/>
</linearGradient>
<radialGradient id="paint5_radial_446_734" cx="0" cy="0" r="1" gradientUnits="userSpaceOnUse" gradientTransform="translate(39.1123 16.2521) rotate(138.066) scale(19.8274 16.3495)">
<stop offset="0.286" stop-color="#FFEC87"/>
<stop offset="1" stop-color="#FFCD4B"/>
</radialGradient>
<radialGradient id="paint6_radial_446_734" cx="0" cy="0" r="1" gradientUnits="userSpaceOnUse" gradientTransform="translate(40.9864 26.8759) rotate(-147.604) scale(29.1638 28.0516)">
<stop offset="0.622" stop-color="#FFB239" stop-opacity="0"/>
<stop offset="1" stop-color="#FFB239"/>
</radialGradient>
<linearGradient id="paint7_linear_446_734" x1="32.5966" y1="16.054" x2="39.4406" y2="10.722" gradientUnits="userSpaceOnUse">
<stop stop-color="white" stop-opacity="0"/>
<stop offset="0.594" stop-color="white"/>
</linearGradient>
<linearGradient id="paint8_linear_446_734" x1="39.4402" y1="21.994" x2="31.4282" y2="41.08" gradientUnits="userSpaceOnUse">
<stop stop-color="#FFBF5C"/>
<stop offset="1" stop-color="#FFBF5C" stop-opacity="0"/>
</linearGradient>
<linearGradient id="paint9_linear_446_734" x1="31.3931" y1="53.687" x2="31.9253" y2="56.0633" gradientUnits="userSpaceOnUse">
<stop stop-color="#B1969A"/>
<stop offset="1" stop-color="#DAD2E2"/>
</linearGradient>
<linearGradient id="paint10_linear_446_734" x1="33.6429" y1="55.5006" x2="33.3941" y2="53.9383" gradientUnits="userSpaceOnUse">
<stop stop-color="#8A68A9"/>
<stop offset="1" stop-color="#DEC2E3" stop-opacity="0"/>
</linearGradient>
<linearGradient id="paint11_linear_446_734" x1="23.3694" y1="56.1872" x2="28.8303" y2="55.032" gradientUnits="userSpaceOnUse">
<stop stop-color="#958387"/>
<stop offset="1" stop-color="#958387" stop-opacity="0"/>
</linearGradient>
<radialGradient id="paint12_radial_446_734" cx="0" cy="0" r="1" gradientUnits="userSpaceOnUse" gradientTransform="translate(37.1106 53.5362) rotate(81.4165) scale(1.67503 9.91421)">
<stop offset="0.127" stop-color="#FCF0FC"/>
<stop offset="1" stop-color="#E5C9E3" stop-opacity="0"/>
</radialGradient>
<linearGradient id="paint13_linear_446_734" x1="31.3934" y1="48.9351" x2="31.9253" y2="51.3094" gradientUnits="userSpaceOnUse">
<stop stop-color="#B1969A"/>
<stop offset="1" stop-color="#DAD2E2"/>
</linearGradient>
<linearGradient id="paint14_linear_446_734" x1="33.6429" y1="50.7467" x2="33.3941" y2="49.1844" gradientUnits="userSpaceOnUse">
<stop stop-color="#8A68A9"/>
<stop offset="1" stop-color="#DEC2E3" stop-opacity="0"/>
</linearGradient>
<linearGradient id="paint15_linear_446_734" x1="23.3697" y1="51.4353" x2="28.8303" y2="50.278" gradientUnits="userSpaceOnUse">
<stop stop-color="#958387"/>
<stop offset="1" stop-color="#958387" stop-opacity="0"/>
</linearGradient>
<radialGradient id="paint16_radial_446_734" cx="0" cy="0" r="1" gradientUnits="userSpaceOnUse" gradientTransform="translate(37.1106 48.7823) rotate(81.4165) scale(1.67503 9.91417)">
<stop offset="0.127" stop-color="#FCF0FC"/>
<stop offset="1" stop-color="#E5C9E3" stop-opacity="0"/>
</radialGradient>
</defs>
</svg>
