<svg width="32" height="32" viewBox="0 0 32 32" fill="none" xmlns="http://www.w3.org/2000/svg">
<path d="M24.1833 13.6308C24.3643 13.638 24.5354 13.7148 24.6609 13.8451C24.7864 13.9753 24.8565 14.149 24.8565 14.3296C24.8565 14.5103 24.7864 14.684 24.6609 14.8142C24.5354 14.9445 24.3643 15.0213 24.1833 15.0285H22.2333V16.2754H24.1833C24.2775 16.2716 24.3715 16.2869 24.4596 16.3203C24.5477 16.3537 24.6282 16.4045 24.6962 16.4696C24.7642 16.5348 24.8182 16.6129 24.8552 16.6995C24.8921 16.786 24.9112 16.8791 24.9112 16.9731C24.9112 17.0671 24.8921 17.1602 24.8552 17.2467C24.8182 17.3332 24.7642 17.4114 24.6962 17.4766C24.6282 17.5417 24.5477 17.5925 24.4596 17.6259C24.3715 17.6593 24.2775 17.6746 24.1833 17.6708H21.5322C21.3473 17.6699 21.1703 17.5961 21.0397 17.4655C20.9092 17.3349 20.8358 17.1581 20.8355 16.9736V11.6856C20.8355 11.3033 21.1488 10.9874 21.5355 10.9874H24.1866C24.3723 10.9878 24.5501 11.0618 24.6811 11.1931C24.8121 11.3243 24.8854 11.5021 24.885 11.6873C24.8845 11.8725 24.8103 12.0499 24.6788 12.1806C24.5472 12.3112 24.3689 12.3844 24.1833 12.3839H22.2333V13.6308H24.1833ZM19.9 16.9736C19.8991 17.1585 19.8248 17.3354 19.6934 17.4656C19.5619 17.5959 19.3841 17.6689 19.1988 17.6686C19.0891 17.6708 18.9804 17.6468 18.8818 17.5986C18.7833 17.5504 18.6977 17.4794 18.6322 17.3915L15.9177 13.7151V16.9736C15.9055 17.1501 15.8266 17.3153 15.697 17.436C15.5674 17.5567 15.3967 17.6238 15.2194 17.6238C15.0421 17.6238 14.8714 17.5567 14.7418 17.436C14.6122 17.3153 14.5333 17.1501 14.5211 16.9736V11.6856C14.5208 11.5017 14.5936 11.3252 14.7235 11.1947C14.8535 11.0642 15.03 10.9905 15.2144 10.9896C15.4311 10.9896 15.6311 11.1049 15.7644 11.2711L18.5 14.962V11.6856C18.5 11.3033 18.8133 10.9874 19.2 10.9874C19.5833 10.9874 19.9 11.3033 19.9 11.6856V16.9736ZM13.5211 16.9736C13.5209 17.0653 13.5027 17.1561 13.4674 17.2408C13.432 17.3254 13.3804 17.4023 13.3153 17.4671C13.2502 17.5318 13.1729 17.5831 13.0879 17.6181C13.0029 17.653 12.9119 17.671 12.82 17.6708C12.6351 17.6699 12.4581 17.5961 12.3275 17.4655C12.197 17.3349 12.1236 17.1581 12.1233 16.9736V11.6856C12.1233 11.3033 12.4366 10.9874 12.8233 10.9874C13.2077 10.9874 13.5211 11.3033 13.5211 11.6856V16.9736ZM10.7811 17.6708H8.12996C7.94486 17.6697 7.76765 17.5959 7.63666 17.4654C7.50567 17.3349 7.43142 17.1583 7.42996 16.9736V11.6856C7.42996 11.3033 7.74663 10.9874 8.12996 10.9874C8.51663 10.9874 8.82996 11.3033 8.82996 11.6856V16.2754H10.7811C10.9618 16.2826 11.1326 16.3592 11.2579 16.4893C11.3832 16.6193 11.4532 16.7927 11.4532 16.9731C11.4532 17.1535 11.3832 17.3269 11.2579 17.4569C11.1326 17.587 10.9618 17.6636 10.7811 17.6708ZM29.3333 14.1307C29.3333 8.17767 23.35 3.33301 16 3.33301C8.64996 3.33301 2.66663 8.17767 2.66663 14.1307C2.66663 19.463 7.41107 23.9309 13.8166 24.7799C14.2511 24.8707 14.8422 25.0658 14.9922 25.4338C15.1255 25.7674 15.08 26.2828 15.0344 26.6308L14.8522 27.7614C14.8022 28.095 14.5855 29.0759 16.0177 28.4763C17.4522 27.8788 23.7022 23.9563 26.5022 20.7454C28.4177 18.6517 29.3333 16.507 29.3333 14.1307Z" fill="#AA402A"/>
</svg>
