<svg width="100" height="100" viewBox="0 0 100 100" fill="none" id="svg2116456696_2843">
<path d="M27.0835 41.6667C26.1543 41.6667 25.2626 41.8084 24.3751 41.9376C24.6626 40.9709 24.9585 39.9876 25.4335 39.1042C25.9085 37.8209 26.6501 36.7084 27.3876 35.5876C28.0043 34.3751 29.0918 33.5542 29.8918 32.5167C30.7293 31.5084 31.871 30.8376 32.7751 30.0001C33.6626 29.1251 34.8251 28.6876 35.7501 28.0709C36.7168 27.5167 37.5584 26.9042 38.4584 26.6126L40.7043 25.6876L42.6793 24.8667L40.6585 16.7917L38.171 17.3917C37.3751 17.5917 36.4043 17.8251 35.3001 18.1042C34.1709 18.3126 32.9668 18.8834 31.6251 19.4042C30.3001 19.9959 28.7668 20.3959 27.3418 21.3459C25.9084 22.2542 24.2543 23.0126 22.7959 24.2292C21.3835 25.4834 19.6793 26.5709 18.4209 28.1667C17.0459 29.6584 15.6876 31.2251 14.6335 33.0084C13.4126 34.7084 12.5834 36.5751 11.7084 38.4209C10.9168 40.2667 10.2793 42.1542 9.75845 43.9876C8.77095 47.6626 8.32928 51.1543 8.15845 54.1418C8.01678 57.1334 8.10012 59.6209 8.27512 61.4209C8.33762 62.2709 8.45428 63.0959 8.53762 63.6668L8.64178 64.3667L8.75012 64.3418C9.4912 67.8035 11.1972 70.9848 13.6708 73.5175C16.1444 76.0502 19.2845 77.8309 22.7278 78.6535C26.1711 79.4762 29.777 79.3072 33.1283 78.1661C36.4795 77.025 39.4393 74.9584 41.6651 72.2054C43.891 69.4525 45.292 66.1256 45.706 62.6096C46.1201 59.0937 45.5303 55.5324 44.0048 52.3377C42.4794 49.1429 40.0807 46.4454 37.0862 44.557C34.0916 42.6686 30.6237 41.6665 27.0835 41.6667ZM72.9168 41.6667C71.9876 41.6667 71.0959 41.8084 70.2084 41.9376C70.4959 40.9709 70.7918 39.9876 71.2668 39.1042C71.7418 37.8209 72.4834 36.7084 73.2209 35.5876C73.8376 34.3751 74.9251 33.5542 75.7251 32.5167C76.5626 31.5084 77.7043 30.8376 78.6084 30.0001C79.4959 29.1251 80.6584 28.6876 81.5834 28.0709C82.5501 27.5167 83.3918 26.9042 84.2918 26.6126L86.5376 25.6876L88.5126 24.8667L86.4918 16.7917L84.0043 17.3917C83.2084 17.5917 82.2376 17.8251 81.1334 18.1042C80.0043 18.3126 78.8001 18.8834 77.4585 19.4042C76.1376 20.0001 74.6001 20.3959 73.1751 21.3501C71.7418 22.2584 70.0876 23.0167 68.6293 24.2334C67.2168 25.4876 65.5126 26.5751 64.2543 28.1667C62.8793 29.6584 61.5209 31.2251 60.4668 33.0084C59.2459 34.7084 58.4168 36.5751 57.5418 38.4209C56.7501 40.2667 56.1126 42.1542 55.5918 43.9876C54.6043 47.6626 54.1626 51.1543 53.9918 54.1418C53.8501 57.1334 53.9334 59.6209 54.1084 61.4209C54.1709 62.2709 54.2876 63.0959 54.3709 63.6668L54.4751 64.3667L54.5835 64.3418C55.3245 67.8035 57.0305 70.9848 59.5041 73.5175C61.9777 76.0502 65.1178 77.8309 68.5611 78.6535C72.0044 79.4762 75.6103 79.3072 78.9616 78.1661C82.3129 77.025 85.2726 74.9584 87.4985 72.2054C89.7243 69.4525 91.1253 66.1256 91.5394 62.6096C91.9534 59.0937 91.3636 55.5324 89.8382 52.3377C88.3127 49.1429 85.914 46.4454 82.9195 44.557C79.925 42.6686 76.457 41.6665 72.9168 41.6667Z" fill="#F6F6F6"></path>
</svg>