<svg width="64" height="64" viewBox="0 0 64 64" fill="none" xmlns="http://www.w3.org/2000/svg">
<g filter="url(#filter0_i_447_766)">
<path d="M58.7478 50.0801H5.24781C4.56781 50.0801 4.00781 49.5201 4.00781 48.8401V9.3401C4.00781 8.6601 4.56781 8.1001 5.24781 8.1001H58.7278C59.4278 8.1001 59.9678 8.6601 59.9678 9.3401V48.8201C59.9732 48.9836 59.9456 49.1466 59.8867 49.2993C59.8278 49.4519 59.7388 49.5912 59.6249 49.7087C59.5111 49.8263 59.3748 49.9198 59.2241 49.9836C59.0734 50.0474 58.9114 50.0802 58.7478 50.0801Z" fill="url(#paint0_linear_447_766)"/>
</g>
<path d="M6.00781 48.0801V10.1001H57.9878V48.0801H6.00781Z" fill="url(#paint1_linear_447_766)"/>
<path d="M6.00781 48.0801V10.1001H57.9878V48.0801H6.00781Z" fill="url(#paint2_radial_447_766)"/>
<path d="M6.00781 48.0801V10.1001H57.9878V48.0801H6.00781Z" fill="url(#paint3_radial_447_766)"/>
<g filter="url(#filter1_f_447_766)">
<path d="M6.43848 8.88818H58.8605C58.9135 8.88818 58.9644 8.90926 59.0019 8.94676C59.0394 8.98427 59.0605 9.03514 59.0605 9.08818V48.2562" stroke="url(#paint4_linear_447_766)" stroke-width="0.6" stroke-linecap="round"/>
</g>
<g filter="url(#filter2_i_447_766)">
<path d="M57.9878 48.08H6.00781V10.1L4.16781 8.73999C4.06781 8.91999 4.00781 9.13999 4.00781 9.33999V48.82C4.00781 49.52 4.56781 50.06 5.24781 50.06H58.7278C59.2078 50.06 59.6078 49.8 59.8278 49.4L57.9878 48.08Z" fill="url(#paint5_linear_447_766)"/>
<path d="M57.9878 48.08H6.00781V10.1L4.16781 8.73999C4.06781 8.91999 4.00781 9.13999 4.00781 9.33999V48.82C4.00781 49.52 4.56781 50.06 5.24781 50.06H58.7278C59.2078 50.06 59.6078 49.8 59.8278 49.4L57.9878 48.08Z" fill="url(#paint6_linear_447_766)"/>
<path d="M57.9878 48.08H6.00781V10.1L4.16781 8.73999C4.06781 8.91999 4.00781 9.13999 4.00781 9.33999V48.82C4.00781 49.52 4.56781 50.06 5.24781 50.06H58.7278C59.2078 50.06 59.6078 49.8 59.8278 49.4L57.9878 48.08Z" fill="url(#paint7_radial_447_766)"/>
</g>
<path d="M32.0078 31.1001C19.8678 31.1001 10.0078 40.9401 10.0078 53.1001V60.1001H53.9878V53.1001C53.9878 40.9401 44.1478 31.1001 32.0078 31.1001Z" fill="url(#paint8_radial_447_766)"/>
<path d="M32.0078 31.1001C19.8678 31.1001 10.0078 40.9401 10.0078 53.1001V60.1001H53.9878V53.1001C53.9878 40.9401 44.1478 31.1001 32.0078 31.1001Z" fill="url(#paint9_radial_447_766)"/>
<path d="M32.0078 31.1001C19.8678 31.1001 10.0078 40.9401 10.0078 53.1001V60.1001H53.9878V53.1001C53.9878 40.9401 44.1478 31.1001 32.0078 31.1001Z" fill="url(#paint10_radial_447_766)"/>
<path d="M45.3477 60.1001V35.6121C48.0377 37.6644 50.2172 40.3106 51.7159 43.3441C53.2146 46.3777 53.9921 49.7165 53.9877 53.1001V60.1001H45.3477Z" fill="url(#paint11_radial_447_766)"/>
<path d="M45.3477 60.1001V35.6121C48.0377 37.6644 50.2172 40.3106 51.7159 43.3441C53.2146 46.3777 53.9921 49.7165 53.9877 53.1001V60.1001H45.3477Z" fill="url(#paint12_linear_447_766)"/>
<path d="M45.3477 60.1001V35.6121C48.0377 37.6644 50.2172 40.3106 51.7159 43.3441C53.2146 46.3777 53.9921 49.7165 53.9877 53.1001V60.1001H45.3477Z" fill="url(#paint13_linear_447_766)"/>
<path d="M18.5892 60.1003V35.6123C15.8992 37.6646 13.7197 40.3108 12.221 43.3444C10.7223 46.3779 9.94478 49.7167 9.94924 53.1003V60.1003H18.5892Z" fill="url(#paint14_linear_447_766)"/>
<path d="M18.5892 60.1003V35.6123C15.8992 37.6646 13.7197 40.3108 12.221 43.3444C10.7223 46.3779 9.94478 49.7167 9.94924 53.1003V60.1003H18.5892Z" fill="url(#paint15_radial_447_766)"/>
<path d="M36.1067 33.7402H27.8867V60.1002H36.1067V33.7402Z" fill="url(#paint16_radial_447_766)"/>
<g filter="url(#filter3_i_447_766)">
<path d="M38.6894 32.2207L41.4094 38.0787C41.5894 38.4587 41.3094 38.8987 40.8894 38.8987L38.9634 38.3667C38.1194 38.1567 38.0894 38.9207 38.4094 39.2407L41.1294 42.3607C41.6494 42.8807 41.8494 43.6607 41.5894 44.3607L36.1094 60.1007V32.2207H38.6894Z" fill="url(#paint17_linear_447_766)"/>
<path d="M38.6894 32.2207L41.4094 38.0787C41.5894 38.4587 41.3094 38.8987 40.8894 38.8987L38.9634 38.3667C38.1194 38.1567 38.0894 38.9207 38.4094 39.2407L41.1294 42.3607C41.6494 42.8807 41.8494 43.6607 41.5894 44.3607L36.1094 60.1007V32.2207H38.6894Z" fill="url(#paint18_radial_447_766)"/>
<path d="M38.6894 32.2207L41.4094 38.0787C41.5894 38.4587 41.3094 38.8987 40.8894 38.8987L38.9634 38.3667C38.1194 38.1567 38.0894 38.9207 38.4094 39.2407L41.1294 42.3607C41.6494 42.8807 41.8494 43.6607 41.5894 44.3607L36.1094 60.1007V32.2207H38.6894Z" fill="url(#paint19_radial_447_766)"/>
<path d="M38.6894 32.2207L41.4094 38.0787C41.5894 38.4587 41.3094 38.8987 40.8894 38.8987L38.9634 38.3667C38.1194 38.1567 38.0894 38.9207 38.4094 39.2407L41.1294 42.3607C41.6494 42.8807 41.8494 43.6607 41.5894 44.3607L36.1094 60.1007V32.2207H38.6894Z" fill="url(#paint20_radial_447_766)"/>
</g>
<g filter="url(#filter4_i_447_766)">
<path d="M25.3066 32.2207L22.5866 38.0787C22.4066 38.4587 22.6866 38.8987 23.1066 38.8987L25.0346 38.3667C25.8786 38.1567 25.9066 38.9207 25.5866 39.2407L22.8666 42.3607C22.3466 42.8807 22.1466 43.6607 22.4066 44.3607L27.8866 60.1007V32.2207H25.3066Z" fill="url(#paint21_linear_447_766)"/>
<path d="M25.3066 32.2207L22.5866 38.0787C22.4066 38.4587 22.6866 38.8987 23.1066 38.8987L25.0346 38.3667C25.8786 38.1567 25.9066 38.9207 25.5866 39.2407L22.8666 42.3607C22.3466 42.8807 22.1466 43.6607 22.4066 44.3607L27.8866 60.1007V32.2207H25.3066Z" fill="url(#paint22_radial_447_766)"/>
<path d="M25.3066 32.2207L22.5866 38.0787C22.4066 38.4587 22.6866 38.8987 23.1066 38.8987L25.0346 38.3667C25.8786 38.1567 25.9066 38.9207 25.5866 39.2407L22.8666 42.3607C22.3466 42.8807 22.1466 43.6607 22.4066 44.3607L27.8866 60.1007V32.2207H25.3066Z" fill="url(#paint23_linear_447_766)"/>
<path d="M25.3066 32.2207L22.5866 38.0787C22.4066 38.4587 22.6866 38.8987 23.1066 38.8987L25.0346 38.3667C25.8786 38.1567 25.9066 38.9207 25.5866 39.2407L22.8666 42.3607C22.3466 42.8807 22.1466 43.6607 22.4066 44.3607L27.8866 60.1007V32.2207H25.3066Z" fill="url(#paint24_radial_447_766)"/>
</g>
<path d="M32.0067 37.4401C29.7267 37.4401 27.8867 35.6001 27.8867 33.3201V28.2001C27.8867 25.9201 29.7267 24.0801 32.0067 24.0801C34.2867 24.0801 36.1267 25.9201 36.1267 28.2001V33.3201C36.1215 34.4111 35.6857 35.456 34.9142 36.2275C34.1427 36.9991 33.0978 37.4348 32.0067 37.4401Z" fill="url(#paint25_radial_447_766)"/>
<g filter="url(#filter5_i_447_766)">
<path d="M44.0977 46.3164C45.1977 46.3164 46.0977 47.2164 46.0977 48.3164V52.8964H42.0977V48.3164C42.0977 47.2164 42.9777 46.3164 44.0977 46.3164Z" fill="url(#paint26_radial_447_766)"/>
<path d="M44.0977 46.3164C45.1977 46.3164 46.0977 47.2164 46.0977 48.3164V52.8964H42.0977V48.3164C42.0977 47.2164 42.9777 46.3164 44.0977 46.3164Z" fill="url(#paint27_radial_447_766)"/>
</g>
<g filter="url(#filter6_i_447_766)">
<path d="M19.8984 46.3008C18.7984 46.3008 17.8984 47.2008 17.8984 48.3008V52.8808H21.8984V48.3008C21.8984 47.2008 21.0184 46.3008 19.8984 46.3008Z" fill="url(#paint28_radial_447_766)"/>
</g>
<path d="M20.6279 43.86V60.1H43.3079V41.72C43.3079 40.82 42.5879 40.1 41.6879 40.1H24.4079C22.3079 40.08 20.6279 41.78 20.6279 43.86Z" fill="url(#paint29_linear_447_766)"/>
<path fill-rule="evenodd" clip-rule="evenodd" d="M24.8159 60.1001V43.2881H20.6279V60.1001H24.8159Z" fill="#513358"/>
<path fill-rule="evenodd" clip-rule="evenodd" d="M24.8159 60.1001V43.2881H20.6279V60.1001H24.8159Z" fill="url(#paint30_linear_447_766)"/>
<g filter="url(#filter7_i_447_766)">
<path d="M26.6883 50.8398C26.6992 51.0942 26.6501 51.3475 26.5448 51.5793C26.4395 51.811 26.2811 52.0147 26.0823 52.1738C26.274 52.3257 26.4283 52.5196 26.5333 52.7404C26.6384 52.9613 26.6914 53.2033 26.6883 53.4478C26.6958 53.6928 26.6447 53.936 26.5393 54.1572C26.4339 54.3784 26.2773 54.5713 26.0823 54.7198C26.274 54.8717 26.4283 55.0656 26.5333 55.2864C26.6384 55.5073 26.6914 55.7493 26.6883 55.9938C26.6958 56.2388 26.6447 56.482 26.5393 56.7032C26.4339 56.9244 26.2773 57.1173 26.0823 57.2658C26.4563 57.5538 26.6883 58.0458 26.6883 58.6018C26.6683 59.4418 26.0483 60.1018 25.3183 60.1018H19.4483C18.5963 60.1018 17.9023 59.2998 17.9023 58.3138V51.1058C17.9023 50.1198 18.5963 49.3198 19.4483 49.3198H25.1323C26.0823 49.3198 26.6723 50.0998 26.6883 50.8398Z" fill="url(#paint31_linear_447_766)"/>
<path d="M26.6883 50.8398C26.6992 51.0942 26.6501 51.3475 26.5448 51.5793C26.4395 51.811 26.2811 52.0147 26.0823 52.1738C26.274 52.3257 26.4283 52.5196 26.5333 52.7404C26.6384 52.9613 26.6914 53.2033 26.6883 53.4478C26.6958 53.6928 26.6447 53.936 26.5393 54.1572C26.4339 54.3784 26.2773 54.5713 26.0823 54.7198C26.274 54.8717 26.4283 55.0656 26.5333 55.2864C26.6384 55.5073 26.6914 55.7493 26.6883 55.9938C26.6958 56.2388 26.6447 56.482 26.5393 56.7032C26.4339 56.9244 26.2773 57.1173 26.0823 57.2658C26.4563 57.5538 26.6883 58.0458 26.6883 58.6018C26.6683 59.4418 26.0483 60.1018 25.3183 60.1018H19.4483C18.5963 60.1018 17.9023 59.2998 17.9023 58.3138V51.1058C17.9023 50.1198 18.5963 49.3198 19.4483 49.3198H25.1323C26.0823 49.3198 26.6723 50.0998 26.6883 50.8398Z" fill="url(#paint32_radial_447_766)"/>
<path d="M26.6883 50.8398C26.6992 51.0942 26.6501 51.3475 26.5448 51.5793C26.4395 51.811 26.2811 52.0147 26.0823 52.1738C26.274 52.3257 26.4283 52.5196 26.5333 52.7404C26.6384 52.9613 26.6914 53.2033 26.6883 53.4478C26.6958 53.6928 26.6447 53.936 26.5393 54.1572C26.4339 54.3784 26.2773 54.5713 26.0823 54.7198C26.274 54.8717 26.4283 55.0656 26.5333 55.2864C26.6384 55.5073 26.6914 55.7493 26.6883 55.9938C26.6958 56.2388 26.6447 56.482 26.5393 56.7032C26.4339 56.9244 26.2773 57.1173 26.0823 57.2658C26.4563 57.5538 26.6883 58.0458 26.6883 58.6018C26.6683 59.4418 26.0483 60.1018 25.3183 60.1018H19.4483C18.5963 60.1018 17.9023 59.2998 17.9023 58.3138V51.1058C17.9023 50.1198 18.5963 49.3198 19.4483 49.3198H25.1323C26.0823 49.3198 26.6723 50.0998 26.6883 50.8398Z" fill="url(#paint33_radial_447_766)"/>
<path d="M26.6883 50.8398C26.6992 51.0942 26.6501 51.3475 26.5448 51.5793C26.4395 51.811 26.2811 52.0147 26.0823 52.1738C26.274 52.3257 26.4283 52.5196 26.5333 52.7404C26.6384 52.9613 26.6914 53.2033 26.6883 53.4478C26.6958 53.6928 26.6447 53.936 26.5393 54.1572C26.4339 54.3784 26.2773 54.5713 26.0823 54.7198C26.274 54.8717 26.4283 55.0656 26.5333 55.2864C26.6384 55.5073 26.6914 55.7493 26.6883 55.9938C26.6958 56.2388 26.6447 56.482 26.5393 56.7032C26.4339 56.9244 26.2773 57.1173 26.0823 57.2658C26.4563 57.5538 26.6883 58.0458 26.6883 58.6018C26.6683 59.4418 26.0483 60.1018 25.3183 60.1018H19.4483C18.5963 60.1018 17.9023 59.2998 17.9023 58.3138V51.1058C17.9023 50.1198 18.5963 49.3198 19.4483 49.3198H25.1323C26.0823 49.3198 26.6723 50.0998 26.6883 50.8398Z" fill="url(#paint34_radial_447_766)"/>
<path d="M26.6883 50.8398C26.6992 51.0942 26.6501 51.3475 26.5448 51.5793C26.4395 51.811 26.2811 52.0147 26.0823 52.1738C26.274 52.3257 26.4283 52.5196 26.5333 52.7404C26.6384 52.9613 26.6914 53.2033 26.6883 53.4478C26.6958 53.6928 26.6447 53.936 26.5393 54.1572C26.4339 54.3784 26.2773 54.5713 26.0823 54.7198C26.274 54.8717 26.4283 55.0656 26.5333 55.2864C26.6384 55.5073 26.6914 55.7493 26.6883 55.9938C26.6958 56.2388 26.6447 56.482 26.5393 56.7032C26.4339 56.9244 26.2773 57.1173 26.0823 57.2658C26.4563 57.5538 26.6883 58.0458 26.6883 58.6018C26.6683 59.4418 26.0483 60.1018 25.3183 60.1018H19.4483C18.5963 60.1018 17.9023 59.2998 17.9023 58.3138V51.1058C17.9023 50.1198 18.5963 49.3198 19.4483 49.3198H25.1323C26.0823 49.3198 26.6723 50.0998 26.6883 50.8398Z" fill="url(#paint35_radial_447_766)"/>
</g>
<g filter="url(#filter8_ii_447_766)">
<path d="M37.3101 50.8401C37.299 51.0942 37.3479 51.3474 37.4528 51.5792C37.5577 51.811 37.7158 52.0148 37.9141 52.1741C37.7229 52.3262 37.569 52.5201 37.4643 52.741C37.3595 52.9618 37.3068 53.2037 37.3101 53.4481C37.3101 53.9821 37.5401 54.4541 37.9141 54.7201C37.7229 54.8722 37.569 55.0661 37.4643 55.287C37.3595 55.5078 37.3068 55.7497 37.3101 55.9941C37.3101 56.5281 37.5401 57.0001 37.9141 57.2661C37.719 57.4286 37.5633 57.6333 37.4587 57.8647C37.3541 58.0961 37.3033 58.3482 37.3101 58.6021C37.3281 59.4421 37.9501 60.1021 38.6781 60.1021H44.5481C45.4021 60.1021 46.0961 59.3001 46.0961 58.3141V51.1061C46.0961 50.1201 45.4021 49.3201 44.5481 49.3201H38.8641C37.9141 49.3201 37.3241 50.1001 37.3101 50.8401Z" fill="url(#paint36_linear_447_766)"/>
<path d="M37.3101 50.8401C37.299 51.0942 37.3479 51.3474 37.4528 51.5792C37.5577 51.811 37.7158 52.0148 37.9141 52.1741C37.7229 52.3262 37.569 52.5201 37.4643 52.741C37.3595 52.9618 37.3068 53.2037 37.3101 53.4481C37.3101 53.9821 37.5401 54.4541 37.9141 54.7201C37.7229 54.8722 37.569 55.0661 37.4643 55.287C37.3595 55.5078 37.3068 55.7497 37.3101 55.9941C37.3101 56.5281 37.5401 57.0001 37.9141 57.2661C37.719 57.4286 37.5633 57.6333 37.4587 57.8647C37.3541 58.0961 37.3033 58.3482 37.3101 58.6021C37.3281 59.4421 37.9501 60.1021 38.6781 60.1021H44.5481C45.4021 60.1021 46.0961 59.3001 46.0961 58.3141V51.1061C46.0961 50.1201 45.4021 49.3201 44.5481 49.3201H38.8641C37.9141 49.3201 37.3241 50.1001 37.3101 50.8401Z" fill="url(#paint37_radial_447_766)"/>
<path d="M37.3101 50.8401C37.299 51.0942 37.3479 51.3474 37.4528 51.5792C37.5577 51.811 37.7158 52.0148 37.9141 52.1741C37.7229 52.3262 37.569 52.5201 37.4643 52.741C37.3595 52.9618 37.3068 53.2037 37.3101 53.4481C37.3101 53.9821 37.5401 54.4541 37.9141 54.7201C37.7229 54.8722 37.569 55.0661 37.4643 55.287C37.3595 55.5078 37.3068 55.7497 37.3101 55.9941C37.3101 56.5281 37.5401 57.0001 37.9141 57.2661C37.719 57.4286 37.5633 57.6333 37.4587 57.8647C37.3541 58.0961 37.3033 58.3482 37.3101 58.6021C37.3281 59.4421 37.9501 60.1021 38.6781 60.1021H44.5481C45.4021 60.1021 46.0961 59.3001 46.0961 58.3141V51.1061C46.0961 50.1201 45.4021 49.3201 44.5481 49.3201H38.8641C37.9141 49.3201 37.3241 50.1001 37.3101 50.8401Z" fill="url(#paint38_radial_447_766)"/>
<path d="M37.3101 50.8401C37.299 51.0942 37.3479 51.3474 37.4528 51.5792C37.5577 51.811 37.7158 52.0148 37.9141 52.1741C37.7229 52.3262 37.569 52.5201 37.4643 52.741C37.3595 52.9618 37.3068 53.2037 37.3101 53.4481C37.3101 53.9821 37.5401 54.4541 37.9141 54.7201C37.7229 54.8722 37.569 55.0661 37.4643 55.287C37.3595 55.5078 37.3068 55.7497 37.3101 55.9941C37.3101 56.5281 37.5401 57.0001 37.9141 57.2661C37.719 57.4286 37.5633 57.6333 37.4587 57.8647C37.3541 58.0961 37.3033 58.3482 37.3101 58.6021C37.3281 59.4421 37.9501 60.1021 38.6781 60.1021H44.5481C45.4021 60.1021 46.0961 59.3001 46.0961 58.3141V51.1061C46.0961 50.1201 45.4021 49.3201 44.5481 49.3201H38.8641C37.9141 49.3201 37.3241 50.1001 37.3101 50.8401Z" fill="url(#paint39_radial_447_766)"/>
<path d="M37.3101 50.8401C37.299 51.0942 37.3479 51.3474 37.4528 51.5792C37.5577 51.811 37.7158 52.0148 37.9141 52.1741C37.7229 52.3262 37.569 52.5201 37.4643 52.741C37.3595 52.9618 37.3068 53.2037 37.3101 53.4481C37.3101 53.9821 37.5401 54.4541 37.9141 54.7201C37.7229 54.8722 37.569 55.0661 37.4643 55.287C37.3595 55.5078 37.3068 55.7497 37.3101 55.9941C37.3101 56.5281 37.5401 57.0001 37.9141 57.2661C37.719 57.4286 37.5633 57.6333 37.4587 57.8647C37.3541 58.0961 37.3033 58.3482 37.3101 58.6021C37.3281 59.4421 37.9501 60.1021 38.6781 60.1021H44.5481C45.4021 60.1021 46.0961 59.3001 46.0961 58.3141V51.1061C46.0961 50.1201 45.4021 49.3201 44.5481 49.3201H38.8641C37.9141 49.3201 37.3241 50.1001 37.3101 50.8401Z" fill="url(#paint40_radial_447_766)"/>
</g>
<path d="M43.3079 46.0701V41.4981C43.3079 40.7221 42.5879 40.1001 41.6879 40.1001H24.3719C22.2879 40.1001 20.6279 41.5601 20.6279 43.3441C20.6279 44.8501 21.8479 46.0701 23.3539 46.0701H43.3079Z" fill="url(#paint41_linear_447_766)"/>
<path d="M22.293 43.0863C22.293 42.3183 22.917 41.6943 23.685 41.6943H43.307V44.4743H23.685C23.5024 44.4746 23.3216 44.4389 23.1529 44.3693C22.9841 44.2997 22.8308 44.1975 22.7015 44.0686C22.5722 43.9397 22.4696 43.7867 22.3995 43.6181C22.3294 43.4496 22.2932 43.2689 22.293 43.0863Z" fill="url(#paint42_linear_447_766)"/>
<g filter="url(#filter9_f_447_766)">
<path d="M38.0459 52.1799H41.8899" stroke="url(#paint43_linear_447_766)" stroke-width="0.2" stroke-linecap="round"/>
</g>
<g filter="url(#filter10_f_447_766)">
<path d="M25.8654 52.1807H22.0234" stroke="url(#paint44_linear_447_766)" stroke-width="0.2" stroke-linecap="round"/>
</g>
<g filter="url(#filter11_f_447_766)">
<path d="M38.0459 54.71H41.8899" stroke="url(#paint45_linear_447_766)" stroke-width="0.2" stroke-linecap="round"/>
</g>
<g filter="url(#filter12_f_447_766)">
<path d="M25.8654 54.71H22.0234" stroke="url(#paint46_linear_447_766)" stroke-width="0.2" stroke-linecap="round"/>
</g>
<g filter="url(#filter13_f_447_766)">
<path d="M38.0459 57.24H41.8899" stroke="url(#paint47_linear_447_766)" stroke-width="0.2" stroke-linecap="round"/>
</g>
<g filter="url(#filter14_f_447_766)">
<path d="M25.8654 57.2402H22.0234" stroke="url(#paint48_linear_447_766)" stroke-width="0.2" stroke-linecap="round"/>
</g>
<path d="M41.8817 24.5545C42.5537 24.5345 43.1817 24.3065 43.6917 23.9385V25.7985C43.6917 27.5865 42.6277 29.1785 41.0117 29.8385C41.3544 29.1105 41.5844 28.3238 41.7017 27.4785L41.8817 24.5545Z" fill="url(#paint49_radial_447_766)"/>
<path d="M22.435 24.5545C21.7839 24.5334 21.1538 24.319 20.625 23.9385V25.7985C20.625 27.5865 21.689 29.1785 23.307 29.8385C22.959 29.0911 22.7257 28.2955 22.615 27.4785L22.435 24.5545Z" fill="url(#paint50_radial_447_766)"/>
<path d="M22.435 24.5545C21.7839 24.5334 21.1538 24.319 20.625 23.9385V25.7985C20.625 27.5865 21.689 29.1785 23.307 29.8385C22.959 29.0911 22.7257 28.2955 22.615 27.4785L22.435 24.5545Z" fill="url(#paint51_radial_447_766)"/>
<path d="M22.435 24.5545C21.7839 24.5334 21.1538 24.319 20.625 23.9385V25.7985C20.625 27.5865 21.689 29.1785 23.307 29.8385C22.959 29.0911 22.7257 28.2955 22.615 27.4785L22.435 24.5545Z" fill="url(#paint52_radial_447_766)"/>
<path d="M22.435 24.5545C21.7839 24.5334 21.1538 24.319 20.625 23.9385V25.7985C20.625 27.5865 21.689 29.1785 23.307 29.8385C22.959 29.0911 22.7257 28.2955 22.615 27.4785L22.435 24.5545Z" fill="url(#paint53_radial_447_766)"/>
<g filter="url(#filter15_ii_447_766)">
<path d="M22.5082 27.5839C22.7559 29.4694 23.6811 31.2003 25.1112 32.4538C26.5413 33.7072 28.3786 34.3975 30.2802 34.3959H34.0542C35.9555 34.3971 37.7923 33.7065 39.222 32.4531C40.6517 31.1997 41.5766 29.469 41.8242 27.5839C42.0602 23.8179 42.2982 20.0639 42.4722 16.2999C42.4639 15.561 42.1739 14.8531 41.6613 14.3209C41.1487 13.7886 40.4523 13.4721 39.7142 13.4359H36.9142C35.9768 13.4347 35.06 13.1614 34.275 12.6491C33.49 12.1368 32.8707 11.4075 32.4922 10.5499C32.3951 10.3024 32.2256 10.09 32.0058 9.94047C31.7859 9.79094 31.5261 9.71128 31.2602 9.71192H28.7142C25.0242 9.71192 22.0322 12.7379 22.0322 16.4719C22.0322 20.1919 22.2642 23.8519 22.5082 27.5839Z" fill="url(#paint54_radial_447_766)"/>
</g>
<path d="M22.5082 27.5839C22.7559 29.4694 23.6811 31.2003 25.1112 32.4538C26.5413 33.7072 28.3786 34.3975 30.2802 34.3959H34.0542C35.9555 34.3971 37.7923 33.7065 39.222 32.4531C40.6517 31.1997 41.5766 29.469 41.8242 27.5839C42.0602 23.8179 42.2982 20.0639 42.4722 16.2999C42.4639 15.561 42.1739 14.8531 41.6613 14.3209C41.1487 13.7886 40.4523 13.4721 39.7142 13.4359H36.9142C35.9768 13.4347 35.06 13.1614 34.275 12.6491C33.49 12.1368 32.8707 11.4075 32.4922 10.5499C32.3951 10.3024 32.2256 10.09 32.0058 9.94047C31.7859 9.79094 31.5261 9.71128 31.2602 9.71192H28.7142C25.0242 9.71192 22.0322 12.7379 22.0322 16.4719C22.0322 20.1919 22.2642 23.8519 22.5082 27.5839Z" fill="url(#paint55_linear_447_766)"/>
<path d="M22.5082 27.5839C22.7559 29.4694 23.6811 31.2003 25.1112 32.4538C26.5413 33.7072 28.3786 34.3975 30.2802 34.3959H34.0542C35.9555 34.3971 37.7923 33.7065 39.222 32.4531C40.6517 31.1997 41.5766 29.469 41.8242 27.5839C42.0602 23.8179 42.2982 20.0639 42.4722 16.2999C42.4639 15.561 42.1739 14.8531 41.6613 14.3209C41.1487 13.7886 40.4523 13.4721 39.7142 13.4359H36.9142C35.9768 13.4347 35.06 13.1614 34.275 12.6491C33.49 12.1368 32.8707 11.4075 32.4922 10.5499C32.3951 10.3024 32.2256 10.09 32.0058 9.94047C31.7859 9.79094 31.5261 9.71128 31.2602 9.71192H28.7142C25.0242 9.71192 22.0322 12.7379 22.0322 16.4719C22.0322 20.1919 22.2642 23.8519 22.5082 27.5839Z" fill="url(#paint56_radial_447_766)"/>
<path d="M22.5082 27.5839C22.7559 29.4694 23.6811 31.2003 25.1112 32.4538C26.5413 33.7072 28.3786 34.3975 30.2802 34.3959H34.0542C35.9555 34.3971 37.7923 33.7065 39.222 32.4531C40.6517 31.1997 41.5766 29.469 41.8242 27.5839C42.0602 23.8179 42.2982 20.0639 42.4722 16.2999C42.4639 15.561 42.1739 14.8531 41.6613 14.3209C41.1487 13.7886 40.4523 13.4721 39.7142 13.4359H36.9142C35.9768 13.4347 35.06 13.1614 34.275 12.6491C33.49 12.1368 32.8707 11.4075 32.4922 10.5499C32.3951 10.3024 32.2256 10.09 32.0058 9.94047C31.7859 9.79094 31.5261 9.71128 31.2602 9.71192H28.7142C25.0242 9.71192 22.0322 12.7379 22.0322 16.4719C22.0322 20.1919 22.2642 23.8519 22.5082 27.5839Z" fill="url(#paint57_radial_447_766)"/>
<path d="M22.5082 27.5839C22.7559 29.4694 23.6811 31.2003 25.1112 32.4538C26.5413 33.7072 28.3786 34.3975 30.2802 34.3959H34.0542C35.9555 34.3971 37.7923 33.7065 39.222 32.4531C40.6517 31.1997 41.5766 29.469 41.8242 27.5839C42.0602 23.8179 42.2982 20.0639 42.4722 16.2999C42.4639 15.561 42.1739 14.8531 41.6613 14.3209C41.1487 13.7886 40.4523 13.4721 39.7142 13.4359H36.9142C35.9768 13.4347 35.06 13.1614 34.275 12.6491C33.49 12.1368 32.8707 11.4075 32.4922 10.5499C32.3951 10.3024 32.2256 10.09 32.0058 9.94047C31.7859 9.79094 31.5261 9.71128 31.2602 9.71192H28.7142C25.0242 9.71192 22.0322 12.7379 22.0322 16.4719C22.0322 20.1919 22.2642 23.8519 22.5082 27.5839Z" fill="url(#paint58_radial_447_766)"/>
<path d="M22.5082 27.5839C22.7559 29.4694 23.6811 31.2003 25.1112 32.4538C26.5413 33.7072 28.3786 34.3975 30.2802 34.3959H34.0542C35.9555 34.3971 37.7923 33.7065 39.222 32.4531C40.6517 31.1997 41.5766 29.469 41.8242 27.5839C42.0602 23.8179 42.2982 20.0639 42.4722 16.2999C42.4639 15.561 42.1739 14.8531 41.6613 14.3209C41.1487 13.7886 40.4523 13.4721 39.7142 13.4359H36.9142C35.9768 13.4347 35.06 13.1614 34.275 12.6491C33.49 12.1368 32.8707 11.4075 32.4922 10.5499C32.3951 10.3024 32.2256 10.09 32.0058 9.94047C31.7859 9.79094 31.5261 9.71128 31.2602 9.71192H28.7142C25.0242 9.71192 22.0322 12.7379 22.0322 16.4719C22.0322 20.1919 22.2642 23.8519 22.5082 27.5839Z" fill="url(#paint59_radial_447_766)"/>
<path d="M22.5082 27.5839C22.7559 29.4694 23.6811 31.2003 25.1112 32.4538C26.5413 33.7072 28.3786 34.3975 30.2802 34.3959H34.0542C35.9555 34.3971 37.7923 33.7065 39.222 32.4531C40.6517 31.1997 41.5766 29.469 41.8242 27.5839C42.0602 23.8179 42.2982 20.0639 42.4722 16.2999C42.4639 15.561 42.1739 14.8531 41.6613 14.3209C41.1487 13.7886 40.4523 13.4721 39.7142 13.4359H36.9142C35.9768 13.4347 35.06 13.1614 34.275 12.6491C33.49 12.1368 32.8707 11.4075 32.4922 10.5499C32.3951 10.3024 32.2256 10.09 32.0058 9.94047C31.7859 9.79094 31.5261 9.71128 31.2602 9.71192H28.7142C25.0242 9.71192 22.0322 12.7379 22.0322 16.4719C22.0322 20.1919 22.2642 23.8519 22.5082 27.5839Z" fill="url(#paint60_radial_447_766)"/>
<path d="M22.5082 27.5839C22.7559 29.4694 23.6811 31.2003 25.1112 32.4538C26.5413 33.7072 28.3786 34.3975 30.2802 34.3959H34.0542C35.9555 34.3971 37.7923 33.7065 39.222 32.4531C40.6517 31.1997 41.5766 29.469 41.8242 27.5839C42.0602 23.8179 42.2982 20.0639 42.4722 16.2999C42.4639 15.561 42.1739 14.8531 41.6613 14.3209C41.1487 13.7886 40.4523 13.4721 39.7142 13.4359H36.9142C35.9768 13.4347 35.06 13.1614 34.275 12.6491C33.49 12.1368 32.8707 11.4075 32.4922 10.5499C32.3951 10.3024 32.2256 10.09 32.0058 9.94047C31.7859 9.79094 31.5261 9.71128 31.2602 9.71192H28.7142C25.0242 9.71192 22.0322 12.7379 22.0322 16.4719C22.0322 20.1919 22.2642 23.8519 22.5082 27.5839Z" fill="url(#paint61_radial_447_766)"/>
<path d="M22.5082 27.5839C22.7559 29.4694 23.6811 31.2003 25.1112 32.4538C26.5413 33.7072 28.3786 34.3975 30.2802 34.3959H34.0542C35.9555 34.3971 37.7923 33.7065 39.222 32.4531C40.6517 31.1997 41.5766 29.469 41.8242 27.5839C42.0602 23.8179 42.2982 20.0639 42.4722 16.2999C42.4639 15.561 42.1739 14.8531 41.6613 14.3209C41.1487 13.7886 40.4523 13.4721 39.7142 13.4359H36.9142C35.9768 13.4347 35.06 13.1614 34.275 12.6491C33.49 12.1368 32.8707 11.4075 32.4922 10.5499C32.3951 10.3024 32.2256 10.09 32.0058 9.94047C31.7859 9.79094 31.5261 9.71128 31.2602 9.71192H28.7142C25.0242 9.71192 22.0322 12.7379 22.0322 16.4719C22.0322 20.1919 22.2642 23.8519 22.5082 27.5839Z" fill="url(#paint62_radial_447_766)"/>
<g filter="url(#filter16_f_447_766)">
<path d="M31.2981 21.382L29.9141 24.694C29.7101 25.45 30.1961 26.206 30.8861 26.206H32.3561C33.0461 26.206 33.5321 25.438 33.3281 24.694L32.3361 21.018C32.1221 20.202 31.5201 20.568 31.2961 21.382" fill="#C48377"/>
</g>
<g filter="url(#filter17_f_447_766)">
<path d="M31.3946 20.6261L30.3306 24.3021C30.1146 25.0581 30.6346 25.8141 31.3726 25.8141H32.9446C33.6846 25.8141 34.2046 25.0461 33.9866 24.3021L32.9246 20.6261C32.6966 19.8121 31.6326 19.8121 31.3946 20.6261Z" fill="url(#paint63_linear_447_766)"/>
<path d="M31.3946 20.6261L30.3306 24.3021C30.1146 25.0581 30.6346 25.8141 31.3726 25.8141H32.9446C33.6846 25.8141 34.2046 25.0461 33.9866 24.3021L32.9246 20.6261C32.6966 19.8121 31.6326 19.8121 31.3946 20.6261Z" fill="url(#paint64_linear_447_766)"/>
<path d="M31.3946 20.6261L30.3306 24.3021C30.1146 25.0581 30.6346 25.8141 31.3726 25.8141H32.9446C33.6846 25.8141 34.2046 25.0461 33.9866 24.3021L32.9246 20.6261C32.6966 19.8121 31.6326 19.8121 31.3946 20.6261Z" fill="url(#paint65_linear_447_766)"/>
<path d="M31.3946 20.6261L30.3306 24.3021C30.1146 25.0581 30.6346 25.8141 31.3726 25.8141H32.9446C33.6846 25.8141 34.2046 25.0461 33.9866 24.3021L32.9246 20.6261C32.6966 19.8121 31.6326 19.8121 31.3946 20.6261Z" fill="url(#paint66_linear_447_766)"/>
</g>
<path d="M31.3936 20.6259L30.3296 24.3019C30.1136 25.0579 30.6336 25.8139 31.3716 25.8139H32.9436C33.6836 25.8139 34.2036 25.0459 33.9856 24.3019L32.9236 20.6259C32.6956 19.8119 31.6316 19.8119 31.3936 20.6259Z" fill="url(#paint67_linear_447_766)"/>
<path d="M31.3936 20.6259L30.3296 24.3019C30.1136 25.0579 30.6336 25.8139 31.3716 25.8139H32.9436C33.6836 25.8139 34.2036 25.0459 33.9856 24.3019L32.9236 20.6259C32.6956 19.8119 31.6316 19.8119 31.3936 20.6259Z" fill="url(#paint68_radial_447_766)"/>
<g filter="url(#filter18_f_447_766)">
<path d="M29.4561 27.058C29.3679 27.0129 29.2675 26.9975 29.1699 27.0141C29.0722 27.0307 28.9825 27.0783 28.9141 27.1499C28.8434 27.2202 28.8 27.3132 28.7915 27.4125C28.7831 27.5118 28.8103 27.6108 28.8681 27.6919C29.5641 28.7479 30.7781 29.4519 32.1581 29.4519C33.5381 29.4519 34.7541 28.7479 35.4501 27.6919C35.5073 27.6097 35.5338 27.51 35.525 27.4103C35.5162 27.3105 35.4728 27.217 35.4021 27.1459C35.3336 27.0751 35.2442 27.0281 35.147 27.0119C35.0498 26.9957 34.9499 27.0111 34.8621 27.0559C34.0821 27.4639 33.1601 27.6959 32.1601 27.6959C31.2203 27.7049 30.2923 27.4852 29.4561 27.0559V27.058Z" stroke="url(#paint69_radial_447_766)" stroke-width="0.3"/>
</g>
<path d="M32.1596 27.848C31.1436 27.848 30.1896 27.608 29.3876 27.19C29.1136 27.05 28.8196 27.36 28.9916 27.61C29.6616 28.624 30.8276 29.3 32.1576 29.3C33.4876 29.3 34.6556 28.624 35.3256 27.608C35.4976 27.35 35.2036 27.052 34.9296 27.19C34.0719 27.6287 33.1231 27.8544 32.1596 27.848Z" fill="url(#paint70_radial_447_766)"/>
<g filter="url(#filter19_ii_447_766)">
<path d="M41.8669 8.76835C42.8949 9.12235 43.8189 9.84235 44.4029 10.8724C44.8477 11.6488 45.0637 12.5353 45.0258 13.4293C44.9879 14.3233 44.6978 15.1883 44.1889 15.9244C43.8383 16.44 43.6502 17.0488 43.6489 17.6724V20.0484C43.2475 19.7766 42.7927 19.5939 42.3149 19.5124L42.4709 16.3004C42.4626 15.5614 42.1725 14.8536 41.66 14.3213C41.1474 13.789 40.451 13.4725 39.7129 13.4364H36.9129C35.0049 13.4364 33.2729 12.3084 32.4889 10.5504C32.3919 10.3032 32.2227 10.091 32.0033 9.94147C31.7838 9.79197 31.5244 9.71212 31.2589 9.71235H28.7129C25.0229 9.71235 22.0309 12.7384 22.0309 16.4724L22.0909 19.5464C21.5769 19.6104 21.0844 19.791 20.6509 20.0744V17.6744C20.6509 17.0504 20.4609 16.4384 20.1109 15.9244C19.6262 15.2106 19.3437 14.3791 19.2933 13.5178C19.243 12.6565 19.4266 11.7977 19.8249 11.0324C20.3743 9.97886 21.3038 9.17377 22.4249 8.78035C23.5721 8.37567 24.5475 7.59279 25.1909 6.56035C25.7774 5.6153 26.6832 4.91168 27.7439 4.57706C28.8047 4.24243 29.9502 4.29894 30.9729 4.73635C31.3494 4.89956 31.7555 4.98376 32.1659 4.98376C32.5763 4.98376 32.9823 4.89956 33.3589 4.73635C33.9229 4.50035 34.5389 4.36035 35.1849 4.36035C36.8709 4.36035 38.3449 5.27235 39.1609 6.62435C39.7769 7.64435 40.7409 8.38435 41.8669 8.76835Z" fill="url(#paint71_linear_447_766)"/>
<path d="M41.8669 8.76835C42.8949 9.12235 43.8189 9.84235 44.4029 10.8724C44.8477 11.6488 45.0637 12.5353 45.0258 13.4293C44.9879 14.3233 44.6978 15.1883 44.1889 15.9244C43.8383 16.44 43.6502 17.0488 43.6489 17.6724V20.0484C43.2475 19.7766 42.7927 19.5939 42.3149 19.5124L42.4709 16.3004C42.4626 15.5614 42.1725 14.8536 41.66 14.3213C41.1474 13.789 40.451 13.4725 39.7129 13.4364H36.9129C35.0049 13.4364 33.2729 12.3084 32.4889 10.5504C32.3919 10.3032 32.2227 10.091 32.0033 9.94147C31.7838 9.79197 31.5244 9.71212 31.2589 9.71235H28.7129C25.0229 9.71235 22.0309 12.7384 22.0309 16.4724L22.0909 19.5464C21.5769 19.6104 21.0844 19.791 20.6509 20.0744V17.6744C20.6509 17.0504 20.4609 16.4384 20.1109 15.9244C19.6262 15.2106 19.3437 14.3791 19.2933 13.5178C19.243 12.6565 19.4266 11.7977 19.8249 11.0324C20.3743 9.97886 21.3038 9.17377 22.4249 8.78035C23.5721 8.37567 24.5475 7.59279 25.1909 6.56035C25.7774 5.6153 26.6832 4.91168 27.7439 4.57706C28.8047 4.24243 29.9502 4.29894 30.9729 4.73635C31.3494 4.89956 31.7555 4.98376 32.1659 4.98376C32.5763 4.98376 32.9823 4.89956 33.3589 4.73635C33.9229 4.50035 34.5389 4.36035 35.1849 4.36035C36.8709 4.36035 38.3449 5.27235 39.1609 6.62435C39.7769 7.64435 40.7409 8.38435 41.8669 8.76835Z" fill="url(#paint72_radial_447_766)"/>
<path d="M41.8669 8.76835C42.8949 9.12235 43.8189 9.84235 44.4029 10.8724C44.8477 11.6488 45.0637 12.5353 45.0258 13.4293C44.9879 14.3233 44.6978 15.1883 44.1889 15.9244C43.8383 16.44 43.6502 17.0488 43.6489 17.6724V20.0484C43.2475 19.7766 42.7927 19.5939 42.3149 19.5124L42.4709 16.3004C42.4626 15.5614 42.1725 14.8536 41.66 14.3213C41.1474 13.789 40.451 13.4725 39.7129 13.4364H36.9129C35.0049 13.4364 33.2729 12.3084 32.4889 10.5504C32.3919 10.3032 32.2227 10.091 32.0033 9.94147C31.7838 9.79197 31.5244 9.71212 31.2589 9.71235H28.7129C25.0229 9.71235 22.0309 12.7384 22.0309 16.4724L22.0909 19.5464C21.5769 19.6104 21.0844 19.791 20.6509 20.0744V17.6744C20.6509 17.0504 20.4609 16.4384 20.1109 15.9244C19.6262 15.2106 19.3437 14.3791 19.2933 13.5178C19.243 12.6565 19.4266 11.7977 19.8249 11.0324C20.3743 9.97886 21.3038 9.17377 22.4249 8.78035C23.5721 8.37567 24.5475 7.59279 25.1909 6.56035C25.7774 5.6153 26.6832 4.91168 27.7439 4.57706C28.8047 4.24243 29.9502 4.29894 30.9729 4.73635C31.3494 4.89956 31.7555 4.98376 32.1659 4.98376C32.5763 4.98376 32.9823 4.89956 33.3589 4.73635C33.9229 4.50035 34.5389 4.36035 35.1849 4.36035C36.8709 4.36035 38.3449 5.27235 39.1609 6.62435C39.7769 7.64435 40.7409 8.38435 41.8669 8.76835Z" fill="url(#paint73_radial_447_766)"/>
<path d="M41.8669 8.76835C42.8949 9.12235 43.8189 9.84235 44.4029 10.8724C44.8477 11.6488 45.0637 12.5353 45.0258 13.4293C44.9879 14.3233 44.6978 15.1883 44.1889 15.9244C43.8383 16.44 43.6502 17.0488 43.6489 17.6724V20.0484C43.2475 19.7766 42.7927 19.5939 42.3149 19.5124L42.4709 16.3004C42.4626 15.5614 42.1725 14.8536 41.66 14.3213C41.1474 13.789 40.451 13.4725 39.7129 13.4364H36.9129C35.0049 13.4364 33.2729 12.3084 32.4889 10.5504C32.3919 10.3032 32.2227 10.091 32.0033 9.94147C31.7838 9.79197 31.5244 9.71212 31.2589 9.71235H28.7129C25.0229 9.71235 22.0309 12.7384 22.0309 16.4724L22.0909 19.5464C21.5769 19.6104 21.0844 19.791 20.6509 20.0744V17.6744C20.6509 17.0504 20.4609 16.4384 20.1109 15.9244C19.6262 15.2106 19.3437 14.3791 19.2933 13.5178C19.243 12.6565 19.4266 11.7977 19.8249 11.0324C20.3743 9.97886 21.3038 9.17377 22.4249 8.78035C23.5721 8.37567 24.5475 7.59279 25.1909 6.56035C25.7774 5.6153 26.6832 4.91168 27.7439 4.57706C28.8047 4.24243 29.9502 4.29894 30.9729 4.73635C31.3494 4.89956 31.7555 4.98376 32.1659 4.98376C32.5763 4.98376 32.9823 4.89956 33.3589 4.73635C33.9229 4.50035 34.5389 4.36035 35.1849 4.36035C36.8709 4.36035 38.3449 5.27235 39.1609 6.62435C39.7769 7.64435 40.7409 8.38435 41.8669 8.76835Z" fill="url(#paint74_radial_447_766)"/>
<path d="M41.8669 8.76835C42.8949 9.12235 43.8189 9.84235 44.4029 10.8724C44.8477 11.6488 45.0637 12.5353 45.0258 13.4293C44.9879 14.3233 44.6978 15.1883 44.1889 15.9244C43.8383 16.44 43.6502 17.0488 43.6489 17.6724V20.0484C43.2475 19.7766 42.7927 19.5939 42.3149 19.5124L42.4709 16.3004C42.4626 15.5614 42.1725 14.8536 41.66 14.3213C41.1474 13.789 40.451 13.4725 39.7129 13.4364H36.9129C35.0049 13.4364 33.2729 12.3084 32.4889 10.5504C32.3919 10.3032 32.2227 10.091 32.0033 9.94147C31.7838 9.79197 31.5244 9.71212 31.2589 9.71235H28.7129C25.0229 9.71235 22.0309 12.7384 22.0309 16.4724L22.0909 19.5464C21.5769 19.6104 21.0844 19.791 20.6509 20.0744V17.6744C20.6509 17.0504 20.4609 16.4384 20.1109 15.9244C19.6262 15.2106 19.3437 14.3791 19.2933 13.5178C19.243 12.6565 19.4266 11.7977 19.8249 11.0324C20.3743 9.97886 21.3038 9.17377 22.4249 8.78035C23.5721 8.37567 24.5475 7.59279 25.1909 6.56035C25.7774 5.6153 26.6832 4.91168 27.7439 4.57706C28.8047 4.24243 29.9502 4.29894 30.9729 4.73635C31.3494 4.89956 31.7555 4.98376 32.1659 4.98376C32.5763 4.98376 32.9823 4.89956 33.3589 4.73635C33.9229 4.50035 34.5389 4.36035 35.1849 4.36035C36.8709 4.36035 38.3449 5.27235 39.1609 6.62435C39.7769 7.64435 40.7409 8.38435 41.8669 8.76835Z" fill="url(#paint75_radial_447_766)"/>
</g>
<g filter="url(#filter20_i_447_766)">
<path d="M39.623 16.0967C39.2307 15.725 38.7617 15.4437 38.249 15.2727C37.639 15.0807 36.877 15.0307 35.823 15.1587C35.7508 15.1675 35.681 15.1904 35.6176 15.2262C35.5543 15.262 35.4986 15.3099 35.4537 15.3672C35.4089 15.4245 35.3757 15.49 35.3562 15.5601C35.3367 15.6302 35.3312 15.7035 35.34 15.7757C35.3488 15.8479 35.3717 15.9177 35.4075 15.9811C35.4433 16.0444 35.4912 16.1001 35.5485 16.145C35.6058 16.1898 35.6713 16.223 35.7414 16.2425C35.8115 16.262 35.8848 16.2675 35.957 16.2587C36.921 16.1427 37.509 16.2047 37.915 16.3307C38.311 16.4567 38.579 16.6587 38.895 16.9307C39.0065 17.0201 39.1483 17.063 39.2906 17.0504C39.433 17.0377 39.565 16.9705 39.659 16.8629C39.753 16.7552 39.8017 16.6153 39.795 16.4725C39.7883 16.3298 39.7267 16.1951 39.623 16.0967Z" fill="#A06937"/>
</g>
<g filter="url(#filter21_i_447_766)">
<path d="M25.3357 15.878C26.3846 15.2628 27.6068 15.0098 28.8137 15.158C28.8859 15.1668 28.9557 15.1897 29.0191 15.2255C29.0825 15.2613 29.1382 15.3092 29.183 15.3665C29.2279 15.4238 29.261 15.4893 29.2805 15.5594C29.3 15.6295 29.3055 15.7028 29.2967 15.775C29.2879 15.8472 29.265 15.917 29.2292 15.9804C29.1934 16.0437 29.1455 16.0994 29.0883 16.1443C29.031 16.1891 28.9654 16.2223 28.8953 16.2418C28.8252 16.2613 28.7519 16.2668 28.6797 16.258C27.7176 16.1401 26.7434 16.3403 25.9057 16.828C25.8429 16.8647 25.7822 16.9047 25.7237 16.948L25.7177 16.952C25.6016 17.0422 25.4543 17.0825 25.3084 17.0641C25.1625 17.0458 25.0299 16.9702 24.9397 16.854C24.8495 16.7378 24.8092 16.5906 24.8276 16.4447C24.846 16.2988 24.9216 16.1662 25.0377 16.076L25.3357 15.878Z" fill="#A06937"/>
</g>
<g filter="url(#filter22_f_447_766)">
<path d="M32.6241 10.8241L32.4901 10.5501C32.3928 10.3033 32.2234 10.0915 32.004 9.94239C31.7846 9.79326 31.5254 9.71371 31.2601 9.7141H28.7141C25.0241 9.7141 22.0321 12.7381 22.0321 16.4721V17.0221C21.3521 16.5041 20.4961 15.4121 20.4961 13.6461C20.4961 11.5021 22.0601 10.4181 23.0561 9.7261C23.2909 9.57757 23.5124 9.40894 23.7181 9.2221L23.9181 9.0121C24.6181 8.2721 25.8621 6.9501 28.0381 6.3721C29.0234 6.12331 30.0383 6.01226 31.0541 6.0421C31.9981 6.0641 32.6661 6.8821 32.6661 7.8261V10.7961L32.6241 10.8241Z" fill="url(#paint76_radial_447_766)"/>
<path d="M32.6241 10.8241L32.4901 10.5501C32.3928 10.3033 32.2234 10.0915 32.004 9.94239C31.7846 9.79326 31.5254 9.71371 31.2601 9.7141H28.7141C25.0241 9.7141 22.0321 12.7381 22.0321 16.4721V17.0221C21.3521 16.5041 20.4961 15.4121 20.4961 13.6461C20.4961 11.5021 22.0601 10.4181 23.0561 9.7261C23.2909 9.57757 23.5124 9.40894 23.7181 9.2221L23.9181 9.0121C24.6181 8.2721 25.8621 6.9501 28.0381 6.3721C29.0234 6.12331 30.0383 6.01226 31.0541 6.0421C31.9981 6.0641 32.6661 6.8821 32.6661 7.8261V10.7961L32.6241 10.8241Z" fill="url(#paint77_radial_447_766)"/>
</g>
<g filter="url(#filter23_f_447_766)">
<path d="M42.584 17.5679L42.524 16.3059C42.504 14.7779 41.244 13.5179 39.714 13.4539H36.914C36.0449 13.4539 35.1919 13.22 34.4444 12.7766C33.6969 12.3331 33.0826 11.6966 32.666 10.9339C32.666 10.9339 32.55 10.6639 32.426 10.1999C31.914 8.2599 33.768 6.7739 35.738 7.1559C37.684 7.5339 39.902 8.1899 41.542 9.2599C45.03 11.5359 44.424 15.6359 42.584 17.5679Z" fill="url(#paint78_radial_447_766)"/>
<path d="M42.584 17.5679L42.524 16.3059C42.504 14.7779 41.244 13.5179 39.714 13.4539H36.914C36.0449 13.4539 35.1919 13.22 34.4444 12.7766C33.6969 12.3331 33.0826 11.6966 32.666 10.9339C32.666 10.9339 32.55 10.6639 32.426 10.1999C31.914 8.2599 33.768 6.7739 35.738 7.1559C37.684 7.5339 39.902 8.1899 41.542 9.2599C45.03 11.5359 44.424 15.6359 42.584 17.5679Z" fill="url(#paint79_radial_447_766)"/>
<path d="M42.584 17.5679L42.524 16.3059C42.504 14.7779 41.244 13.5179 39.714 13.4539H36.914C36.0449 13.4539 35.1919 13.22 34.4444 12.7766C33.6969 12.3331 33.0826 11.6966 32.666 10.9339C32.666 10.9339 32.55 10.6639 32.426 10.1999C31.914 8.2599 33.768 6.7739 35.738 7.1559C37.684 7.5339 39.902 8.1899 41.542 9.2599C45.03 11.5359 44.424 15.6359 42.584 17.5679Z" fill="url(#paint80_radial_447_766)"/>
<path d="M42.584 17.5679L42.524 16.3059C42.504 14.7779 41.244 13.5179 39.714 13.4539H36.914C36.0449 13.4539 35.1919 13.22 34.4444 12.7766C33.6969 12.3331 33.0826 11.6966 32.666 10.9339C32.666 10.9339 32.55 10.6639 32.426 10.1999C31.914 8.2599 33.768 6.7739 35.738 7.1559C37.684 7.5339 39.902 8.1899 41.542 9.2599C45.03 11.5359 44.424 15.6359 42.584 17.5679Z" fill="url(#paint81_radial_447_766)"/>
<path d="M42.584 17.5679L42.524 16.3059C42.504 14.7779 41.244 13.5179 39.714 13.4539H36.914C36.0449 13.4539 35.1919 13.22 34.4444 12.7766C33.6969 12.3331 33.0826 11.6966 32.666 10.9339C32.666 10.9339 32.55 10.6639 32.426 10.1999C31.914 8.2599 33.768 6.7739 35.738 7.1559C37.684 7.5339 39.902 8.1899 41.542 9.2599C45.03 11.5359 44.424 15.6359 42.584 17.5679Z" fill="url(#paint82_radial_447_766)"/>
<path d="M42.584 17.5679L42.524 16.3059C42.504 14.7779 41.244 13.5179 39.714 13.4539H36.914C36.0449 13.4539 35.1919 13.22 34.4444 12.7766C33.6969 12.3331 33.0826 11.6966 32.666 10.9339C32.666 10.9339 32.55 10.6639 32.426 10.1999C31.914 8.2599 33.768 6.7739 35.738 7.1559C37.684 7.5339 39.902 8.1899 41.542 9.2599C45.03 11.5359 44.424 15.6359 42.584 17.5679Z" fill="url(#paint83_radial_447_766)"/>
</g>
<path d="M36.9411 18.7246C38.2471 18.7246 39.3511 19.6246 39.6511 20.8446C39.6713 20.9257 39.6726 21.0103 39.655 21.092C39.6374 21.1737 39.6014 21.2502 39.5497 21.3159C39.4979 21.3815 39.4319 21.4344 39.3566 21.4706C39.2813 21.5068 39.1987 21.5252 39.1151 21.5246H34.6551C34.5873 21.5252 34.5202 21.5107 34.4586 21.4823C34.397 21.4538 34.3425 21.4121 34.2989 21.3601C34.2553 21.3081 34.2238 21.2471 34.2065 21.1815C34.1893 21.1159 34.1868 21.0473 34.1991 20.9806C34.3249 20.3456 34.6669 19.7737 35.1668 19.3624C35.6667 18.9511 36.2937 18.7257 36.9411 18.7246Z" fill="white"/>
<path d="M36.5254 19.2681C36.7999 19.2681 37.0707 19.3315 37.3167 19.4534C37.5627 19.5752 37.7772 19.7521 37.9437 19.9704C38.1101 20.1887 38.2239 20.4425 38.2762 20.712C38.3286 20.9814 38.318 21.2593 38.2454 21.5241H34.7994C34.7283 21.2588 34.7191 20.9807 34.7725 20.7113C34.826 20.4419 34.9406 20.1884 35.1077 19.9704C35.2747 19.7524 35.4895 19.5756 35.7357 19.4538C35.9819 19.3321 36.2508 19.2685 36.5254 19.2681Z" fill="url(#paint84_radial_447_766)"/>
<path d="M35.5039 21.0541C35.5034 20.9196 35.5294 20.7864 35.5806 20.662C35.6317 20.5377 35.707 20.4247 35.802 20.3295C35.8969 20.2343 36.0098 20.1589 36.134 20.1075C36.2583 20.0561 36.3915 20.0298 36.5259 20.0301C36.7021 20.0289 36.8755 20.0733 37.0294 20.1591C37.1832 20.2448 37.3122 20.369 37.4039 20.5194C37.4955 20.6699 37.5466 20.8415 37.5522 21.0175C37.5578 21.1936 37.5178 21.3681 37.4359 21.5241H35.6259C35.5442 21.3804 35.5028 21.2173 35.5059 21.0521" fill="black"/>
<g filter="url(#filter24_f_447_766)">
<path d="M36.3958 19.6461C36.5218 19.8161 36.2559 20.0221 35.9559 20.2481C35.6519 20.4741 35.4278 20.6341 35.2998 20.4641C35.1738 20.2941 35.3158 19.9721 35.6178 19.7461C35.9198 19.5201 36.2678 19.4761 36.3958 19.6461Z" fill="#C7A7A3"/>
<path d="M36.3958 19.6461C36.5218 19.8161 36.2559 20.0221 35.9559 20.2481C35.6519 20.4741 35.4278 20.6341 35.2998 20.4641C35.1738 20.2941 35.3158 19.9721 35.6178 19.7461C35.9198 19.5201 36.2678 19.4761 36.3958 19.6461Z" fill="url(#paint85_radial_447_766)"/>
</g>
<g filter="url(#filter25_f_447_766)">
<path d="M38.1148 20.8186C38.0621 20.469 37.9004 20.1449 37.6528 19.8926L37.1328 20.4646L37.3668 20.9206L38.1148 20.8186Z" fill="url(#paint86_linear_447_766)"/>
</g>
<path d="M27.3763 18.7241C26.0703 18.7241 24.9663 19.6241 24.6663 20.8441C24.5783 21.1921 24.8463 21.5241 25.2023 21.5241H29.6643C29.7319 21.5244 29.7988 21.5097 29.8602 21.4811C29.9215 21.4526 29.9758 21.4108 30.0192 21.3589C30.0625 21.3069 30.0939 21.246 30.111 21.1806C30.1282 21.1151 30.1306 21.0467 30.1183 20.9801C29.9926 20.3454 29.6509 19.7738 29.1514 19.3625C28.6519 18.9512 28.0253 18.7257 27.3783 18.7241" fill="white"/>
<path d="M27.7898 19.2681C27.5154 19.2685 27.2448 19.3322 26.9991 19.4542C26.7533 19.5761 26.5389 19.753 26.3725 19.9712C26.2062 20.1894 26.0923 20.443 26.0398 20.7123C25.9873 20.9816 25.9976 21.2594 26.0698 21.5241H29.5178C29.5585 21.3699 29.5807 21.2115 29.5838 21.0521C29.5796 20.5785 29.3889 20.1257 29.0531 19.7917C28.7173 19.4578 28.2634 19.2696 27.7898 19.2681Z" fill="url(#paint87_radial_447_766)"/>
<path d="M28.8115 21.0541C28.812 20.9198 28.786 20.7867 28.735 20.6625C28.684 20.5383 28.6089 20.4254 28.5142 20.3302C28.4194 20.2351 28.3068 20.1596 28.1828 20.1081C28.0587 20.0566 27.9258 20.0301 27.7915 20.0301C27.6153 20.0289 27.4419 20.0733 27.288 20.1591C27.1342 20.2448 27.0052 20.369 26.9135 20.5194C26.8219 20.6699 26.7708 20.8415 26.7652 21.0175C26.7596 21.1936 26.7996 21.3681 26.8815 21.5241H28.6895C28.7685 21.3792 28.8104 21.217 28.8115 21.0521" fill="black"/>
<g filter="url(#filter26_f_447_766)">
<path d="M29.4181 20.8446C29.4181 20.2666 28.9501 19.8826 28.8241 19.7646L28.2461 20.3246L28.6021 21.0466L29.4181 20.8446Z" fill="url(#paint88_linear_447_766)"/>
</g>
<g filter="url(#filter27_f_447_766)">
<path d="M27.4371 20.378C27.8177 20.1764 28.0437 19.857 27.9419 19.6647C27.84 19.4724 27.4488 19.4801 27.0682 19.6817C26.6875 19.8834 26.4615 20.2028 26.5634 20.395C26.6652 20.5873 27.0564 20.5797 27.4371 20.378Z" fill="#C7A7A3" fill-opacity="0.9"/>
<path d="M27.4371 20.378C27.8177 20.1764 28.0437 19.857 27.9419 19.6647C27.84 19.4724 27.4488 19.4801 27.0682 19.6817C26.6875 19.8834 26.4615 20.2028 26.5634 20.395C26.6652 20.5873 27.0564 20.5797 27.4371 20.378Z" fill="url(#paint89_radial_447_766)"/>
</g>
<path d="M42.002 24.736C42.1353 22.608 42.2587 20.4807 42.372 18.354C43.146 18.4943 43.8419 18.9131 44.3283 19.5313C44.8147 20.1496 45.058 20.9244 45.0122 21.7097C44.9664 22.495 44.6348 23.2364 44.0798 23.7939C43.5249 24.3515 42.7871 24.6866 42.002 24.736Z" fill="url(#paint90_linear_447_766)"/>
<path d="M42.002 24.736C42.1353 22.608 42.2587 20.4807 42.372 18.354C43.146 18.4943 43.8419 18.9131 44.3283 19.5313C44.8147 20.1496 45.058 20.9244 45.0122 21.7097C44.9664 22.495 44.6348 23.2364 44.0798 23.7939C43.5249 24.3515 42.7871 24.6866 42.002 24.736Z" fill="url(#paint91_radial_447_766)"/>
<path d="M42.002 24.736C42.1353 22.608 42.2587 20.4807 42.372 18.354C43.146 18.4943 43.8419 18.9131 44.3283 19.5313C44.8147 20.1496 45.058 20.9244 45.0122 21.7097C44.9664 22.495 44.6348 23.2364 44.0798 23.7939C43.5249 24.3515 42.7871 24.6866 42.002 24.736Z" fill="url(#paint92_radial_447_766)"/>
<path d="M22.0479 18.3379C21.2596 18.4539 20.5423 18.8582 20.0347 19.4724C19.5271 20.0866 19.2653 20.8672 19.2999 21.6633C19.3345 22.4594 19.663 23.2143 20.2219 23.7822C20.7809 24.3501 21.5305 24.6906 22.3259 24.7379C22.1895 22.6067 22.0968 20.4729 22.0479 18.3379Z" fill="url(#paint93_linear_447_766)"/>
<path d="M22.0479 18.3379C21.2596 18.4539 20.5423 18.8582 20.0347 19.4724C19.5271 20.0866 19.2653 20.8672 19.2999 21.6633C19.3345 22.4594 19.663 23.2143 20.2219 23.7822C20.7809 24.3501 21.5305 24.6906 22.3259 24.7379C22.1895 22.6067 22.0968 20.4729 22.0479 18.3379Z" fill="url(#paint94_radial_447_766)"/>
<g filter="url(#filter28_f_447_766)">
<path d="M22.0841 19.66C21.648 19.7598 21.2606 20.0094 20.9895 20.3654C20.7184 20.7214 20.5808 21.1611 20.6005 21.6082C20.6202 22.0552 20.7961 22.4811 21.0976 22.8118C21.399 23.1425 21.8069 23.357 22.2501 23.418C22.1797 22.1653 22.1244 20.9139 22.0841 19.66Z" fill="#B57562"/>
</g>
<g filter="url(#filter29_f_447_766)">
<path d="M42.082 23.4339C42.1607 22.1646 42.234 20.8959 42.302 19.6279C42.7789 19.6931 43.2136 19.9357 43.5195 20.3073C43.8253 20.6789 43.9798 21.1522 43.952 21.6327C43.9242 22.1131 43.7163 22.5655 43.3696 22.8994C43.023 23.2333 42.5632 23.4241 42.082 23.4339Z" fill="#E6AA8B"/>
</g>
<g filter="url(#filter30_f_447_766)">
<path d="M25.4102 16.4367C25.9242 16.0687 27.2062 15.4207 28.7202 15.6747" stroke="#B17847" stroke-width="0.5" stroke-linecap="round"/>
</g>
<g filter="url(#filter31_f_447_766)">
<path d="M39.2787 16.3446C38.7647 15.9766 37.4848 15.3266 35.9688 15.5826" stroke="#B17847" stroke-width="0.5" stroke-linecap="round"/>
</g>
<g filter="url(#filter32_ii_447_766)">
<path d="M41.6678 17.0801H34.7278C34.1278 17.0801 33.5678 17.3601 33.1878 17.8201C33.0657 17.9726 32.9103 18.0952 32.7335 18.1784C32.5567 18.2616 32.3631 18.3032 32.1678 18.3001C31.9724 18.3032 31.7789 18.2616 31.6021 18.1784C31.4253 18.0952 31.2699 17.9726 31.1478 17.8201C30.7678 17.3601 30.2078 17.0801 29.6078 17.0801H22.6478C22.2678 17.0801 21.9678 17.3801 21.9678 17.7601V18.2001C21.9678 18.4201 22.0678 18.6001 22.2278 18.7201C22.3078 18.7801 22.3678 18.8801 22.3678 18.9801V21.1801C22.3678 23.2801 24.0678 25.0001 26.1878 25.0001H27.6078C29.7078 25.0001 31.4278 23.3001 31.4278 21.1801V19.9601C31.4478 19.5601 31.7678 19.2601 32.1678 19.2601C32.5678 19.2601 32.8878 19.5801 32.9078 19.9801V21.1801C32.9078 23.2801 34.6078 25.0001 36.7278 25.0001H38.1478C40.2478 25.0001 41.9678 23.3001 41.9678 21.1801V18.9601C41.9678 18.8601 42.0078 18.7601 42.0878 18.7001C42.2478 18.5801 42.3478 18.3801 42.3478 18.1801V17.7601C42.3478 17.3801 42.0478 17.0801 41.6678 17.0801ZM30.7478 20.9801C30.7478 22.8001 29.2678 24.2801 27.4478 24.2801H26.3478C24.5278 24.2801 23.0478 22.8001 23.0478 20.9801V19.5401C23.0478 18.5601 23.8278 17.7801 24.8078 17.7801H28.9678C29.9478 17.7801 30.7478 18.5601 30.7478 19.5401V20.9801ZM41.3078 20.9801C41.3078 22.8001 39.8278 24.2801 38.0078 24.2801H36.9078C35.0878 24.2801 33.6078 22.8001 33.6078 20.9801V19.5401C33.6078 18.5601 34.3878 17.7801 35.3678 17.7801H39.5478C40.5278 17.7801 41.3078 18.5601 41.3078 19.5401V20.9801Z" fill="url(#paint95_linear_447_766)"/>
<path d="M41.6678 17.0801H34.7278C34.1278 17.0801 33.5678 17.3601 33.1878 17.8201C33.0657 17.9726 32.9103 18.0952 32.7335 18.1784C32.5567 18.2616 32.3631 18.3032 32.1678 18.3001C31.9724 18.3032 31.7789 18.2616 31.6021 18.1784C31.4253 18.0952 31.2699 17.9726 31.1478 17.8201C30.7678 17.3601 30.2078 17.0801 29.6078 17.0801H22.6478C22.2678 17.0801 21.9678 17.3801 21.9678 17.7601V18.2001C21.9678 18.4201 22.0678 18.6001 22.2278 18.7201C22.3078 18.7801 22.3678 18.8801 22.3678 18.9801V21.1801C22.3678 23.2801 24.0678 25.0001 26.1878 25.0001H27.6078C29.7078 25.0001 31.4278 23.3001 31.4278 21.1801V19.9601C31.4478 19.5601 31.7678 19.2601 32.1678 19.2601C32.5678 19.2601 32.8878 19.5801 32.9078 19.9801V21.1801C32.9078 23.2801 34.6078 25.0001 36.7278 25.0001H38.1478C40.2478 25.0001 41.9678 23.3001 41.9678 21.1801V18.9601C41.9678 18.8601 42.0078 18.7601 42.0878 18.7001C42.2478 18.5801 42.3478 18.3801 42.3478 18.1801V17.7601C42.3478 17.3801 42.0478 17.0801 41.6678 17.0801ZM30.7478 20.9801C30.7478 22.8001 29.2678 24.2801 27.4478 24.2801H26.3478C24.5278 24.2801 23.0478 22.8001 23.0478 20.9801V19.5401C23.0478 18.5601 23.8278 17.7801 24.8078 17.7801H28.9678C29.9478 17.7801 30.7478 18.5601 30.7478 19.5401V20.9801ZM41.3078 20.9801C41.3078 22.8001 39.8278 24.2801 38.0078 24.2801H36.9078C35.0878 24.2801 33.6078 22.8001 33.6078 20.9801V19.5401C33.6078 18.5601 34.3878 17.7801 35.3678 17.7801H39.5478C40.5278 17.7801 41.3078 18.5601 41.3078 19.5401V20.9801Z" fill="url(#paint96_radial_447_766)"/>
</g>
<defs>
<filter id="filter0_i_447_766" x="4.00781" y="8.1001" width="55.9609" height="42.18" filterUnits="userSpaceOnUse" color-interpolation-filters="sRGB">
<feFlood flood-opacity="0" result="BackgroundImageFix"/>
<feBlend mode="normal" in="SourceGraphic" in2="BackgroundImageFix" result="shape"/>
<feColorMatrix in="SourceAlpha" type="matrix" values="0 0 0 0 0 0 0 0 0 0 0 0 0 0 0 0 0 0 127 0" result="hardAlpha"/>
<feOffset dy="0.2"/>
<feGaussianBlur stdDeviation="0.2"/>
<feComposite in2="hardAlpha" operator="arithmetic" k2="-1" k3="1"/>
<feColorMatrix type="matrix" values="0 0 0 0 0.81585 0 0 0 0 0.641744 0 0 0 0 0.41905 0 0 0 1 0"/>
<feBlend mode="normal" in2="shape" result="effect1_innerShadow_447_766"/>
</filter>
<filter id="filter1_f_447_766" x="5.33867" y="7.78813" width="54.8217" height="41.568" filterUnits="userSpaceOnUse" color-interpolation-filters="sRGB">
<feFlood flood-opacity="0" result="BackgroundImageFix"/>
<feBlend mode="normal" in="SourceGraphic" in2="BackgroundImageFix" result="shape"/>
<feGaussianBlur stdDeviation="0.4" result="effect1_foregroundBlur_447_766"/>
</filter>
<filter id="filter2_i_447_766" x="4.00781" y="8.13999" width="55.8203" height="41.9201" filterUnits="userSpaceOnUse" color-interpolation-filters="sRGB">
<feFlood flood-opacity="0" result="BackgroundImageFix"/>
<feBlend mode="normal" in="SourceGraphic" in2="BackgroundImageFix" result="shape"/>
<feColorMatrix in="SourceAlpha" type="matrix" values="0 0 0 0 0 0 0 0 0 0 0 0 0 0 0 0 0 0 127 0" result="hardAlpha"/>
<feOffset dy="-0.6"/>
<feGaussianBlur stdDeviation="0.4"/>
<feComposite in2="hardAlpha" operator="arithmetic" k2="-1" k3="1"/>
<feColorMatrix type="matrix" values="0 0 0 0 0.85098 0 0 0 0 0.482353 0 0 0 0 0.647059 0 0 0 1 0"/>
<feBlend mode="normal" in2="shape" result="effect1_innerShadow_447_766"/>
</filter>
<filter id="filter3_i_447_766" x="36.1094" y="32.0207" width="5.59375" height="28.0799" filterUnits="userSpaceOnUse" color-interpolation-filters="sRGB">
<feFlood flood-opacity="0" result="BackgroundImageFix"/>
<feBlend mode="normal" in="SourceGraphic" in2="BackgroundImageFix" result="shape"/>
<feColorMatrix in="SourceAlpha" type="matrix" values="0 0 0 0 0 0 0 0 0 0 0 0 0 0 0 0 0 0 127 0" result="hardAlpha"/>
<feOffset dy="-0.2"/>
<feGaussianBlur stdDeviation="0.25"/>
<feComposite in2="hardAlpha" operator="arithmetic" k2="-1" k3="1"/>
<feColorMatrix type="matrix" values="0 0 0 0 0.380392 0 0 0 0 0.164706 0 0 0 0 0.203922 0 0 0 1 0"/>
<feBlend mode="normal" in2="shape" result="effect1_innerShadow_447_766"/>
</filter>
<filter id="filter4_i_447_766" x="22.293" y="32.0207" width="5.59375" height="28.0799" filterUnits="userSpaceOnUse" color-interpolation-filters="sRGB">
<feFlood flood-opacity="0" result="BackgroundImageFix"/>
<feBlend mode="normal" in="SourceGraphic" in2="BackgroundImageFix" result="shape"/>
<feColorMatrix in="SourceAlpha" type="matrix" values="0 0 0 0 0 0 0 0 0 0 0 0 0 0 0 0 0 0 127 0" result="hardAlpha"/>
<feOffset dy="-0.2"/>
<feGaussianBlur stdDeviation="0.25"/>
<feComposite in2="hardAlpha" operator="arithmetic" k2="-1" k3="1"/>
<feColorMatrix type="matrix" values="0 0 0 0 0.380392 0 0 0 0 0.164706 0 0 0 0 0.203922 0 0 0 1 0"/>
<feBlend mode="normal" in2="shape" result="effect1_innerShadow_447_766"/>
</filter>
<filter id="filter5_i_447_766" x="41.8977" y="46.3164" width="4.2" height="6.78008" filterUnits="userSpaceOnUse" color-interpolation-filters="sRGB">
<feFlood flood-opacity="0" result="BackgroundImageFix"/>
<feBlend mode="normal" in="SourceGraphic" in2="BackgroundImageFix" result="shape"/>
<feColorMatrix in="SourceAlpha" type="matrix" values="0 0 0 0 0 0 0 0 0 0 0 0 0 0 0 0 0 0 127 0" result="hardAlpha"/>
<feOffset dx="-0.2" dy="0.2"/>
<feGaussianBlur stdDeviation="0.2"/>
<feComposite in2="hardAlpha" operator="arithmetic" k2="-1" k3="1"/>
<feColorMatrix type="matrix" values="0 0 0 0 0.921569 0 0 0 0 0.752941 0 0 0 0 0.635294 0 0 0 1 0"/>
<feBlend mode="normal" in2="shape" result="effect1_innerShadow_447_766"/>
</filter>
<filter id="filter6_i_447_766" x="17.8984" y="46.3008" width="4.2" height="6.58008" filterUnits="userSpaceOnUse" color-interpolation-filters="sRGB">
<feFlood flood-opacity="0" result="BackgroundImageFix"/>
<feBlend mode="normal" in="SourceGraphic" in2="BackgroundImageFix" result="shape"/>
<feColorMatrix in="SourceAlpha" type="matrix" values="0 0 0 0 0 0 0 0 0 0 0 0 0 0 0 0 0 0 127 0" result="hardAlpha"/>
<feOffset dx="0.2"/>
<feGaussianBlur stdDeviation="0.25"/>
<feComposite in2="hardAlpha" operator="arithmetic" k2="-1" k3="1"/>
<feColorMatrix type="matrix" values="0 0 0 0 0.831373 0 0 0 0 0.611765 0 0 0 0 0.521569 0 0 0 1 0"/>
<feBlend mode="normal" in2="shape" result="effect1_innerShadow_447_766"/>
</filter>
<filter id="filter7_i_447_766" x="17.9023" y="49.3198" width="9.58711" height="10.782" filterUnits="userSpaceOnUse" color-interpolation-filters="sRGB">
<feFlood flood-opacity="0" result="BackgroundImageFix"/>
<feBlend mode="normal" in="SourceGraphic" in2="BackgroundImageFix" result="shape"/>
<feColorMatrix in="SourceAlpha" type="matrix" values="0 0 0 0 0 0 0 0 0 0 0 0 0 0 0 0 0 0 127 0" result="hardAlpha"/>
<feOffset dx="0.8"/>
<feGaussianBlur stdDeviation="0.5"/>
<feComposite in2="hardAlpha" operator="arithmetic" k2="-1" k3="1"/>
<feColorMatrix type="matrix" values="0 0 0 0 0.835294 0 0 0 0 0.619608 0 0 0 0 0.537255 0 0 0 1 0"/>
<feBlend mode="normal" in2="shape" result="effect1_innerShadow_447_766"/>
</filter>
<filter id="filter8_ii_447_766" x="36.9086" y="48.9201" width="9.58711" height="11.182" filterUnits="userSpaceOnUse" color-interpolation-filters="sRGB">
<feFlood flood-opacity="0" result="BackgroundImageFix"/>
<feBlend mode="normal" in="SourceGraphic" in2="BackgroundImageFix" result="shape"/>
<feColorMatrix in="SourceAlpha" type="matrix" values="0 0 0 0 0 0 0 0 0 0 0 0 0 0 0 0 0 0 127 0" result="hardAlpha"/>
<feOffset dx="0.4" dy="-0.4"/>
<feGaussianBlur stdDeviation="0.5"/>
<feComposite in2="hardAlpha" operator="arithmetic" k2="-1" k3="1"/>
<feColorMatrix type="matrix" values="0 0 0 0 0.709804 0 0 0 0 0.435294 0 0 0 0 0.411765 0 0 0 1 0"/>
<feBlend mode="normal" in2="shape" result="effect1_innerShadow_447_766"/>
<feColorMatrix in="SourceAlpha" type="matrix" values="0 0 0 0 0 0 0 0 0 0 0 0 0 0 0 0 0 0 127 0" result="hardAlpha"/>
<feOffset dx="-0.4"/>
<feGaussianBlur stdDeviation="0.4"/>
<feComposite in2="hardAlpha" operator="arithmetic" k2="-1" k3="1"/>
<feColorMatrix type="matrix" values="0 0 0 0 0.905882 0 0 0 0 0.741176 0 0 0 0 0.615686 0 0 0 1 0"/>
<feBlend mode="normal" in2="effect1_innerShadow_447_766" result="effect2_innerShadow_447_766"/>
</filter>
<filter id="filter9_f_447_766" x="37.7463" y="51.8798" width="4.44395" height="0.600195" filterUnits="userSpaceOnUse" color-interpolation-filters="sRGB">
<feFlood flood-opacity="0" result="BackgroundImageFix"/>
<feBlend mode="normal" in="SourceGraphic" in2="BackgroundImageFix" result="shape"/>
<feGaussianBlur stdDeviation="0.1" result="effect1_foregroundBlur_447_766"/>
</filter>
<filter id="filter10_f_447_766" x="21.7238" y="51.8806" width="4.44199" height="0.600195" filterUnits="userSpaceOnUse" color-interpolation-filters="sRGB">
<feFlood flood-opacity="0" result="BackgroundImageFix"/>
<feBlend mode="normal" in="SourceGraphic" in2="BackgroundImageFix" result="shape"/>
<feGaussianBlur stdDeviation="0.1" result="effect1_foregroundBlur_447_766"/>
</filter>
<filter id="filter11_f_447_766" x="37.7463" y="54.4099" width="4.44395" height="0.600195" filterUnits="userSpaceOnUse" color-interpolation-filters="sRGB">
<feFlood flood-opacity="0" result="BackgroundImageFix"/>
<feBlend mode="normal" in="SourceGraphic" in2="BackgroundImageFix" result="shape"/>
<feGaussianBlur stdDeviation="0.1" result="effect1_foregroundBlur_447_766"/>
</filter>
<filter id="filter12_f_447_766" x="21.7238" y="54.4099" width="4.44199" height="0.600195" filterUnits="userSpaceOnUse" color-interpolation-filters="sRGB">
<feFlood flood-opacity="0" result="BackgroundImageFix"/>
<feBlend mode="normal" in="SourceGraphic" in2="BackgroundImageFix" result="shape"/>
<feGaussianBlur stdDeviation="0.1" result="effect1_foregroundBlur_447_766"/>
</filter>
<filter id="filter13_f_447_766" x="37.7463" y="56.9399" width="4.44395" height="0.600195" filterUnits="userSpaceOnUse" color-interpolation-filters="sRGB">
<feFlood flood-opacity="0" result="BackgroundImageFix"/>
<feBlend mode="normal" in="SourceGraphic" in2="BackgroundImageFix" result="shape"/>
<feGaussianBlur stdDeviation="0.1" result="effect1_foregroundBlur_447_766"/>
</filter>
<filter id="filter14_f_447_766" x="21.7238" y="56.9401" width="4.44199" height="0.600195" filterUnits="userSpaceOnUse" color-interpolation-filters="sRGB">
<feFlood flood-opacity="0" result="BackgroundImageFix"/>
<feBlend mode="normal" in="SourceGraphic" in2="BackgroundImageFix" result="shape"/>
<feGaussianBlur stdDeviation="0.1" result="effect1_foregroundBlur_447_766"/>
</filter>
<filter id="filter15_ii_447_766" x="22.0322" y="9.71191" width="21.9404" height="25.0841" filterUnits="userSpaceOnUse" color-interpolation-filters="sRGB">
<feFlood flood-opacity="0" result="BackgroundImageFix"/>
<feBlend mode="normal" in="SourceGraphic" in2="BackgroundImageFix" result="shape"/>
<feColorMatrix in="SourceAlpha" type="matrix" values="0 0 0 0 0 0 0 0 0 0 0 0 0 0 0 0 0 0 127 0" result="hardAlpha"/>
<feOffset dx="1.5"/>
<feGaussianBlur stdDeviation="1.2"/>
<feComposite in2="hardAlpha" operator="arithmetic" k2="-1" k3="1"/>
<feColorMatrix type="matrix" values="0 0 0 0 0.843137 0 0 0 0 0.611765 0 0 0 0 0.498039 0 0 0 1 0"/>
<feBlend mode="normal" in2="shape" result="effect1_innerShadow_447_766"/>
<feColorMatrix in="SourceAlpha" type="matrix" values="0 0 0 0 0 0 0 0 0 0 0 0 0 0 0 0 0 0 127 0" result="hardAlpha"/>
<feOffset dy="0.4"/>
<feGaussianBlur stdDeviation="0.75"/>
<feComposite in2="hardAlpha" operator="arithmetic" k2="-1" k3="1"/>
<feColorMatrix type="matrix" values="0 0 0 0 0.776471 0 0 0 0 0.54902 0 0 0 0 0.423529 0 0 0 1 0"/>
<feBlend mode="normal" in2="effect1_innerShadow_447_766" result="effect2_innerShadow_447_766"/>
</filter>
<filter id="filter16_f_447_766" x="27.8672" y="18.5591" width="7.50781" height="9.64697" filterUnits="userSpaceOnUse" color-interpolation-filters="sRGB">
<feFlood flood-opacity="0" result="BackgroundImageFix"/>
<feBlend mode="normal" in="SourceGraphic" in2="BackgroundImageFix" result="shape"/>
<feGaussianBlur stdDeviation="1" result="effect1_foregroundBlur_447_766"/>
</filter>
<filter id="filter17_f_447_766" x="30.0812" y="19.8156" width="4.15586" height="6.19858" filterUnits="userSpaceOnUse" color-interpolation-filters="sRGB">
<feFlood flood-opacity="0" result="BackgroundImageFix"/>
<feBlend mode="normal" in="SourceGraphic" in2="BackgroundImageFix" result="shape"/>
<feGaussianBlur stdDeviation="0.1" result="effect1_foregroundBlur_447_766"/>
</filter>
<filter id="filter18_f_447_766" x="28.4396" y="26.6103" width="7.43711" height="3.19175" filterUnits="userSpaceOnUse" color-interpolation-filters="sRGB">
<feFlood flood-opacity="0" result="BackgroundImageFix"/>
<feBlend mode="normal" in="SourceGraphic" in2="BackgroundImageFix" result="shape"/>
<feGaussianBlur stdDeviation="0.1" result="effect1_foregroundBlur_447_766"/>
</filter>
<filter id="filter19_ii_447_766" x="19.2852" y="3.36035" width="25.7451" height="16.7141" filterUnits="userSpaceOnUse" color-interpolation-filters="sRGB">
<feFlood flood-opacity="0" result="BackgroundImageFix"/>
<feBlend mode="normal" in="SourceGraphic" in2="BackgroundImageFix" result="shape"/>
<feColorMatrix in="SourceAlpha" type="matrix" values="0 0 0 0 0 0 0 0 0 0 0 0 0 0 0 0 0 0 127 0" result="hardAlpha"/>
<feOffset dy="-1"/>
<feGaussianBlur stdDeviation="1.25"/>
<feComposite in2="hardAlpha" operator="arithmetic" k2="-1" k3="1"/>
<feColorMatrix type="matrix" values="0 0 0 0 0.913725 0 0 0 0 0.733333 0 0 0 0 0.592157 0 0 0 1 0"/>
<feBlend mode="normal" in2="shape" result="effect1_innerShadow_447_766"/>
<feColorMatrix in="SourceAlpha" type="matrix" values="0 0 0 0 0 0 0 0 0 0 0 0 0 0 0 0 0 0 127 0" result="hardAlpha"/>
<feOffset dy="-0.4"/>
<feGaussianBlur stdDeviation="0.4"/>
<feComposite in2="hardAlpha" operator="arithmetic" k2="-1" k3="1"/>
<feColorMatrix type="matrix" values="0 0 0 0 0.87451 0 0 0 0 0.678431 0 0 0 0 0.556863 0 0 0 1 0"/>
<feBlend mode="normal" in2="effect1_innerShadow_447_766" result="effect2_innerShadow_447_766"/>
</filter>
<filter id="filter20_i_447_766" x="35.3359" y="14.6879" width="4.65996" height="2.3646" filterUnits="userSpaceOnUse" color-interpolation-filters="sRGB">
<feFlood flood-opacity="0" result="BackgroundImageFix"/>
<feBlend mode="normal" in="SourceGraphic" in2="BackgroundImageFix" result="shape"/>
<feColorMatrix in="SourceAlpha" type="matrix" values="0 0 0 0 0 0 0 0 0 0 0 0 0 0 0 0 0 0 127 0" result="hardAlpha"/>
<feOffset dx="0.2" dy="-0.4"/>
<feGaussianBlur stdDeviation="0.25"/>
<feComposite in2="hardAlpha" operator="arithmetic" k2="-1" k3="1"/>
<feColorMatrix type="matrix" values="0 0 0 0 0.470588 0 0 0 0 0.270588 0 0 0 0 0.160784 0 0 0 1 0"/>
<feBlend mode="normal" in2="shape" result="effect1_innerShadow_447_766"/>
</filter>
<filter id="filter21_i_447_766" x="24.8232" y="14.7167" width="4.67754" height="2.3519" filterUnits="userSpaceOnUse" color-interpolation-filters="sRGB">
<feFlood flood-opacity="0" result="BackgroundImageFix"/>
<feBlend mode="normal" in="SourceGraphic" in2="BackgroundImageFix" result="shape"/>
<feColorMatrix in="SourceAlpha" type="matrix" values="0 0 0 0 0 0 0 0 0 0 0 0 0 0 0 0 0 0 127 0" result="hardAlpha"/>
<feOffset dx="0.2" dy="-0.4"/>
<feGaussianBlur stdDeviation="0.25"/>
<feComposite in2="hardAlpha" operator="arithmetic" k2="-1" k3="1"/>
<feColorMatrix type="matrix" values="0 0 0 0 0.470588 0 0 0 0 0.270588 0 0 0 0 0.160784 0 0 0 1 0"/>
<feBlend mode="normal" in2="shape" result="effect1_innerShadow_447_766"/>
</filter>
<filter id="filter22_f_447_766" x="19.9961" y="5.53735" width="13.1699" height="11.9849" filterUnits="userSpaceOnUse" color-interpolation-filters="sRGB">
<feFlood flood-opacity="0" result="BackgroundImageFix"/>
<feBlend mode="normal" in="SourceGraphic" in2="BackgroundImageFix" result="shape"/>
<feGaussianBlur stdDeviation="0.25" result="effect1_foregroundBlur_447_766"/>
</filter>
<filter id="filter23_f_447_766" x="31.8398" y="6.5957" width="12.7246" height="11.4722" filterUnits="userSpaceOnUse" color-interpolation-filters="sRGB">
<feFlood flood-opacity="0" result="BackgroundImageFix"/>
<feBlend mode="normal" in="SourceGraphic" in2="BackgroundImageFix" result="shape"/>
<feGaussianBlur stdDeviation="0.25" result="effect1_foregroundBlur_447_766"/>
</filter>
<filter id="filter24_f_447_766" x="35.0539" y="19.3427" width="1.57383" height="1.39243" filterUnits="userSpaceOnUse" color-interpolation-filters="sRGB">
<feFlood flood-opacity="0" result="BackgroundImageFix"/>
<feBlend mode="normal" in="SourceGraphic" in2="BackgroundImageFix" result="shape"/>
<feGaussianBlur stdDeviation="0.1" result="effect1_foregroundBlur_447_766"/>
</filter>
<filter id="filter25_f_447_766" x="36.7328" y="19.4926" width="1.78242" height="1.82808" filterUnits="userSpaceOnUse" color-interpolation-filters="sRGB">
<feFlood flood-opacity="0" result="BackgroundImageFix"/>
<feBlend mode="normal" in="SourceGraphic" in2="BackgroundImageFix" result="shape"/>
<feGaussianBlur stdDeviation="0.2" result="effect1_foregroundBlur_447_766"/>
</filter>
<filter id="filter26_f_447_766" x="27.8461" y="19.3646" width="1.97188" height="2.08198" filterUnits="userSpaceOnUse" color-interpolation-filters="sRGB">
<feFlood flood-opacity="0" result="BackgroundImageFix"/>
<feBlend mode="normal" in="SourceGraphic" in2="BackgroundImageFix" result="shape"/>
<feGaussianBlur stdDeviation="0.2" result="effect1_foregroundBlur_447_766"/>
</filter>
<filter id="filter27_f_447_766" x="26.3391" y="19.3254" width="1.82676" height="1.40903" filterUnits="userSpaceOnUse" color-interpolation-filters="sRGB">
<feFlood flood-opacity="0" result="BackgroundImageFix"/>
<feBlend mode="normal" in="SourceGraphic" in2="BackgroundImageFix" result="shape"/>
<feGaussianBlur stdDeviation="0.1" result="effect1_foregroundBlur_447_766"/>
</filter>
<filter id="filter28_f_447_766" x="20.0986" y="19.1599" width="2.65137" height="4.75806" filterUnits="userSpaceOnUse" color-interpolation-filters="sRGB">
<feFlood flood-opacity="0" result="BackgroundImageFix"/>
<feBlend mode="normal" in="SourceGraphic" in2="BackgroundImageFix" result="shape"/>
<feGaussianBlur stdDeviation="0.25" result="effect1_foregroundBlur_447_766"/>
</filter>
<filter id="filter29_f_447_766" x="41.582" y="19.1279" width="2.87305" height="4.80591" filterUnits="userSpaceOnUse" color-interpolation-filters="sRGB">
<feFlood flood-opacity="0" result="BackgroundImageFix"/>
<feBlend mode="normal" in="SourceGraphic" in2="BackgroundImageFix" result="shape"/>
<feGaussianBlur stdDeviation="0.25" result="effect1_foregroundBlur_447_766"/>
</filter>
<filter id="filter30_f_447_766" x="24.6602" y="14.8672" width="4.80957" height="2.31958" filterUnits="userSpaceOnUse" color-interpolation-filters="sRGB">
<feFlood flood-opacity="0" result="BackgroundImageFix"/>
<feBlend mode="normal" in="SourceGraphic" in2="BackgroundImageFix" result="shape"/>
<feGaussianBlur stdDeviation="0.25" result="effect1_foregroundBlur_447_766"/>
</filter>
<filter id="filter31_f_447_766" x="35.2188" y="14.7744" width="4.80957" height="2.32031" filterUnits="userSpaceOnUse" color-interpolation-filters="sRGB">
<feFlood flood-opacity="0" result="BackgroundImageFix"/>
<feBlend mode="normal" in="SourceGraphic" in2="BackgroundImageFix" result="shape"/>
<feGaussianBlur stdDeviation="0.25" result="effect1_foregroundBlur_447_766"/>
</filter>
<filter id="filter32_ii_447_766" x="21.7678" y="16.8801" width="20.5799" height="8.31992" filterUnits="userSpaceOnUse" color-interpolation-filters="sRGB">
<feFlood flood-opacity="0" result="BackgroundImageFix"/>
<feBlend mode="normal" in="SourceGraphic" in2="BackgroundImageFix" result="shape"/>
<feColorMatrix in="SourceAlpha" type="matrix" values="0 0 0 0 0 0 0 0 0 0 0 0 0 0 0 0 0 0 127 0" result="hardAlpha"/>
<feOffset dx="-0.2" dy="0.2"/>
<feGaussianBlur stdDeviation="0.2"/>
<feComposite in2="hardAlpha" operator="arithmetic" k2="-1" k3="1"/>
<feColorMatrix type="matrix" values="0 0 0 0 0.381221 0 0 0 0 0.2699 0 0 0 0 0.482422 0 0 0 1 0"/>
<feBlend mode="normal" in2="shape" result="effect1_innerShadow_447_766"/>
<feColorMatrix in="SourceAlpha" type="matrix" values="0 0 0 0 0 0 0 0 0 0 0 0 0 0 0 0 0 0 127 0" result="hardAlpha"/>
<feOffset dy="-0.2"/>
<feGaussianBlur stdDeviation="0.1"/>
<feComposite in2="hardAlpha" operator="arithmetic" k2="-1" k3="1"/>
<feColorMatrix type="matrix" values="0 0 0 0 0.2 0 0 0 0 0.109804 0 0 0 0 0.211765 0 0 0 1 0"/>
<feBlend mode="normal" in2="effect1_innerShadow_447_766" result="effect2_innerShadow_447_766"/>
</filter>
<linearGradient id="paint0_linear_447_766" x1="23.6378" y1="9.3181" x2="62.5218" y2="45.7901" gradientUnits="userSpaceOnUse">
<stop stop-color="#EFBE85"/>
<stop offset="0.568" stop-color="#E8AC81"/>
<stop offset="1" stop-color="#D6753D"/>
</linearGradient>
<linearGradient id="paint1_linear_447_766" x1="60.1258" y1="26.6941" x2="18.2498" y2="26.6941" gradientUnits="userSpaceOnUse">
<stop stop-color="#509245"/>
<stop offset="1" stop-color="#44803D"/>
</linearGradient>
<radialGradient id="paint2_radial_447_766" cx="0" cy="0" r="1" gradientUnits="userSpaceOnUse" gradientTransform="translate(12.8747 51.5706) rotate(-56.746) scale(36.4726 49.917)">
<stop stop-color="#25585F"/>
<stop offset="1" stop-color="#25585F" stop-opacity="0"/>
</radialGradient>
<radialGradient id="paint3_radial_447_766" cx="0" cy="0" r="1" gradientUnits="userSpaceOnUse" gradientTransform="translate(59.1258 51.0701) rotate(-125.417) scale(34.511 34.1364)">
<stop stop-color="#358175"/>
<stop offset="1" stop-color="#358175" stop-opacity="0"/>
</radialGradient>
<linearGradient id="paint4_linear_447_766" x1="26.8765" y1="7.20018" x2="62.5005" y2="48.8242" gradientUnits="userSpaceOnUse">
<stop stop-color="#FFD59C"/>
<stop offset="1" stop-color="#F69C5B"/>
</linearGradient>
<linearGradient id="paint5_linear_447_766" x1="-9.81219" y1="51.382" x2="57.8118" y2="51.382" gradientUnits="userSpaceOnUse">
<stop stop-color="#D18F7B"/>
<stop offset="1" stop-color="#F1B58B"/>
</linearGradient>
<linearGradient id="paint6_linear_447_766" x1="6.18781" y1="10.506" x2="6.18781" y2="47.382" gradientUnits="userSpaceOnUse">
<stop stop-color="#D78248"/>
<stop offset="1" stop-color="#D78248" stop-opacity="0"/>
</linearGradient>
<radialGradient id="paint7_radial_447_766" cx="0" cy="0" r="1" gradientUnits="userSpaceOnUse" gradientTransform="translate(4.00781 8.73999) rotate(90) scale(18.6228 1.23528)">
<stop offset="0.355" stop-color="#BC7B53"/>
<stop offset="1" stop-color="#BC7B53" stop-opacity="0"/>
</radialGradient>
<radialGradient id="paint8_radial_447_766" cx="0" cy="0" r="1" gradientUnits="userSpaceOnUse" gradientTransform="translate(31.9998 32.0061) rotate(90) scale(28.0938 12.4373)">
<stop stop-color="#61342D"/>
<stop offset="1" stop-color="#764747"/>
</radialGradient>
<radialGradient id="paint9_radial_447_766" cx="0" cy="0" r="1" gradientUnits="userSpaceOnUse" gradientTransform="translate(45.3118 41.0701) rotate(90) scale(16.75 5.875)">
<stop stop-color="#9A6D66"/>
<stop offset="1" stop-color="#9A6D66" stop-opacity="0"/>
</radialGradient>
<radialGradient id="paint10_radial_447_766" cx="0" cy="0" r="1" gradientUnits="userSpaceOnUse" gradientTransform="translate(25.4378 38.2561) rotate(135) scale(4.33103 3.49135)">
<stop stop-color="#61332B"/>
<stop offset="1" stop-color="#61332B" stop-opacity="0"/>
</radialGradient>
<radialGradient id="paint11_radial_447_766" cx="0" cy="0" r="1" gradientUnits="userSpaceOnUse" gradientTransform="translate(53.9877 56.5701) rotate(-90) scale(20.375 7.70212)">
<stop stop-color="#7C5A5A"/>
<stop offset="1" stop-color="#735451"/>
</radialGradient>
<linearGradient id="paint12_linear_447_766" x1="50.3477" y1="61.0101" x2="50.3477" y2="53.3761" gradientUnits="userSpaceOnUse">
<stop stop-color="#614451"/>
<stop offset="1" stop-color="#614451" stop-opacity="0"/>
</linearGradient>
<linearGradient id="paint13_linear_447_766" x1="44.8117" y1="58.6321" x2="46.4377" y2="58.6001" gradientUnits="userSpaceOnUse">
<stop offset="0.254" stop-color="#4F2737"/>
<stop offset="1" stop-color="#4F2737" stop-opacity="0"/>
</linearGradient>
<linearGradient id="paint14_linear_447_766" x1="14.2692" y1="56.3963" x2="19.0592" y2="56.3963" gradientUnits="userSpaceOnUse">
<stop stop-color="#623D44"/>
<stop offset="1" stop-color="#4F2E37"/>
</linearGradient>
<radialGradient id="paint15_radial_447_766" cx="0" cy="0" r="1" gradientUnits="userSpaceOnUse" gradientTransform="translate(22.9172 59.6663) rotate(180) scale(13.8414 34.5614)">
<stop offset="0.576" stop-color="#5D3841" stop-opacity="0"/>
<stop offset="1" stop-color="#7F6260"/>
</radialGradient>
<radialGradient id="paint16_radial_447_766" cx="0" cy="0" r="1" gradientUnits="userSpaceOnUse" gradientTransform="translate(30.3747 40.6942) scale(7.1875 23.5938)">
<stop stop-color="#ABA5A8"/>
<stop offset="1" stop-color="#544B50"/>
</radialGradient>
<linearGradient id="paint17_linear_447_766" x1="36.1094" y1="36.8507" x2="41.7034" y2="36.8507" gradientUnits="userSpaceOnUse">
<stop stop-color="#613327"/>
<stop offset="0.371" stop-color="#764440"/>
</linearGradient>
<radialGradient id="paint18_radial_447_766" cx="0" cy="0" r="1" gradientUnits="userSpaceOnUse" gradientTransform="translate(42.4614 38.9887) rotate(-115.221) scale(7.48093 4.52508)">
<stop stop-color="#90645E"/>
<stop offset="1" stop-color="#90645E" stop-opacity="0"/>
</radialGradient>
<radialGradient id="paint19_radial_447_766" cx="0" cy="0" r="1" gradientUnits="userSpaceOnUse" gradientTransform="translate(39.344 41.0058) rotate(-125.283) scale(3.27312 0.59612)">
<stop stop-color="#8A5D57"/>
<stop offset="1" stop-color="#8A5D57" stop-opacity="0"/>
</radialGradient>
<radialGradient id="paint20_radial_447_766" cx="0" cy="0" r="1" gradientUnits="userSpaceOnUse" gradientTransform="translate(35.9348 33.0374) rotate(69.677) scale(1.89948 3.55552)">
<stop offset="0.359" stop-color="#481E13"/>
<stop offset="1" stop-color="#4A1D14" stop-opacity="0"/>
</radialGradient>
<linearGradient id="paint21_linear_447_766" x1="27.8866" y1="36.8507" x2="22.2926" y2="36.8507" gradientUnits="userSpaceOnUse">
<stop stop-color="#744036"/>
<stop offset="0.639" stop-color="#72433E"/>
</linearGradient>
<radialGradient id="paint22_radial_447_766" cx="0" cy="0" r="1" gradientUnits="userSpaceOnUse" gradientTransform="translate(27.0306 40.8207) rotate(-88.8542) scale(6.25125 2.52514)">
<stop stop-color="#875955"/>
<stop offset="1" stop-color="#875955" stop-opacity="0"/>
</radialGradient>
<linearGradient id="paint23_linear_447_766" x1="24.2166" y1="33.9767" x2="25.3426" y2="34.4147" gradientUnits="userSpaceOnUse">
<stop stop-color="#6F5048"/>
<stop offset="1" stop-color="#6F5048" stop-opacity="0"/>
</linearGradient>
<radialGradient id="paint24_radial_447_766" cx="0" cy="0" r="1" gradientUnits="userSpaceOnUse" gradientTransform="translate(28.0606 33.0407) rotate(115.115) scale(2.20882 4.13453)">
<stop offset="0.219" stop-color="#481E13"/>
<stop offset="1" stop-color="#4A1D14" stop-opacity="0"/>
</radialGradient>
<radialGradient id="paint25_radial_447_766" cx="0" cy="0" r="1" gradientUnits="userSpaceOnUse" gradientTransform="translate(32.0067 34.5701) rotate(90) scale(5.62202 4.11258)">
<stop offset="0.298" stop-color="#996759"/>
<stop offset="1" stop-color="#794933"/>
</radialGradient>
<radialGradient id="paint26_radial_447_766" cx="0" cy="0" r="1" gradientUnits="userSpaceOnUse" gradientTransform="translate(45.2757 47.6424) rotate(136.93) scale(3.09076 4.45255)">
<stop offset="0.28" stop-color="#E4B392"/>
<stop offset="1" stop-color="#C8926A"/>
</radialGradient>
<radialGradient id="paint27_radial_447_766" cx="0" cy="0" r="1" gradientUnits="userSpaceOnUse" gradientTransform="translate(45.5597 47.0804) rotate(-40.3996) scale(1.6257 0.968405)">
<stop stop-color="#EDC2A5"/>
<stop offset="1" stop-color="#EDC2A5" stop-opacity="0"/>
</radialGradient>
<radialGradient id="paint28_radial_447_766" cx="0" cy="0" r="1" gradientUnits="userSpaceOnUse" gradientTransform="translate(22.1864 48.1268) rotate(-170.853) scale(3.73499 11.703)">
<stop stop-color="#A66D4A"/>
<stop offset="1" stop-color="#BC8872"/>
</radialGradient>
<linearGradient id="paint29_linear_447_766" x1="43.6879" y1="49.694" x2="34.9379" y2="49.694" gradientUnits="userSpaceOnUse">
<stop stop-color="#E9266F"/>
<stop offset="1" stop-color="#BF1B74"/>
</linearGradient>
<linearGradient id="paint30_linear_447_766" x1="20.6279" y1="47.2561" x2="21.4839" y2="47.2561" gradientUnits="userSpaceOnUse">
<stop stop-color="#6D6670"/>
<stop offset="1" stop-color="#6D6670" stop-opacity="0"/>
</linearGradient>
<linearGradient id="paint31_linear_447_766" x1="25.7263" y1="56.1318" x2="17.1263" y2="56.1318" gradientUnits="userSpaceOnUse">
<stop stop-color="#D9A893"/>
<stop offset="0.716" stop-color="#C48B7E"/>
</linearGradient>
<radialGradient id="paint32_radial_447_766" cx="0" cy="0" r="1" gradientUnits="userSpaceOnUse" gradientTransform="translate(24.3763 50.8298) rotate(180) scale(3.34374 1.3191)">
<stop stop-color="#E4B8A5"/>
<stop offset="1" stop-color="#DAA594" stop-opacity="0"/>
</radialGradient>
<radialGradient id="paint33_radial_447_766" cx="0" cy="0" r="1" gradientUnits="userSpaceOnUse" gradientTransform="translate(24.4063 53.3918) rotate(180) scale(3.0625 1.20814)">
<stop stop-color="#E4B8A5"/>
<stop offset="1" stop-color="#DAA594" stop-opacity="0"/>
</radialGradient>
<radialGradient id="paint34_radial_447_766" cx="0" cy="0" r="1" gradientUnits="userSpaceOnUse" gradientTransform="translate(24.5003 55.9538) rotate(180) scale(2.6875 1.0602)">
<stop stop-color="#E4B8A5"/>
<stop offset="1" stop-color="#DAA594" stop-opacity="0"/>
</radialGradient>
<radialGradient id="paint35_radial_447_766" cx="0" cy="0" r="1" gradientUnits="userSpaceOnUse" gradientTransform="translate(24.6403 58.6738) rotate(180) scale(3 1.18348)">
<stop stop-color="#E4B8A5"/>
<stop offset="1" stop-color="#DAA594" stop-opacity="0"/>
</radialGradient>
<linearGradient id="paint36_linear_447_766" x1="44.9381" y1="55.3201" x2="37.3081" y2="55.3201" gradientUnits="userSpaceOnUse">
<stop stop-color="#F0C0A1"/>
<stop offset="0.807" stop-color="#B97A6F"/>
</linearGradient>
<radialGradient id="paint37_radial_447_766" cx="0" cy="0" r="1" gradientUnits="userSpaceOnUse" gradientTransform="translate(42.5001 50.8301) scale(3.40624 1.34376)">
<stop stop-color="#E8B8A6"/>
<stop offset="1" stop-color="#EEBEA0" stop-opacity="0"/>
</radialGradient>
<radialGradient id="paint38_radial_447_766" cx="0" cy="0" r="1" gradientUnits="userSpaceOnUse" gradientTransform="translate(42.3761 53.3921) scale(3.25 1.28212)">
<stop stop-color="#E8B8A6"/>
<stop offset="1" stop-color="#EEBEA0" stop-opacity="0"/>
</radialGradient>
<radialGradient id="paint39_radial_447_766" cx="0" cy="0" r="1" gradientUnits="userSpaceOnUse" gradientTransform="translate(42.1881 55.9541) scale(3.125 1.2328)">
<stop stop-color="#E8B8A6"/>
<stop offset="1" stop-color="#EEBEA0" stop-opacity="0"/>
</radialGradient>
<radialGradient id="paint40_radial_447_766" cx="0" cy="0" r="1" gradientUnits="userSpaceOnUse" gradientTransform="translate(41.9061 58.6741) scale(2.875 1.13418)">
<stop stop-color="#E8B8A6"/>
<stop offset="1" stop-color="#EEBEA0" stop-opacity="0"/>
</radialGradient>
<linearGradient id="paint41_linear_447_766" x1="21.5619" y1="44.0061" x2="43.3079" y2="44.0061" gradientUnits="userSpaceOnUse">
<stop stop-color="#564567"/>
<stop offset="1" stop-color="#564567"/>
</linearGradient>
<linearGradient id="paint42_linear_447_766" x1="32.801" y1="42.1323" x2="32.801" y2="44.4763" gradientUnits="userSpaceOnUse">
<stop stop-color="#DCD5E1"/>
<stop offset="1" stop-color="#B2ACB9"/>
</linearGradient>
<linearGradient id="paint43_linear_447_766" x1="-nan" y1="-nan" x2="-nan" y2="-nan" gradientUnits="userSpaceOnUse">
<stop stop-color="#AB685C"/>
<stop offset="1" stop-color="#AB685C" stop-opacity="0"/>
</linearGradient>
<linearGradient id="paint44_linear_447_766" x1="-nan" y1="-nan" x2="-nan" y2="-nan" gradientUnits="userSpaceOnUse">
<stop stop-color="#D29C80"/>
<stop offset="1" stop-color="#D29C80" stop-opacity="0"/>
</linearGradient>
<linearGradient id="paint45_linear_447_766" x1="-nan" y1="-nan" x2="-nan" y2="-nan" gradientUnits="userSpaceOnUse">
<stop stop-color="#AB685C"/>
<stop offset="1" stop-color="#AB685C" stop-opacity="0"/>
</linearGradient>
<linearGradient id="paint46_linear_447_766" x1="-nan" y1="-nan" x2="-nan" y2="-nan" gradientUnits="userSpaceOnUse">
<stop stop-color="#D29C80"/>
<stop offset="1" stop-color="#D29C80" stop-opacity="0"/>
</linearGradient>
<linearGradient id="paint47_linear_447_766" x1="-nan" y1="-nan" x2="-nan" y2="-nan" gradientUnits="userSpaceOnUse">
<stop stop-color="#AB685C"/>
<stop offset="1" stop-color="#AB685C" stop-opacity="0"/>
</linearGradient>
<linearGradient id="paint48_linear_447_766" x1="-nan" y1="-nan" x2="-nan" y2="-nan" gradientUnits="userSpaceOnUse">
<stop stop-color="#D29C80"/>
<stop offset="1" stop-color="#D29C80" stop-opacity="0"/>
</linearGradient>
<radialGradient id="paint49_radial_447_766" cx="0" cy="0" r="1" gradientUnits="userSpaceOnUse" gradientTransform="translate(43.0777 23.6065) rotate(99.7819) scale(7.17323 8.52123)">
<stop offset="0.28" stop-color="#F7BF94"/>
<stop offset="1" stop-color="#DA8F78"/>
</radialGradient>
<radialGradient id="paint50_radial_447_766" cx="0" cy="0" r="1" gradientUnits="userSpaceOnUse" gradientTransform="translate(21.061 24.1725) rotate(64.592) scale(5.93794 2.69907)">
<stop stop-color="#F8BF95"/>
<stop offset="1" stop-color="#DC998E"/>
</radialGradient>
<radialGradient id="paint51_radial_447_766" cx="0" cy="0" r="1" gradientUnits="userSpaceOnUse" gradientTransform="translate(22.6638 23.7648) rotate(81.457) scale(2.41404 2.11762)">
<stop offset="0.263" stop-color="#D79B77"/>
<stop offset="1" stop-color="#D79B77" stop-opacity="0"/>
</radialGradient>
<radialGradient id="paint52_radial_447_766" cx="0" cy="0" r="1" gradientUnits="userSpaceOnUse" gradientTransform="translate(21.061 24.1725) rotate(64.592) scale(5.93794 2.69907)">
<stop stop-color="#F8BF95"/>
<stop offset="1" stop-color="#DC998E"/>
</radialGradient>
<radialGradient id="paint53_radial_447_766" cx="0" cy="0" r="1" gradientUnits="userSpaceOnUse" gradientTransform="translate(22.6638 23.7648) rotate(81.457) scale(2.41404 2.11762)">
<stop offset="0.263" stop-color="#D79B77"/>
<stop offset="1" stop-color="#D79B77" stop-opacity="0"/>
</radialGradient>
<radialGradient id="paint54_radial_447_766" cx="0" cy="0" r="1" gradientUnits="userSpaceOnUse" gradientTransform="translate(37.7742 22.0539) rotate(180) scale(10.4557 18.496)">
<stop stop-color="#FFC59F"/>
<stop offset="1" stop-color="#C8917D"/>
</radialGradient>
<linearGradient id="paint55_linear_447_766" x1="42.4722" y1="25.4259" x2="33.7682" y2="25.4259" gradientUnits="userSpaceOnUse">
<stop stop-color="#F7C29D"/>
<stop offset="1" stop-color="#F7C29D" stop-opacity="0"/>
</linearGradient>
<radialGradient id="paint56_radial_447_766" cx="0" cy="0" r="1" gradientUnits="userSpaceOnUse" gradientTransform="translate(33.2662 9.05992) rotate(90) scale(26.1874 21.6864)">
<stop offset="0.778" stop-color="#B67F70" stop-opacity="0"/>
<stop offset="1" stop-color="#956055"/>
</radialGradient>
<radialGradient id="paint57_radial_447_766" cx="0" cy="0" r="1" gradientUnits="userSpaceOnUse" gradientTransform="translate(37.0522 19.8139) rotate(-90) scale(2.68182 3.31874)">
<stop offset="0.325" stop-color="#E4A38D"/>
<stop offset="1" stop-color="#E4A38D" stop-opacity="0"/>
</radialGradient>
<radialGradient id="paint58_radial_447_766" cx="0" cy="0" r="1" gradientUnits="userSpaceOnUse" gradientTransform="translate(27.6799 19.5414) rotate(-93.012) scale(2.20986 2.40484)">
<stop offset="0.378" stop-color="#C2847C"/>
<stop offset="1" stop-color="#C2847C" stop-opacity="0"/>
</radialGradient>
<radialGradient id="paint59_radial_447_766" cx="0" cy="0" r="1" gradientUnits="userSpaceOnUse" gradientTransform="translate(22.3962 22.8239) scale(2.41364 12.2679)">
<stop stop-color="#DBA085"/>
<stop offset="1" stop-color="#DBA085" stop-opacity="0"/>
</radialGradient>
<radialGradient id="paint60_radial_447_766" cx="0" cy="0" r="1" gradientUnits="userSpaceOnUse" gradientTransform="translate(20.4522 16.0519) rotate(-54.4126) scale(8.98633 2.03542)">
<stop offset="0.451" stop-color="#B67459"/>
<stop offset="1" stop-color="#B67459" stop-opacity="0"/>
</radialGradient>
<radialGradient id="paint61_radial_447_766" cx="0" cy="0" r="1" gradientUnits="userSpaceOnUse" gradientTransform="translate(31.8502 30.1999) rotate(-103.259) scale(21.047 23.1838)">
<stop offset="0.924" stop-color="#C17F5F" stop-opacity="0"/>
<stop offset="1" stop-color="#C17F5F"/>
</radialGradient>
<radialGradient id="paint62_radial_447_766" cx="0" cy="0" r="1" gradientUnits="userSpaceOnUse" gradientTransform="translate(36.0742 11.2919) rotate(19.4156) scale(4.33636 2.60133)">
<stop offset="0.258" stop-color="#C17F5F"/>
<stop offset="1" stop-color="#C17F5F" stop-opacity="0"/>
</radialGradient>
<linearGradient id="paint63_linear_447_766" x1="32.1586" y1="23.7121" x2="33.8686" y2="23.7121" gradientUnits="userSpaceOnUse">
<stop stop-color="#E1AA8C"/>
<stop offset="1" stop-color="#FECAA8"/>
</linearGradient>
<linearGradient id="paint64_linear_447_766" x1="30.0126" y1="23.4021" x2="32.1626" y2="23.5201" gradientUnits="userSpaceOnUse">
<stop stop-color="#D29879" stop-opacity="0.915"/>
<stop offset="0.203" stop-color="#D29879"/>
<stop offset="1" stop-color="#D29879" stop-opacity="0"/>
</linearGradient>
<linearGradient id="paint65_linear_447_766" x1="32.1586" y1="24.5101" x2="32.1586" y2="26.2141" gradientUnits="userSpaceOnUse">
<stop stop-color="#CB8685" stop-opacity="0"/>
<stop offset="0.845" stop-color="#CB8685"/>
</linearGradient>
<linearGradient id="paint66_linear_447_766" x1="32.1586" y1="20.0141" x2="32.1586" y2="20.8541" gradientUnits="userSpaceOnUse">
<stop stop-color="#E0A78C"/>
<stop offset="1" stop-color="#E0A78C" stop-opacity="0"/>
</linearGradient>
<linearGradient id="paint67_linear_447_766" x1="32.4196" y1="25.8579" x2="32.4196" y2="25.7399" gradientUnits="userSpaceOnUse">
<stop stop-color="#C27B78"/>
<stop offset="1" stop-color="#C27B78" stop-opacity="0"/>
</linearGradient>
<radialGradient id="paint68_radial_447_766" cx="0" cy="0" r="1" gradientUnits="userSpaceOnUse" gradientTransform="translate(34.1943 21.9017) rotate(135.131) scale(5.19122 3.29954)">
<stop offset="0.94" stop-color="#C27B78" stop-opacity="0"/>
<stop offset="1" stop-color="#C27B78"/>
</radialGradient>
<radialGradient id="paint69_radial_447_766" cx="0" cy="0" r="1" gradientUnits="userSpaceOnUse" gradientTransform="translate(29.9053 28.6334) rotate(-60.732) scale(1.4202 4.13278)">
<stop stop-color="#D0978E"/>
<stop offset="1" stop-color="#D0978E" stop-opacity="0"/>
</radialGradient>
<radialGradient id="paint70_radial_447_766" cx="0" cy="0" r="1" gradientUnits="userSpaceOnUse" gradientTransform="translate(32.1596 29.134) rotate(-90) scale(1.44148 5.79942)">
<stop stop-color="#89024E"/>
<stop offset="1" stop-color="#87004D"/>
</radialGradient>
<linearGradient id="paint71_linear_447_766" x1="42.8849" y1="10.7304" x2="22.6369" y2="10.7304" gradientUnits="userSpaceOnUse">
<stop stop-color="#FFF6B9"/>
<stop offset="1" stop-color="#E7C991"/>
</linearGradient>
<radialGradient id="paint72_radial_447_766" cx="0" cy="0" r="1" gradientUnits="userSpaceOnUse" gradientTransform="translate(21.6989 18.8904) rotate(-90) scale(7.26532 12.8727)">
<stop stop-color="#E7B286"/>
<stop offset="1" stop-color="#E7B286" stop-opacity="0"/>
</radialGradient>
<radialGradient id="paint73_radial_447_766" cx="0" cy="0" r="1" gradientUnits="userSpaceOnUse" gradientTransform="translate(41.8789 18.8904) rotate(-90) scale(7.26532 12.8727)">
<stop stop-color="#F6CB9C"/>
<stop offset="1" stop-color="#F6CB9C" stop-opacity="0"/>
</radialGradient>
<radialGradient id="paint74_radial_447_766" cx="0" cy="0" r="1" gradientUnits="userSpaceOnUse" gradientTransform="translate(40.371 6.3388) rotate(-159.121) scale(6.96046 3.7069)">
<stop stop-color="#FFFFC1"/>
<stop offset="1" stop-color="#FFFFC1" stop-opacity="0"/>
</radialGradient>
<radialGradient id="paint75_radial_447_766" cx="0" cy="0" r="1" gradientUnits="userSpaceOnUse" gradientTransform="translate(30.3469 3.15435) rotate(58.4653) scale(3.46113 8.01434)">
<stop offset="0.287" stop-color="#DDCA94"/>
<stop offset="1" stop-color="#DDCA94" stop-opacity="0"/>
</radialGradient>
<radialGradient id="paint76_radial_447_766" cx="0" cy="0" r="1" gradientUnits="userSpaceOnUse" gradientTransform="translate(32.6643 6.03953) rotate(160.16) scale(8.09428 2.25284)">
<stop stop-color="#FFFCBE"/>
<stop offset="1" stop-color="#FFFCBE" stop-opacity="0"/>
</radialGradient>
<radialGradient id="paint77_radial_447_766" cx="0" cy="0" r="1" gradientUnits="userSpaceOnUse" gradientTransform="translate(21.2952 15.5567) rotate(-57.724) scale(12.0532 13.3538)">
<stop offset="0.093" stop-color="#D5A088"/>
<stop offset="0.233" stop-color="#E4B99B"/>
<stop offset="1" stop-color="#E4B99B" stop-opacity="0"/>
</radialGradient>
<radialGradient id="paint78_radial_447_766" cx="0" cy="0" r="1" gradientUnits="userSpaceOnUse" gradientTransform="translate(39.4 8.3599) rotate(13.3074) scale(6.95842 3.89161)">
<stop stop-color="#FFFFC7"/>
<stop offset="1" stop-color="#FFFFC7" stop-opacity="0"/>
</radialGradient>
<radialGradient id="paint79_radial_447_766" cx="0" cy="0" r="1" gradientUnits="userSpaceOnUse" gradientTransform="translate(42.4179 17.5672) rotate(-120.119) scale(8.56364 4.77588)">
<stop stop-color="#E3B593"/>
<stop offset="1" stop-color="#E4B78D" stop-opacity="0"/>
</radialGradient>
<radialGradient id="paint80_radial_447_766" cx="0" cy="0" r="1" gradientUnits="userSpaceOnUse" gradientTransform="translate(41.176 16.9679) rotate(-120.695) scale(5.12222 3.66883)">
<stop offset="0.057" stop-color="#DFB086"/>
<stop offset="1" stop-color="#DFB086" stop-opacity="0"/>
</radialGradient>
<radialGradient id="paint81_radial_447_766" cx="0" cy="0" r="1" gradientUnits="userSpaceOnUse" gradientTransform="translate(41.746 8.1259) rotate(166.509) scale(9.86918 10.669)">
<stop offset="0.652" stop-color="#EBCD93" stop-opacity="0"/>
<stop offset="1" stop-color="#EBCD93"/>
</radialGradient>
<radialGradient id="paint82_radial_447_766" cx="0" cy="0" r="1" gradientUnits="userSpaceOnUse" gradientTransform="translate(39.064 7.8739) rotate(107.002) scale(0.802534 3.66908)">
<stop offset="0.461" stop-color="#FFED93"/>
<stop offset="1" stop-color="#FFED93" stop-opacity="0"/>
</radialGradient>
<radialGradient id="paint83_radial_447_766" cx="0" cy="0" r="1" gradientUnits="userSpaceOnUse" gradientTransform="translate(39.0572 6.23026) rotate(117.979) scale(8.50294 21.9266)">
<stop offset="0.651" stop-color="#E1B395" stop-opacity="0"/>
<stop offset="1" stop-color="#E1B395"/>
</radialGradient>
<radialGradient id="paint84_radial_447_766" cx="0" cy="0" r="1" gradientUnits="userSpaceOnUse" gradientTransform="translate(36.5214 20.2221) rotate(90) scale(1.62264 2.581)">
<stop offset="0.802" stop-color="#925C51"/>
<stop offset="1" stop-color="#85534D"/>
</radialGradient>
<radialGradient id="paint85_radial_447_766" cx="0" cy="0" r="1" gradientUnits="userSpaceOnUse" gradientTransform="translate(36.0658 20.3901) rotate(-127.812) scale(0.756583 1.04164)">
<stop offset="0.766" stop-color="#FFE6E2" stop-opacity="0"/>
<stop offset="0.966" stop-color="#FFE6E2"/>
</radialGradient>
<linearGradient id="paint86_linear_447_766" x1="38.0768" y1="20.3306" x2="37.4488" y2="20.7166" gradientUnits="userSpaceOnUse">
<stop stop-color="#B4948D"/>
<stop offset="1" stop-color="#B4948D" stop-opacity="0"/>
</linearGradient>
<radialGradient id="paint87_radial_447_766" cx="0" cy="0" r="1" gradientUnits="userSpaceOnUse" gradientTransform="translate(27.7938 20.2221) rotate(90) scale(1.62272 2.58112)">
<stop offset="0.802" stop-color="#925C51"/>
<stop offset="1" stop-color="#85534D"/>
</radialGradient>
<linearGradient id="paint88_linear_447_766" x1="29.2801" y1="20.3306" x2="28.6521" y2="20.7166" gradientUnits="userSpaceOnUse">
<stop stop-color="#B4948D"/>
<stop offset="1" stop-color="#B4948D" stop-opacity="0"/>
</linearGradient>
<radialGradient id="paint89_radial_447_766" cx="0" cy="0" r="1" gradientUnits="userSpaceOnUse" gradientTransform="translate(27.5193 20.6016) rotate(-118.811) scale(0.988301 1.18795)">
<stop offset="0.766" stop-color="#FFE6E2" stop-opacity="0"/>
<stop offset="0.966" stop-color="#FFE6E2"/>
</radialGradient>
<linearGradient id="paint90_linear_447_766" x1="45.03" y1="20.384" x2="42.618" y2="24.736" gradientUnits="userSpaceOnUse">
<stop stop-color="#F8C5A2"/>
<stop offset="1" stop-color="#E0A48C"/>
</linearGradient>
<radialGradient id="paint91_radial_447_766" cx="0" cy="0" r="1" gradientUnits="userSpaceOnUse" gradientTransform="translate(41.394 20.25) rotate(74.348) scale(4.65934 4.44538)">
<stop offset="0.856" stop-color="#CE8D79" stop-opacity="0"/>
<stop offset="1" stop-color="#CE8D79"/>
</radialGradient>
<radialGradient id="paint92_radial_447_766" cx="0" cy="0" r="1" gradientUnits="userSpaceOnUse" gradientTransform="translate(42.114 21.34) rotate(-53.9198) scale(2.67535 2.24248)">
<stop offset="0.664" stop-color="#E3A17B"/>
<stop offset="1" stop-color="#E3A17B" stop-opacity="0"/>
</radialGradient>
<linearGradient id="paint93_linear_447_766" x1="20.4559" y1="21.7919" x2="23.3739" y2="21.5379" gradientUnits="userSpaceOnUse">
<stop stop-color="#C48874"/>
<stop offset="1" stop-color="#BD776C"/>
</linearGradient>
<radialGradient id="paint94_radial_447_766" cx="0" cy="0" r="1" gradientUnits="userSpaceOnUse" gradientTransform="translate(22.3235 21.5357) rotate(-171.68) scale(3.38566 3.32842)">
<stop offset="0.775" stop-color="#DCA187" stop-opacity="0"/>
<stop offset="1" stop-color="#DCA187"/>
</radialGradient>
<linearGradient id="paint95_linear_447_766" x1="32.1598" y1="17.8921" x2="32.1598" y2="25.4541" gradientUnits="userSpaceOnUse">
<stop stop-color="#402857"/>
<stop offset="1" stop-color="#251732"/>
</linearGradient>
<radialGradient id="paint96_radial_447_766" cx="0" cy="0" r="1" gradientUnits="userSpaceOnUse" gradientTransform="translate(22.7498 20.1001) scale(1.8125 5.4375)">
<stop stop-color="#52396B"/>
<stop offset="1" stop-color="#52396B" stop-opacity="0"/>
</radialGradient>
</defs>
</svg>
