<svg width="24" height="24" viewBox="0 0 24 24" fill="none" id="svg1418628992_751">
                  <rect width="24" height="24" rx="12" fill="white"></rect>
                  <path d="M9.18134 5.62604L9.89934 5.3967C10.5713 5.18204 11.29 5.52937 11.578 6.20804L12.1513 7.56004C12.4013 8.1487 12.2627 8.84137 11.8087 9.27204L10.5467 10.4707C10.6245 11.188 10.8653 11.894 11.2693 12.5887C11.6535 13.2606 12.1683 13.8488 12.7833 14.3187L14.3007 13.812C14.8753 13.6207 15.5013 13.8414 15.854 14.3594L16.6753 15.566C17.086 16.1687 17.012 16.9994 16.5033 17.51L15.958 18.0574C15.4153 18.602 14.6407 18.8 13.9233 18.576C12.2309 18.048 10.6747 16.4807 9.25467 13.874C7.8329 11.2629 7.33112 9.04781 7.74934 7.2287C7.92534 6.46337 8.47067 5.85337 9.18267 5.62604" fill="#AA402A"></path>
                </svg>